<mxfile host="app.diagrams.net" agent="Mozilla/5.0 (Windows NT 10.0; Win64; x64) AppleWebKit/537.36 (KHTML, like Gecko) Chrome/130.0.0.0 Safari/537.36" version="24.8.4">
  <diagram name="Page-1" id="e3a06f82-3646-2815-327d-82caf3d4e204">
    <mxGraphModel dx="1687" dy="878" grid="1" gridSize="10" guides="1" tooltips="1" connect="1" arrows="1" fold="1" page="1" pageScale="1.5" pageWidth="1169" pageHeight="826" background="#9999FF" math="0" shadow="1">
      <root>
        <mxCell id="0" style=";html=1;" />
        <mxCell id="1" style=";html=1;" parent="0" />
        <mxCell id="kiOYJkHSEYuATrHRKsPs-30" value="General-purpose Home" style="swimlane;whiteSpace=wrap;html=1;fillColor=#94E897;strokeColor=#82b366;swimlaneFillColor=#9FCCA1;fontStyle=1;fontSize=11;fontFamily=Roboto;" parent="1" vertex="1">
          <mxGeometry x="645" y="90" width="450" height="490" as="geometry">
            <mxRectangle x="680" y="90" width="170" height="30" as="alternateBounds" />
          </mxGeometry>
        </mxCell>
        <mxCell id="kiOYJkHSEYuATrHRKsPs-5" value="Breadbox" style="verticalLabelPosition=bottom;sketch=0;aspect=fixed;html=1;verticalAlign=top;strokeColor=none;align=center;outlineConnect=0;shape=mxgraph.citrix.desktop;fontStyle=1;fontSize=11;fontFamily=Roboto;" parent="kiOYJkHSEYuATrHRKsPs-30" vertex="1">
          <mxGeometry x="294" y="380" width="56.31" height="62" as="geometry" />
        </mxCell>
        <mxCell id="kiOYJkHSEYuATrHRKsPs-12" value="Other Devices" style="verticalLabelPosition=bottom;sketch=0;aspect=fixed;html=1;verticalAlign=top;strokeColor=none;align=center;outlineConnect=0;shape=mxgraph.citrix.tablet_2;fontStyle=1;fontSize=11;fontFamily=Roboto;" parent="kiOYJkHSEYuATrHRKsPs-30" vertex="1">
          <mxGeometry x="172.41000000000008" y="375.75" width="63.17" height="66.25" as="geometry" />
        </mxCell>
        <mxCell id="kiOYJkHSEYuATrHRKsPs-13" value="VanillaPi (Camera)" style="shape=image;html=1;verticalAlign=top;verticalLabelPosition=bottom;labelBackgroundColor=none;imageAspect=0;aspect=fixed;image=https://cdn1.iconfinder.com/data/icons/fruit-136/64/Fruit_iconfree_Filled_Outline_raspberry-healthy-organic-food-fruit_icon-128.png;fontStyle=1;fontSize=11;fontFamily=Roboto;" parent="kiOYJkHSEYuATrHRKsPs-30" vertex="1">
          <mxGeometry x="44" y="374" width="68" height="68" as="geometry" />
        </mxCell>
        <mxCell id="kiOYJkHSEYuATrHRKsPs-15" style="edgeStyle=orthogonalEdgeStyle;rounded=0;orthogonalLoop=1;jettySize=auto;html=1;exitX=0.25;exitY=1;exitDx=0;exitDy=0;fontStyle=1;fontSize=11;fontFamily=Roboto;" parent="kiOYJkHSEYuATrHRKsPs-30" source="kiOYJkHSEYuATrHRKsPs-10" target="kiOYJkHSEYuATrHRKsPs-13" edge="1">
          <mxGeometry relative="1" as="geometry">
            <Array as="points">
              <mxPoint x="184" y="310" />
              <mxPoint x="78" y="310" />
            </Array>
          </mxGeometry>
        </mxCell>
        <mxCell id="kiOYJkHSEYuATrHRKsPs-14" style="edgeStyle=orthogonalEdgeStyle;rounded=0;orthogonalLoop=1;jettySize=auto;html=1;fontStyle=1;fontSize=11;fontFamily=Roboto;" parent="kiOYJkHSEYuATrHRKsPs-30" source="kiOYJkHSEYuATrHRKsPs-10" target="kiOYJkHSEYuATrHRKsPs-12" edge="1">
          <mxGeometry relative="1" as="geometry" />
        </mxCell>
        <mxCell id="hcEnWGUbDba2OEeTrmwM-2" style="edgeStyle=orthogonalEdgeStyle;rounded=0;orthogonalLoop=1;jettySize=auto;html=1;exitX=0.5;exitY=0;exitDx=0;exitDy=0;fontStyle=1;fontSize=11;fontFamily=Roboto;" edge="1" parent="kiOYJkHSEYuATrHRKsPs-30" source="kiOYJkHSEYuATrHRKsPs-10">
          <mxGeometry relative="1" as="geometry">
            <mxPoint x="80" y="150" as="targetPoint" />
            <Array as="points">
              <mxPoint x="204" y="170" />
              <mxPoint x="81" y="170" />
            </Array>
          </mxGeometry>
        </mxCell>
        <mxCell id="kiOYJkHSEYuATrHRKsPs-10" value="&lt;div style=&quot;&quot;&gt;&lt;span style=&quot;background-color: initial;&quot;&gt;Main Router (192.168.X.0/24)&lt;/span&gt;&lt;/div&gt;" style="image;html=1;image=img/lib/clip_art/networking/Router_Icon_128x128.png;labelBackgroundColor=none;fontStyle=1;fontSize=11;fontFamily=Roboto;align=center;" parent="kiOYJkHSEYuATrHRKsPs-30" vertex="1">
          <mxGeometry x="163.99" y="174.5" width="80" height="80" as="geometry" />
        </mxCell>
        <mxCell id="kiOYJkHSEYuATrHRKsPs-17" style="edgeStyle=orthogonalEdgeStyle;rounded=0;orthogonalLoop=1;jettySize=auto;html=1;exitX=0.75;exitY=1;exitDx=0;exitDy=0;fontStyle=1;fontSize=11;fontFamily=Roboto;" parent="kiOYJkHSEYuATrHRKsPs-30" source="kiOYJkHSEYuATrHRKsPs-10" target="kiOYJkHSEYuATrHRKsPs-5" edge="1">
          <mxGeometry relative="1" as="geometry">
            <Array as="points">
              <mxPoint x="224" y="310" />
              <mxPoint x="322" y="310" />
            </Array>
          </mxGeometry>
        </mxCell>
        <mxCell id="hcEnWGUbDba2OEeTrmwM-7" style="edgeStyle=orthogonalEdgeStyle;rounded=0;orthogonalLoop=1;jettySize=auto;html=1;entryX=0;entryY=0.5;entryDx=0;entryDy=0;fontStyle=1;fontSize=11;fontFamily=Roboto;" edge="1" parent="kiOYJkHSEYuATrHRKsPs-30" source="hcEnWGUbDba2OEeTrmwM-1" target="hcEnWGUbDba2OEeTrmwM-3">
          <mxGeometry relative="1" as="geometry" />
        </mxCell>
        <mxCell id="hcEnWGUbDba2OEeTrmwM-1" value="FruitPi (Webserver)" style="shape=image;html=1;verticalAlign=top;verticalLabelPosition=bottom;labelBackgroundColor=none;imageAspect=0;aspect=fixed;image=https://cdn1.iconfinder.com/data/icons/fruit-136/64/Fruit_iconfree_Filled_Outline_raspberry-healthy-organic-food-fruit_icon-128.png;fontStyle=1;fontSize=11;fontFamily=Roboto;" vertex="1" parent="kiOYJkHSEYuATrHRKsPs-30">
          <mxGeometry x="44" y="50" width="68" height="68" as="geometry" />
        </mxCell>
        <mxCell id="hcEnWGUbDba2OEeTrmwM-3" value="Services" style="swimlane;horizontal=0;whiteSpace=wrap;html=1;startSize=23;fontStyle=1;fontSize=11;fontFamily=Roboto;fillColor=#e1d5e7;strokeColor=#9673a6;" vertex="1" parent="kiOYJkHSEYuATrHRKsPs-30">
          <mxGeometry x="170" y="39" width="255" height="90" as="geometry" />
        </mxCell>
        <mxCell id="hcEnWGUbDba2OEeTrmwM-5" value="" style="shape=image;verticalLabelPosition=bottom;labelBackgroundColor=default;verticalAlign=top;aspect=fixed;imageAspect=0;image=https://punksecurity.co.uk/images/blog/hugo-wide.jpg;imageBorder=default;fontStyle=1;fontSize=11;fontFamily=Roboto;" vertex="1" parent="hcEnWGUbDba2OEeTrmwM-3">
          <mxGeometry x="45" y="18.62" width="80.69" height="31" as="geometry" />
        </mxCell>
        <mxCell id="hcEnWGUbDba2OEeTrmwM-6" value="" style="shape=image;verticalLabelPosition=bottom;labelBackgroundColor=default;verticalAlign=top;aspect=fixed;imageAspect=0;image=https://upload.wikimedia.org/wikipedia/en/1/15/Pi-hole_vector_logo.svg;imageBorder=default;fontStyle=1;fontSize=11;fontFamily=Roboto;" vertex="1" parent="hcEnWGUbDba2OEeTrmwM-3">
          <mxGeometry x="165" y="9.999999999999998" width="32.75" height="48.24" as="geometry" />
        </mxCell>
        <mxCell id="kiOYJkHSEYuATrHRKsPs-29" style="edgeStyle=orthogonalEdgeStyle;rounded=0;orthogonalLoop=1;jettySize=auto;html=1;fontStyle=1;fontSize=11;fontFamily=Roboto;" parent="1" source="kiOYJkHSEYuATrHRKsPs-1" target="kiOYJkHSEYuATrHRKsPs-10" edge="1">
          <mxGeometry relative="1" as="geometry" />
        </mxCell>
        <mxCell id="kiOYJkHSEYuATrHRKsPs-1" value="Interwebs" style="verticalLabelPosition=bottom;sketch=0;aspect=fixed;html=1;verticalAlign=top;strokeColor=none;align=center;outlineConnect=0;shape=mxgraph.citrix.geolocation_database;fontStyle=1;fontSize=11;fontFamily=Roboto;" parent="1" vertex="1">
          <mxGeometry x="551" y="275" width="63.82" height="59" as="geometry" />
        </mxCell>
        <mxCell id="kiOYJkHSEYuATrHRKsPs-23" style="edgeStyle=orthogonalEdgeStyle;rounded=0;orthogonalLoop=1;jettySize=auto;html=1;entryX=0;entryY=0.5;entryDx=0;entryDy=0;fontStyle=1;fontSize=11;fontFamily=Roboto;" parent="1" source="kiOYJkHSEYuATrHRKsPs-3" target="kiOYJkHSEYuATrHRKsPs-18" edge="1">
          <mxGeometry relative="1" as="geometry">
            <Array as="points">
              <mxPoint x="321" y="403" />
              <mxPoint x="321" y="304" />
            </Array>
          </mxGeometry>
        </mxCell>
        <mxCell id="kiOYJkHSEYuATrHRKsPs-3" value="Laptop" style="verticalLabelPosition=bottom;sketch=0;aspect=fixed;html=1;verticalAlign=top;strokeColor=none;align=center;outlineConnect=0;shape=mxgraph.citrix.laptop_2;" parent="1" vertex="1">
          <mxGeometry x="180" y="360" width="116" height="86.5" as="geometry" />
        </mxCell>
        <mxCell id="kiOYJkHSEYuATrHRKsPs-24" style="edgeStyle=orthogonalEdgeStyle;rounded=0;orthogonalLoop=1;jettySize=auto;html=1;entryX=0;entryY=0.5;entryDx=0;entryDy=0;fontStyle=1;fontSize=11;fontFamily=Roboto;" parent="1" source="kiOYJkHSEYuATrHRKsPs-4" target="kiOYJkHSEYuATrHRKsPs-18" edge="1">
          <mxGeometry relative="1" as="geometry">
            <Array as="points">
              <mxPoint x="321" y="220" />
              <mxPoint x="321" y="304" />
            </Array>
          </mxGeometry>
        </mxCell>
        <mxCell id="kiOYJkHSEYuATrHRKsPs-4" value="Phone" style="verticalLabelPosition=bottom;sketch=0;aspect=fixed;html=1;verticalAlign=top;strokeColor=none;align=center;outlineConnect=0;shape=mxgraph.citrix.cell_phone;fontStyle=1;fontSize=11;fontFamily=Roboto;" parent="1" vertex="1">
          <mxGeometry x="231" y="190" width="25" height="60" as="geometry" />
        </mxCell>
        <mxCell id="kiOYJkHSEYuATrHRKsPs-21" style="edgeStyle=orthogonalEdgeStyle;rounded=0;orthogonalLoop=1;jettySize=auto;html=1;exitX=1;exitY=0.5;exitDx=0;exitDy=0;fontStyle=1;fontSize=11;fontFamily=Roboto;" parent="1" source="kiOYJkHSEYuATrHRKsPs-18" target="kiOYJkHSEYuATrHRKsPs-1" edge="1">
          <mxGeometry relative="1" as="geometry" />
        </mxCell>
        <mxCell id="kiOYJkHSEYuATrHRKsPs-18" value="10.0.X.0/24" style="image;aspect=fixed;perimeter=ellipsePerimeter;html=1;align=center;shadow=0;dashed=0;spacingTop=3;image=img/lib/active_directory/tunnel.svg;fontStyle=1;fontSize=11;fontFamily=Roboto;labelBackgroundColor=none;" parent="1" vertex="1">
          <mxGeometry x="351" y="290" width="145" height="29" as="geometry" />
        </mxCell>
        <mxCell id="kiOYJkHSEYuATrHRKsPs-26" value="" style="shape=image;verticalLabelPosition=bottom;labelBackgroundColor=default;verticalAlign=top;aspect=fixed;imageAspect=0;image=https://www.wireguard.com/img/wireguard.svg;imageBorder=none;perimeterSpacing=999;fontStyle=1;fontSize=11;fontFamily=Roboto;" parent="1" vertex="1">
          <mxGeometry x="338.6" y="250" width="169.81" height="30" as="geometry" />
        </mxCell>
        <mxCell id="kiOYJkHSEYuATrHRKsPs-31" value="Homelab Land" style="swimlane;whiteSpace=wrap;html=1;fontStyle=1;swimlaneFillColor=#9FCCA1;fillColor=#94E897;strokeColor=#82b366;fontSize=11;fontFamily=Roboto;" parent="1" vertex="1">
          <mxGeometry x="1140" y="90" width="730" height="600" as="geometry" />
        </mxCell>
        <mxCell id="hcEnWGUbDba2OEeTrmwM-13" style="edgeStyle=orthogonalEdgeStyle;rounded=0;orthogonalLoop=1;jettySize=auto;html=1;entryX=0;entryY=0.5;entryDx=0;entryDy=0;fontStyle=1;fontSize=11;fontFamily=Roboto;" edge="1" parent="kiOYJkHSEYuATrHRKsPs-31" source="kiOYJkHSEYuATrHRKsPs-32" target="hcEnWGUbDba2OEeTrmwM-10">
          <mxGeometry relative="1" as="geometry" />
        </mxCell>
        <mxCell id="kiOYJkHSEYuATrHRKsPs-32" value="Leyline (MiniPC)&lt;div style=&quot;font-size: 11px;&quot;&gt;&lt;br style=&quot;font-size: 11px;&quot;&gt;&lt;/div&gt;&lt;div style=&quot;font-size: 11px;&quot;&gt;&lt;br style=&quot;font-size: 11px;&quot;&gt;&lt;/div&gt;" style="image;aspect=fixed;perimeter=ellipsePerimeter;html=1;align=center;shadow=0;dashed=0;spacingTop=3;image=img/lib/active_directory/generic_server.svg;labelBackgroundColor=none;fontStyle=1;fontSize=11;fontFamily=Roboto;" parent="kiOYJkHSEYuATrHRKsPs-31" vertex="1">
          <mxGeometry x="290" y="167" width="53.2" height="95" as="geometry" />
        </mxCell>
        <mxCell id="kiOYJkHSEYuATrHRKsPs-38" value="" style="shape=image;verticalLabelPosition=bottom;labelBackgroundColor=default;verticalAlign=top;aspect=fixed;imageAspect=0;image=https://www.45drives.com/solutions/proxmox/img/proxmox_Logo.png;fontStyle=1;fontSize=11;fontFamily=Roboto;" parent="kiOYJkHSEYuATrHRKsPs-31" vertex="1">
          <mxGeometry x="283.3" y="90" width="66.6" height="63.43" as="geometry" />
        </mxCell>
        <mxCell id="kiOYJkHSEYuATrHRKsPs-39" value="Tiny (Ubuntu LXC)" style="swimlane;horizontal=0;whiteSpace=wrap;html=1;startSize=23;fontStyle=1;fontSize=11;fontFamily=Roboto;fillColor=#e1d5e7;strokeColor=#9673a6;" parent="kiOYJkHSEYuATrHRKsPs-31" vertex="1">
          <mxGeometry x="410" y="100" width="300" height="240" as="geometry" />
        </mxCell>
        <mxCell id="hcEnWGUbDba2OEeTrmwM-4" value="" style="shape=image;verticalLabelPosition=bottom;labelBackgroundColor=default;verticalAlign=top;aspect=fixed;imageAspect=0;image=data:image/png,iVBORw0KGgoAAAANSUhEUgAAAeAAAABXCAYAAADcbJbsAAAAAXNSR0IArs4c6QAAAARnQU1BAACxjwv8YQUAAAAJcEhZcwAADsMAAA7DAcdvqGQAAP+lSURBVHhe7P0HuF/Hed+Jv7/ebkfvhShsIAlWUaKoQlG9WiWO4yLHdpLdlN1kn+yTzf9J7GyyycZet9hJ7Mh2bMe2bMlWtSxLlMTeKXaAJAASHbcAt//q+bX/9/PO79x7AYK4IIXIfh5rLgbn/M6ZM/PO2985M3MSW2/6RNd6KdkxS/TOl0s81O0V5pDwWhaq6qXF35SJf/FcfJ7uJC7YJuXCfQHXS+cv3yu55LA0JXXBn/P7i3cT3olzawz3O4nQZnw3fiz+HX4mFvBwKVKyS60xfEuPoZFFWGg3Ltv16wE+XXeYOHa8DPAluh0rtlo20KjZZiFjdyFjW9Jmg9aykW7d0s3IEu2upS1lmWRKTybU/641VWOLOvSX1/PnpoTaIcfn7VTbWqnIus2WJUTbbEKNCC5VLTiSuqe6Ve5gepUdbmfseLVsJzpNm0ynrZrOqd2spdppy7YFRzthUboRd8z7AkXivsa4uFj892pRhuf0ULjQS/EP9bRD70mvUXGvqDC09IfSYoXgi5SwpP+/9M7SY9xCoGCcFkufm9Id6iP1Wujh5lXPdONyF0jq58LT53ZVN+JLKefJ86WzYe4m2r3z105B3kLyWv2nznSdU8/62RaPLm01fmqhu0p+rb2oF77XdBaVHM64VV3XabgPpYIchNKhzNLzkAIfLZfOxfvS/sX18b9EYeE8cRY9wHvcPvd7BZUWry0m6vfrPZkNaWl9i8n7e04lZ5fkl1o8L03Pl85+muRF1Z/4ka7Ly6VLXrP+LeWmuC1wwflS/MXJy5xzMZm8lLClVH/SXrcBBtmpTtoa6Y5FqgMoEdCsBCHTCd3sSHg6CSlgKSgM34LxU2qpD02ynm3rmI8yej7pz8WAxPT03zqnzbSUsv/0i73SPSwFRNKW1J3qglmpvyOFTxKolpPMkDM6n8vXdZ/yMjcyAmnlmIlcySfbqqNjlXxVZbr+DHWQvS/KDoEeaauNSAZrudTttvWMKlgmJTtF/Y9QqbxwGJQafYTRU8pJ4Qt8JKyZbgnWpqW7TStAA1XflMVsZYpWT2T0VM7ZudOetsHknG1N1uzqlIyvnt+azNhQSyIWtdzIdUT8uE84HuF8UbjBbSEq6OzCKaV+pruCS+ftJEac7D3w3COaJRMNa6SSNp4q2D4xxdMyLAfEV+V0UYY7awUxSSGSQU+rr+KrjvBQEyFqGUHTbllfJFoKB7QBrS8mtUVXnIqE2kl0oXnK+wXvoFQTCdyNtvg6hpUUH4VJL9uDXx3MuVYERzg69LgTcOe0E5y6nWjn1F6eR88qp4tqv61aQ0ttOR5B+QCLaM7zOvf/VQA8wtuFas7r9na8P7RFefikrWepN6MH4KMLp6y8IvgbmWwhjwCiFMtszO8p0TP0M+AFmLxzgjd0M1xryflaLqWb6oc6hOy3hESnh57mGs5FVkBING2q1PD73gow9GAJ8PTQowTslyqlcDdVL26opF45MFbgj6ZySz0WzVrQBb5OOl2kSbws+IGndKIrLcmBmLSXnP5Lzv2oDPz8DvJN/5LKnENvrgvHKjeTBw7hTzTLyLCnRTfoDY5aQkiLwmo12wLuHs/oGn/UC85i/Olp0ToWGrgOngznnp1HwTn9jq8F7RV0Qu+aJ9FLPB4np6bwEM4pH46xjDkwnoAL2wFMwrgq56lmAif8IgV6mRRolHK+bqPfdKRNqOU4FLuCx7pMC7YM0GIcAcvCee93TKulKdmzMYtJBWRXLja9bgMMwrKCBKXXFHQQAyBdQNSx0FnKBMOFYDdVcawkk4rEuJ6l89xHSYdbC+lcGDwSS6EE6CzMCSaoUNmNEipAT7nBQomSqKWXHYGBqT0lEAxYk/pCBgkwW2A4IOrKyUAYdFc/070jNVCCqmByyiKUy6WOlG2o98KJ2hy2WLE6TGrXBRuDQXSacmbIdaQQMOwqR/SZkZOSkwBaJmtVFe80a1ZoVW2lcLIj17XLJcQbhaOhdmTFDopEQiXHyWVxQTCUFrgsPnJJ4rMgtK+dnLYiFVUEXsBYhN/QMW4lK6MKHetyBGbkLIyl8/Z8tW5HpYRPyjGYT2ZVWcH7m5PSQRmgUHD8Whh5V0KA3aPaIqivmTLUo2fa6gtOIMEk8FAH14OSx6AHKGPB4+iGkt+9a/QlUrnQLHR1KHpZv3vlUHTthAy+zuGfuB4KxDDz05WOfoMhrmOo47Y4BkdB5URzkmPSK+JI2aAsvYzqYiThYlKQnbiNHvxUqWthNAYZxdCE8wAf55QI1/z5cMd/Xygl2zCmsKA6gvMA7kL/krqeUoYvarmqO4VUGWDxYgHO3tEvcfMSpZYcGlJSDhqZwCC0GxuPpmBW4IHzxh+weA7GkhQoQNIzLr9LksosYi1O3hu/Fu7pvFfF2eXAu2pVRr+6a+blQovAAv/m1SRyB3+jI4LjFnStBxK6GZyf8Ez8rH7quEh7cjCEPcrqgmd++zH8Bh+MeDkeBJzjDBp6jZh2jCBtNlWuoV/UTK3gD5oDX4CR3z7yARCXJIU2gBOcxLQJ+MDhC/asrhNkmUQJ8MjR+6QcgwPOelUspO+7AUYoUZ7Skc4M4RqIDz9aKGrBFBtYiI2hJlKhIfd2dIL3QZ/L0hPU40/rt5NNx7jTHBH+eoaIGoSG9hayHuZZf8ZbQKhBOIQPTALiXdF4GeAKXhD327oYInaYLzgTwM2xmSRSCueeAUgJYvKsw63r4GO51PEo4hyBPE9qCk8qLTjJIaJxpd3B0QgZpV6Tnc0pEsQQYRzb8tglYmKelLKckE5kIzZnW8T0O/I526V6V5sMr3JCEbPMmcqLbvKGk021tdAF8ERPgYMUjtx2hbhc8meJIHgmCFOI/Hrnfgd8ZqWM1ZYcARpvptI2lSvYC/WWPVOL7LD6Mq3fLUXIrjxUDN4B55GcCDx+fqNUEJjY675QSkv5Q0ci4RANg194KKk20rqf0XnKKtkeP/R6EfPV4m8iN/hcCsq7w3+0H2AI5XSug6glPpezw7ngVLWenEd1MeYlDA9qCwwH3gKyoJh4jn7S3yhRCxU4HKGlsxPX4P2YW187Bf4N0UdcfzCMAc8cgRNlFbfDb2D0o98P94CTepZLHfWT4V2ME1y7KBOqULxN9Kna9LOufHaFtKNSnuJzcHOpUpMIXpXGjkAwJPRTvAK/JFsBN23xrtpFfwVdof7oPOAkZEbGcLxI3KMecBSfk+mEjzyBx1450tL74RydGzmvoFvREa5P4RGVCYYPg0JwA2/TPjmUoYZAH3idOqS/e740zwN3gEv/eeac55FjndE/P+IcLQl4lHH+o+x8wIfqZxQj4AMnS3Aqo8kIjhIe+ITngp5QXtA1vaxyizzxvaW4z06PHk7oq/73PnCfDD64T3J8KlPMj71zEs8v/Oil77sBFsu48ISHIGggPkd+wxgAGgNPhdwKRPCHPPk9pSjdFFKC4YszQhWf84gOPiwYp5hRYuTAvhx9+EYKFCFZRDhlQzkUDD9RtuEyQtVR2ZC5FpQdApiwmiLg8FwPFn8mENP7pAwhF9/LvXZyA6wo5YJJ9UUJeSRSPEmVV5zryhsWdkdDzC8I1Vs3yRKips7kpyry7XZzUiAZPd+2UjRvG2SE92RrdnmmYeszGVvVVtQYVfWcjK8HIcKVBCzNcGVEGz0ASOrTokHTkX6r8wyJL5cWIj7wBZTgvIc46BTTo2sFR2CqU1ff6t7PhqLeueKgHU8X7Llq014s1200P+hD1fQX+kIf3AciYWohOsY4L8L72qnrggGtUAYIOSMIod4Q9WQFb9rmchhnWsT5gRYMFTP8CBcLV0Sb/lxQUBjLcETpEi3SNdpJuELMCvdAB/8BMynw6KKxg9+Ag3qhbzy8yXP0GaeRVz2RDFMPhX6PU5739tUkR+roOfQXTGGIN+AvNsDAFCskYCPh6IW2+D/AFxzcoGDJtCe0LZs6AhY0gMeAU3QJf/SXyD2tjFsoR9GvL6aFc++vDvoPZ/5SJaI0+DPQNuCR6nEgg54IHcxE8AtlACUuF/ABLUIOPOsYUzloCI54Js5cbwj5bvgpqXq8xt7Rz/26+mlySHSyyGuLZT37H8Y8jAByl/8pG8rztM51DPTVL2DQVdeLfoTXe0/oHmX5FdoJzn8YcUQPwavQrGu1rGSYUnpAaPJ+hj7wNLVRGnrrJj96dXI35vNwDk4DT16KBI6Rq0AP4U4X4ldAtBD6qbMereIU8LJ4jBPPnHVB6X+6AV642Ut0wBU/RNfN2PiiPOhETDT++OHenTLMQcdTQnDIgfCFblnnECcQLmZUjiCQrP/1JO8tGAZl+JDMu9dk7zwQT36i2uRdGg/1Mu2DcEc8v1W3PFiGYhB3jDDGl2FHoIRgGfqjXM32jDK5BxcJgtJPP9JTfiyTQgRMexdK6osMEz0JyikMMYM7x6ArKCLcpIxswso5mSIhKKPIjnfZ7vwo4t3QnLPrM0m7Rc7N5k6lV5fqwZMX7mE4uQ2WkJZ1sNzABdyE1OuotxqfIfyL8Pt1+s9jvUKcQwfgCAYF+oUjyUVLZR1vokFCcCQFY9IalmopC6ZWsmCzyqOiz6j6efd81yYKMorZYNiJ8LGdDQgimBh9YGj5YgwwuAOz0BSOig1izKuhVzg2DJXxLlt1C18YoEynZTkZ04zoAe+megbR+6t+MEzb0hG+bOoafMq9jhwcxSVefei7Y9qzN9trn5EYp4po4k6kYG2KLlyH/igm5Kat3JM09SPUFIz4otGEP/KMQS5NdO2c1JD1QjYxwI5OJV4JoZxJQZmqL2mMPvCpGhEvHiEJfQ9Hqs+1wnMXSl2UNwwg/EKRhHjK8RJ6qXN6Jxz4O1cBoCpj0AXqwjmJ35cydRXh+miNt+IY9v8BcOGKfoplKc1/SoGn45/ucOovI8EqdIU3XXP9oULn6jbqqmZ4rSLaqcf0n9c8TWWObfESDi1VE4FTnucWdC610zgFdIBXmBcSjDI8TkL74VwEuhKUBH4KfOz8rcg5i6MoHs/6qx3xmh4S5VU9z4dRN/QPYYGeDL8d3qTNZuFv+GABFNVPYCJcwVu6CF49yPF7gXfBJ+ADU+Bh7sl4OX+9/kTdSxMt0PfFG66Belc5citIIDwXJDOkQPGz06uv6Jr6fXZCv7zaAC/WHFL81LIGuCOCLE0oYZghVqreEREBpY5yQAuDvmw3L0JKoXabIlpD1+pWUgQ1IEKv0v2VujKg1lYn5iwnkmZSKcsm0z4DNyviQjTacEbVX1PC3VDdZRFnTvfnEhk7I+JOq55Z3atIIc6nsmLogrwSPQPcaiupH11VAhRNhx1FkVMODEJ/iQRqMIh0Q1IIzYgrmNDUbVcwU5ZT33Jiugw9a6E4dE8PggIYi6Gp5ZOeQyqWSUxACjRAMQXF2tBjNfW7Ify00nIeZIgKVSIVOQ+idQLc6Yl8vWrrWjW7sZSyy3Nmm+tzNtis+yQDJjAF5cy7YiLJ4MUiXEKHNdtNS6WEE5R+MzIGHFo6ErVzLSmcJ0KIFfotWpA4woTgLeFGqCXHSAYLYwmSmrC3/tI4COqD6NIUHIWWIk49731QTksh8NoijGAo/lFfa6LnY/WSPVqftZelpCqFosDJqFyYaAI+Y0NIU8sl+o4BiRU9PKsLQrWcgHYk3pMiElOsEq8WVHe/YB5Mpa1fzw6rbF+7Y306FpRT4qlGotpTHkERRcJBtdmyequlY9PqyqcTBRuXQ1FXFFzW81XB20kzKQvDjLCqLv1FeXAuXmsJzw34XY5uNm1NKWjnL8GYkILkRUOK0QwhICcYM/Rb98KELPhF9BIOs01KLqZXKwqzeTlpasoSGE4hsC3Zi0Rr05EmsyJ/ETnrq4nOalMwZdS3jI4llWMkAGZVq14fsnK+BI+gRzi2u5L2hPovnlUgKfbQdRdYuES6A34SjpKtOfF519LimbTgyQi/pnYXdIIzAPwTjpciddUn4GlIbzSBWdeymZz0AMZT7qFoJTRYTZAmJSBJDArzMFriHR37VH5A/RrM5WyFDOHaZNUy6bTlxUe5VMb7AI6AH/1GH9BbVTVUEU3nhNtZ0eGMjnPq86xwNq/r8E41VZKcS2ZUhwc/eibNuZxP9LYbY+Gxjj5SxdgwiazIqt+CDX2YVL945YMOHlQ/i5mUjQjWVbmM4M1Yv671q9cl1ZtTfc1WXXVhvMNE07ran6zXrKr2y9KDFcFZUdvH5GRW5KRW9HzEKgf1NZnMCi+qp7eaoSVL7JGynmFEKC/85gVjmo64bgzzATrdgvjkbN59o4nVGxXZH2bKd9URgScZk14SfG21j05Lij6SHP0mOAlMhaxwFn4tJrj7/By+JAk3SUYxlyQMe1d0Xppow/PrNcAwjc92VkEIHWbhYbwkOGIA3kMkheBsJ+eRWU7MOZBo2hop5g3C6zopinUqP6JO51EoUnz4HlI7rsRR2h0RaUHQ4jZduSek5MQIyYwMZtrKuluTgqgIwXP1yE5KsA8nizYlxplVGzVFTnUJisirepNSHKpTWVCqbt77BQXIDLi6GKSVlBLsRFYUpQbFUFe356WAklaU0Ssp59R2txmGE0kBcTgc4ezCCeSejctXJVXDDGLqx2zhBUdMUtJjU1IAp6UopwX/vGCqFPImvegORT1P7F+33Y26vVflrpLSTuXr6q/6o2d4X9xQHxH6MBNcLQjPkQxzXUqnCOP1HAva7oh+aTEmDkwmI2bV7/lK1RL5QcvlsroWGAyFytT8RqNhjajhvJIW3nMy9igGvGgMBcyXUD0t0aKKMpBhSRFF6L6D4r1VXSrLkT+GyZoS+mpyjT0VVe2JqGKHRfOq6JuQEg9DYigeUnBWlks+YU1lPdrS88DGZLS+ZsNWyIitVZS9Mp+2bTKGeTlsWfFbXrjOqhwKNiu+yKjPuC5AWkOilWiZHiQErwu38NVW/1u6Py8FPil8zYg/xxpNG5Pjd0ZEmxbFZmVOG6mcdYSbRKJiOdWdb0lRywi3RZ8acsWMNviyXZdRrdtq4Xowm5PizEuuAu1KaYxXT4k5NOJrOXJLE7Tq9uCN06Tar6o3DfH0TL1h44J7Ni95wrgKrlxXzmBNjlmm6dH/gJ5ZIXoPC9erVS7TbYiniFRRnmpVDtNZSfhTo9aSPDfJckgmhdkJwTYtXpnDyYIvpDfcuWg1rCA6FATnbglrSe3khbs8sqeyGGd4KnbO6enFzoC/mFSXzkIbVeSMTkc16ZFICtzk4IvDcOwzJd7WiI9FL93LtRvCScuGhYN18oQ25dK2rpC1ATFlUf3p1z2UbEp0Qr/5kinJmfMtwCul9ByRa0PnNV2rIE+5goxv16aiyKZrdasIbwc7/TYt+syp3oYMZzebdR7JddKCQzwqeWJOBUaHeZiRmLYpvrFu5EsMh1XfasnPSvHjZtFyg/R2f6lopaz0IrwNv+ME42hJQohvI9WPk+gjOeoDUa/JUDd1van6Wsq8KDgVdWxWfRsXjUeVT+vpGfF4PSlnCx5SjdluTTiZdQdlpfhkRDw2kk5Jv4qmPR5y/k3lvfU3ks61VW3VV+00LBJ/VyIFaMKR2wvladGhKnx0xF+8SGJ0iWBNmsSNM7wbdNNicqepd/6aSbj5n2qA8b6yil5QeG1ZM2Yns/YTDxxCFhQB5MSlgzK4I8LjGiF7qzq5RYhfo+cLzZolm2WdiXTiQjm1oZOuIKTGBGhOXhlMSgIehlTatR5waFwBHs5BmNSpfqcyaUXAA3a8U7Jj9Xk7JEN6Qhp2VHXOo6xTBcEn4yGGDcungleLOsWLTuYULTdmbaRVEaxd2ypjcXNBfVFJ+XIelacFR7zukFNA9KGW3hKpCycY7GwinC8x7OP+l+r1yEqKpypvsiIFMC5GOjFTtsNS5i/mSz6UjvKSebV1YvB3lnL2VglAv5R1Nd9yA96Vwo+NnCswcAybIagiOAosP6d+ik4JCXVLXm6Ep1ut6l7K+lettnVbtlhxxYhVV49YsSihLalt3YNe1BxJUczNzdnk5JQ1x8etffS4VadmLCeDsypfkJJQm3K0WspVGVK883RaHj3xgKpwo+v8FGAK/kHAVUoR5BkJyv5G256sNuyAiNUoDauAvGzhiIwBZlRm2SSr34b/GnIK1ep6KfYNUgLrVMUGRYMrRfM+CWKxXRFc8FuAy0cO5JDIHApSOA5eZRSB1wUhccTAdaUk498+RCwF25XCbIoHWRo2n8zbsVrLjomWx8X8Yxgi+i5YiP7hpZTKtoXfdq5r9WjG0o05OaxyXFXpjbmUre4fsNWFkpXUVFp9ISJ2J8RxB6WhytlKDJEJUC2mMmpW0bi8I5sQbg/Vq7avXpEjK0MgI5OSMkwK71fIEV1fKNhGtbtWsjkgJV2So8gyG16aoDhdceENnic5XgQUumQuXbTjUcIOzVXs5UbHJuS0JPI56YS6HKGKaNKREcvYrUODUthSxTJIRHrkDmvLVQ/GK+4JIxCXKtXFW0k5Nl05BdNyZscU7R2p1ezlSt1OCcXVYp+1ZcAGhKOScL5GOmebjNgWOSNrZfRKHTlJPqdBeBEuUkRzqtfXAwsB9AG54WKMqXa3rp9NLxe/zkhIX4Z3oz3jp94ebGVtVLQ+XqvYKA6C8DInfuGVG6+fUgp20J0J8VuH2dro13bN8nISVqqxXf39tqNPfCP4V+v5ARkm6NGSw8OqgpQMMUA5f/cc1bDqgSAlyBm5K8MVXjni9CG5yuKVrvgDnhnT/VPKR+Swn5CeOsMyR11fJb12ufhz4/AK0bckHuo6fVl0xOuGsOoD4xfqfCPp3HW6SAJ2qSlnuCqYK5LZaZFiXHx0Rnp8rF6305WKDHFB8heWWMLH5IT0wtJhdRLzJJaFDDz9z42AFbb7MCnCjvFl+KspVRpZSZ7aanVyrQR3R2rWtqQrtjInZMsIZMo1ebcCTvU5kXEnpNQSYlhQTuJ/iNqWh6Z+BFj8FkOgJbrRuyAEKZrEY2mLmdxwg3sZV5OCi7J5G1Vbh2QAjgreE1LgpwTXlAxZJAaUWZPyVEuUlxLy9z6Naducbtp18hz3CrZtYsIk70/VXPC41UYPP2AEXcORexBm+YSSBPYLJ94hgg8MJW3yBLNt2/mi1QX7HJ6mjM+j1ZwdkhKYF3Nt1v2bxMBvzrdttbxMxaOKnojL1VfeDwu+MExLlB+GfJltKJ9W1zuKOEryaJNSyGpfgppeu9Y233ij9W3dZn2bN1t+1SqzAcU/A/16Th2PmUR1eobxMQJi6M70jNnYaSufGrXRZ56zE088ad3TE3K8GvJ221aQoevI440a4qEOa8BRL2zewfCVhF5VIYDhnZlgTlbVRNFm5Fw920zaQ42WvSyBbonJw4zvQJGOL1O7cJIJlJJs2CqBvC2dtO3in+2FnA2JH4h4O3JcmoKzL1VS6dBJSIsgRnJsnBq6DE04wRiEUpyopC4EHcBvSkmh8Kc+MgM7zdRTItPCgAxR2k4oinqlVrZTUqqvZFdYxQqMJrsSbgq+TjY4haskI7sLedslWK/LcE1RqRRbXn3PKncFG4a3KQeCkQP+9DSALCTgROCXJgcHOWASX6po86V+GeCaHYwadlxGp6MIZqjQb2/Pn7FVottgOic6KkKSYuWVAdjhvR4TlLy1c0jgeBJ/0C7K0RWO2mrK+ZrI9dmz9Y49NzNvZ6plG86mbEcpY5eXkrZRxqxf7cCzoQrVodNzN7bwPoUilyQlFcG67pFMuWMu52Raju/LCiienp61g7WGNbMZuyyasB0jK2z3kIyJMF2SkS6Ip1udmuS3oefQTTnphX6H3Yc2lTlfALdHCn+1o/Pwk7sqLxjQF+7g+jMYppw1FRnPyIAfkSE+Ijk40ejajPiqIpxCq4QcvbqkOC0eHlQda0XfDeKjy0p526jjiBphFIUJnv5OFoMNXSRPwIiNCO/ge8D5WfgFnjkyBB6uBf5HT3dVR1NGrQ0vSfd2BOe8yp6SQzdaq9pMq6FgLGVXywEYkA4rqKFkvSGZkEPV4x+Wqvo7YhwJKn0D6dwJUe48q05ZD/3CmQmOLYFFRU3MyMmaFnxPtUr2ipylekNOCX2TY9WSPkO1kJ0qOjJX4uwWzpNU8PUZ4Bs/vnAHbwulj9GJlT++kFeKx6+jz3yTuW3isQiihJR9vlW1FVJemxUB75LnsEVe5JZU1QZb8+4x8bYvkxSRZTwSeFUyGLxraUmg0niMtAHOnRNl2vGY+R0ntZmUcnJmBqmgCfhULiND4+95qUttpRRV8C6rKWURZfoUPeXsiByAfWKQF9XImBixlWJohLF/EVttF9pV29SaVcSbsL3yIDeKMCVl3mc4kgRCyJRW6/qB5w2M4IoZqssm1xTLl6vTpv4YymftK7ih+qbaisRgMFBNiuFkp2hPz0/70OblfUN2raKINa2yJdM1qyvybwnIdJPXAKxZBO/B8HZSGASG+GWeJTgp4ex0aliGd9AGtmyybbfeZOtvusFs8wazoSEfcmLxgE6c+eCKgJHzp8A/UpQY5Jk5s2PHbWrfPjv6yMM28cwzUlYyM1LeGCO5cgGfGCmxxaLxVcTDe2r1u52RUKiqdnZA0VLenlfBe2fLdlKKkUX7WTlREivfTIQhOKLILoIGfRBoWYWsIm/eOa3szNkmKcftimS2JtO2UoqqJIvHRhM4JwQUTGTipTgcRy9DT0OP3SPmPjwBr0ZEf8AcjC9/vIPtnfn/vD9DrvKquCjYc8An2rQkJzUZtRnBPitD/HBVvCmHZEpVTkkhVnJyUORcbhBse2QYru0r2uaccDN/0l+FZMV8KRmKBO9FVb9PwHEDDDyBL8nwKLhwxSJGYt4DXYjxw3tnZsIzOYqIuFHqs2Plip2YmlVf07Z6xSq7LDVuOWiGDhDs+G8pyRgJWSCTYoMZJ//Ff7rfK+L7A6Cg5vMlO6n2TsppPzExbiNyMC4bVoStyov1iuBjyVhQnS53Dq/6yQWu9foHv12qxCzopCqWWyhcCZfqZ0N8Ni9dcqRctaPz8/7ees9wSg5Dzgbl2GclfwkZ5jzv60X7SPA3hFegyvrwq+AGRv2LlS4p1m8Rw6Bwm2SGvuCQpkVHZBaqxXoj24CTE/4eti54qtmSjcsAHy3LiZuv2mnxQVnPNeS0Dcsh2yq9eEVfwbblUrZSdfQpKs/K4DFa0lDc0ZCeA7PuqgkYUTX8EWC5ZKp1EAx0OpB5gtcrDpF+OIQ6tvKCG55wflSmAO9WZcjqerCKvhF8JZfPEFzwLhxUeD3UoXLo9rTaRwO+kdQ5Rw9TbyQo4VS3XVSrtmP7EufjmRE71Ezb8ZlpO1mTUVbBRobRReknaKZnfDTLdSA6BRsg2fYKpX+kFLiPwac+X1lyTjrXAId5D/q3be8P+R3+Y7kHMz9d+VOh/pg9R9TLUhfe6aIyeb/QELN2unUbUBc3Kqq4UuxxTbJl22WQB2WMWUMXz/70YTEdHUAaU4L0JL/O0X8p6Tc/uB4nhjzy0iwg1A0w93SkYDwJxxlEAgtDsSMP3pQPTwoZvDccU1S+X2Xx7l/p9svo5HVdyFLZDc1pu0OK/k1peY3NSNFwU55cyd+fkmK4z+5D6BPeWpjQdGlSeKeFw0O/A+OL/L22UZwoISYyNRVw1j0XeZdTLElhnB2CFKK8ZVoZCVxLDgnvWXRfXl5R3nIykfF3Tk0Z2PkrbrVr3/9BW3/r9WbDRYUfWTkfakyJMQIULp0WG1xUgj48gnvGVKN0RbH11IxFjz1hz37xSzb94ks2Iqcnp841ZV0bUhhMJEOpQ2vezbuiV4cbMkYNwe5DzHKaasl+u3emZveq7KgMck60RWlV0vOWb2Yt11IUKQXflBPSTvMOfN5Wtyq2VQ7K1bmabU7UbEWqYP3ip4SiSBJKHZjpMWxFBOr4F1+F0Q8EFlkIioIMr9GeboekhxfOlaAVCeXKUKLX5fTUs1LUqOiw/jw8NytlxczvA4oKn2907KicxpXq395M3m6RcdoqeUtF04rAejOS9dDCyIyOwEdd5DBzNuMeO79RuBhcRmoKMvDAwft/PQFnBUB7iSFSXikQARC15rJZj8jc+XDpp27U8yK+uOpK6py6zpeoxaMvPYyzAE4rVfGC+LCk6InXPF05Ns1UVv1jwiB9DPAjGzxDou/IfjBUlyYBV6DGYgIfKPa2ZMujIhz9fCF0Xin02jHhfzHhva4EQ/QBfvDUeyS0QFEd0Lk4aNAE3RvziOsZ+KRXjmVy4TFoH3RyS05sJVO0k9JTB+fn7Gi1YuV01nb298n4Zm2ddER/u2Y5yT11ukMjXcUugIw2AapzgI7xMDNyB97RPVXpee7htEGHYGh0Qc/Ey03Rx1GGZYTAGPpKJlE05knkhbbj644ARwIE9Qted3AzehV8jwm8hrXMqk9NIHM+UuU47FFNl9JN0VV8fVq42y/ef7ZSt6O6PkvQKD0pTnQHoqHonV0Hk7J5jCTWfZ6MdFALI4x+CHaH38slHHnwt2CASQG5Aenhd2B0iI3QkdkxpJGNrE9RxcrqvO2WotuTT9tlwvqKpiJHee1MVic69a726gqIVl389S7yPxtssO0j57RH4tiTs3Cu8vmFd5mBoHFemtgJisiJqfgslfIX65LYJMPSORldGR4mmjxZNzugOk/JUcinE3Ztpmu3FxO2pVO2Yq1qiYaiJobkcoswBWjjBmHE3plHBssPf15sSuA1izn83P/vCSNnfkRxSxEpkve7Ugi4dihLJk8tTfkmG3MkrZxD4NpWkKCOdNUphbRn9Fx75ybbdMdbbOsdHzPbuNlM3jKbDrTlzaNwaYFlBG5Nlc7j2L0qOez8k4AyKxi4meCRjGrSoA2PiA/fe6+d+s7d1jk5ZslqzfplTDuKAtlSz0dhRFjWYkPLCsNBYmx4ir40EwU5UFm7W8bzORmTedGpIyXW6las2GF2O+/dmDDSVHcatkZGeHeiZVeVCrY+3xJOqpYRfZmMhjvJ8DAG1YVBsKI8fBRC/OGKR4LlG7fQJ/CvQjFfIxekmBcCvRYT1ylHdkRwzf9fStNwq61oOMoWbDKRt4OVpqKaivXJ/dnTP2Q7RJdiY9a6ciZ4dUMd1I0suQHQBRyzXhM6Er0nXWmSmPOAoUO5s1aXZ33rPVd29GYxEaH5cDHev2jp7wldWQXIQ2dCm8hfrIThFWa7LpfCOs9ggIGJOni/zvOuwImi2h2fPAmcHrHrSLnYYHMdvXSpDTD9OjctRK29I7kmOaMk+OQIfOi3GCchS//RoSXJi5F1n+e42x8t6jZwEveRc8pRnhTOQ7DB5hKsZGBYrJvt8z3Umag5LUdpqtWwdXI210qnsQteQvyOw4dTiQPLNqUYCebvkMCl7izglL7E/aphX3TCeewQAwe8Bpxk5L2kNimzNAE3ZQMu+IETKonrtUGOjXlcxn+KJ8PTlyLBQ+iy8CvABBZD/b3LChl1JSnbIaevosKn1L8n5+ftpXrTxuXkdDMD4k2cbYWUjJhhgIWkBqNA0kXsW8+cEd8HX7hljtRy6bwGOC8rz6Qe1tXyLgBFyN6sIAolhdfM3sPFVtnWy9jemE3aNbq2qVWzoZY8AwkrS0g68mbDRABpSCW8H++uY6J37r/1i40FekJ0NnF6pXSEOPM54OCejn491KFLC0eWp2TU+XomkleG99myoiuilLXF5GxywYSAU4pun5fC3zc/pfbNbu0btKuEvD4pcSYLZcRZpW7BpuVoOBwLbSFkOld/gMLhwbiIhJcqMTjjKpbKdcYf+PHWXREGfBC54pGTfGIHJXV/aUJBkRia5EmWuCSleRuKqvquudq2/60PWfH2G8z6VsjGitGEjOAKhZZhI6FFDfqli1pf7gaY8qoLXgrihH/JTEtVJrxbed6qjz1tB7/+LTv+0GO2uimekuGvd8P+v+Aa44uSqWSwFIrnpJTDu/akD7892ezYg4oWX0jkrJzJGnthd8XVPJ5pMhGtYVuzCds7lLOdikRWKRLoiraAx6A8Xj59ZOgWQQCn9BzeY/IJNI8VkvOj94NyOAnhPHBdSPEZ5eIE2+AEkrkfqOec4+QNfMVRxpfXBwx7KaIpy+ueUz+Ycb8qm5EhFhYFf0LWiM2EeIq64McwIhIgCfWGc6rGyaAddDXK0uFxHIZokqF31uAvTSwpDJOmAFD16Xek+qlnYaRJLWBgYiVMpvIsDS2Tlu5CBygoIpLjw+/JuEixRWqLazH+SXH1ARauBzguVcL5Ozf5EkvBCwgMI3LssBxIbSNfMT64HgwbkRAwYiRfXV+c4juUoY6wdaR0r+iCDPIHrXz3Kt3ntRLGAwfGRyn1XF580pIRbklSO9mcbEHGqgoq0gqCspIlXrIR8SGDIRLMqhNMXmQsg6ukGH+h/gX+1jHojYB/YAHn4N57DP2UkXfWD3OZa0uPOvTKk5ApjHDAGbxE8vZ0gd0SqQ8Zx+5cikQfnDeVoIf/6Rha5lc41nO8PmCYP7Kc7ndyWTspDD0zH9nT8y07Iae/LCNcaLV8fTdBF84V9PKJk2Jin1+TCjv0Meq4XIoNcGp43RU/Fy7B/AxLgFxERArZh7IEkBrrookl/UPyqG5oKOczdn0+aZu7zF6cF52rPeIhwERSEDSo85BVk58Ez9A9RKgqTyw8FwgB0pyJRe14k3GOXpfuBQ8aFAY0OrGV6VB4ZyQmVtjG7jLugeoZ2mQdI2OprN1DoQ1muzYgaq/S7x3plI2IcVOd2JMjIlO/ZXBgOrxwZz7aVH3AAq7IXENwHWeXINN34I6PjpMeE/XMvv+5Aub9uiIVv61z7qv4QmYoHqYg6mHdbVsOyGQ+b+vefYdd8ff/rmVuut5auZJ79EKMtXGg5EVTZ6CZcEvl2PceDMulQGNHlifeT/K+x3UBQsgez7k+y2zYbGs3b3UFN3n6tHUiOWJqO/QsJKernsdYgn9hSFmGXALP0rC6FPWEnmFtuEywRXinCUW9Cv2uUqB/SzFtV8lbXdGcs5QMHAqeqFdQOKBef68dugfOaAf4exgOsOi/BagELxf4P8NwlCszeBNegN/Ea6IbPMLRfzvPwCe0Ra1xfaEeH/pjFqqudhlBUr1F51HBI+eWxR5d3uurjsV9dgM80Ie6qRU+ZWMS8ESffEjTW4IeoVXWxMflY/5dmnw+hS6plNOOpYVNKW+ao2zcR3+2p0zJ+GahvgvnkLyy+MwNGzzNjOfA21x0zHhGLti5DYiDEg8ZZYoSPFeG3mgm9cBaSODj3BS0jJL+C3Rd1FkY4ZjewfHp6TDuK3M9pgU99ddJ0oNsBERUteCQKDvPU1znIr/TV5D6b3JT/J5Iixu42Y2sI92cE22yPsGSSVGK1GQweL0T8BaMRagTGkK/IFvAEsMGjwAfiXsYy8XMc0yQY+QPnYOhRm/1hqWVgyMT9BSY8iFt6KU/ErzpBkjthGWs6LqQw3subM8iXd5oxvhiB0J/QgpQhb9wVTA7/8lwym4mZI/S0kV9ih1XSE/lMwWbk0M/q2AS3UHJMPwe4GReBNWDT2Tea+yNjF0ogQPyggEGGAcWoeshAWMaQfUMGwAIqE7NtkYVu1OMcrm8hrUyWExg4isyzmAZOq7n1SE3sKoVZZ6TgfPhorY6JwInxBQdMUxK7VF9Ws+wVg6B5xkUla9ncwYWKPqdU3Tu9ron9FyjBWd+zxJw6uZ5vEUVRilKupX1AO9ynFEEU7MSNgURvEPy8vrFUDkpveCVCbnqe0PwdDIoIQGA0dchmWHRhWCXIU/oeRQlUISX9QGh32vOiBkhMzOvME5JGRm6AACoUxcbndNPcMYmBd4/cAPuA2o8o7TxzPK8E60nrDYyYts+9gHb8vEPWerqy+V1sjlA2rLiPGjAWmuiD/CL4JGASbbTabI8W1EO5uQ5+tFTIHj5+kMJiAAqJNxyfdVKW7F+neULOTt14riCvJrlVY4oiaFPInKW5BAFqFo9pk4K73yEIqu6uorkZ4WcSQlIpEg43ara+lRkewpm1xXNdjAfoTEnJqq5s5dKZYWjMCRFnxzn4K4NZtV/hIqh+XDX22Q41j9NB7z6CworTBBLsNxEt8ALg6gcGT6Fj+iD2EcCqvLcU90dhlcpw0Oc+THA4fv79ipLim9T4jEBLrKiQERt0UXd1jPuPqhGkgOhUlKyOhLxpFWIaqgrVprIjDDqspKSDPB6P82ESPpOZUuSrjh8GEMqAj8YYGCE58AcbdF+VjChgNISUt8QApqryKtzgMHxA+8qgmy2JG96nrZcSXPdeRxI4R1dk8xGckgkFOJleKZHFzJ9EkzoB46vNzPrF8OE08mR0STqjGFioo7THpjjrN8p0QJZU+FQD1kwoIN8kwzdgzdzwhkT5JxPevWByzBKBV1EavpLPb0+gR94holKPllJtEpKRzGW6JFhDxpvF34RIVu8MpL+9eAC3lGJtvQShheviBm9zm/0l7r1X0eGGx5ng52MdDN6k9dX0IpJeU4z0RPdwDn6nJmQXWWedx5wJJDFH8i3cMOMbgcR2KGgAI1zgDvAjgpw54TCwKaE/GSxOyoQAho/fV1ZQHjzYYKTGlA94J3hc2QbkeKTq/CZQ68ibL7iMir8yGURLpm5pGvNrhUSGStm5QULx7XqtFVFVybhsXlNS88lkoJaFTku9FzAB4BAyQunGObFCFg/amxFJCTwuUG8JSx9lGxaNtWwvvqMbRUr3FjM2HXdmg2KyHk8MCcl3ltQIDTPYAdSzvs1orSUhL0byeCqkz5rGabDewJHXSZ5pEREKSFqS2V8kXknl7N2LmutbMbaaaFE2GKRfBPk8fJbjAWhggDDsCgtNS4vht231LAjNgzhqITOOzoCo8yRrjd9WDMLQwl59APYRQr1RfCw9aFI4spD9WfFqOwW1YZHxJVEFkQYKAqeAeWXIvMd3a4El3qZ3+s1qw+0hEPka3sFKNvFqSs9gRbcPdyflV1weKWQs9rQsG187x22/ZMfMdu53eqpvAtOLuYZ51xlfvfOqd/r6R1B73IJ48ubRS8v3Lq8eu5V0quIWcAsm0gM9ln/5g1SWEkbfeWwpRty9gQ362nx7rNN1sWKAtQrvBNVZgQQr7CSmZxMbMempMwnVWCD6HqdDO31ebMtibrlW3MqLyMm5d1W5M3aXUBBjaM4STlF0oLCHcW0eEpAez9Bq9jD+9KWwWioTTZgYL0ui/dbbIRQyjh/tngdgPDrflK5w+Q98StrQcVmolVGfKZ7KCrJlSTA0UCf8PrpF+YzrPsMfQRxYVSIsiiPlJQznwGFEwSmAIQrUCKJfMaYVNPEsZXcdYRb395GMJNR1t0sw5TMaNfzapjNG1z5O4HOTcinrivTin90QuVQWyHSD0qMZSdt6Yq2+tfFSEMf2o2z8B1K81t8y289xy5SPslL/Qf3i23xp6TrLLFC6aMQ0cuYDHewe9kZS5nnY9l5PRkjkYXeIjLrc33dN/dQrDQteDAqwLWQgJHfug/tnALg2GFIW04ObZLPVysnm+ielPgrL7wIP3L+LJsTrcSc4lt2i2L3NHiL948wJHyekwJj8qdQSe0BI95WwI3TU/hENxP9hxEyYA8OBMt40IvOB9Svp9o9Z0s/vSwT3tjXIIqavryurT4zX4NVFnyApiv4UvmCb3QUwdvoWvEOQ7Pwucs4o2WOG/ESkzolVHxdDeeDb4AHw6SCyoEH6SL8Gs4dbyoD3ljDnJInlRLO+At88fqzv8IQSI47webOsvCJ3OQUhOSlA9wR1j2MNMPOkSScZxlEAFY9LRoLFmQdHhEeB7IK1Jo1G5Utq+kZhuahWwvHXf1AJjz61b3QZ2q8cHL+UV6cBa2H53NNRZoCtslEoIyPyzeTZRtsTdvudt1uLubsWkW+q2pTbvDx0ogYYA2GqqjQFYMyHgLCR4TLsgkEBUaAcWoyvnXYKCfkDK3TsWCFvpIVB/otUyq4QkmK2Hi9zJJlB53WTNnqjZpV5matOjtrnWrF0rW6ZWuRFWWwSlJwHRnfGrOG1A6w+UQeIZPIC4KzkxbtJ60GCwtqGVsxFNEHzE6EDQHYgYlZwHkpiVREdIynmLZZtc+2jhCAsnwPlncxgXDfe3JCSEBbvBNFWDHEughtwjBWMELAWmCNxDJJMaEUV9Imh/ps9R1vsz0/8imz7ZfJmPA2FoUuXUCfHXxvfeGwcFzSNaFh2YSDQ6AWVC4RgBrwuqABDoQEUL/kZ7BSQbc6VhA0Njpuh37vj+zIX37DMmdOWymFgyZlEYU1uZHoykQyInq+Y5trZ6yWL9pRWbhHpUQeaSXsRim5twjG7Sk5V1axSpJtOKXwOzkZcikJBE+MGxtfj0JAo66jdcFvg6E1PsSD4kHpFIuWEl8m+5WLJcv1D4hX+ywtHpWFdweTbyozo7orXpwdO22tck380bV6uWJt8W2fjF1OTh1OIt8yxqMOrxnC8CPHZFuKGsr65JgwxOeRgnDGDNh8U/QSP88UIn+3698iFth1OSnNwbxFcowjyUpWzgGT1bq9vaCRP7GP983fL4qnhyTbhbnIosaMbtLeaydgijAeTktGfYAfRSoZSchcDK6SEyQjjLydU5dHfvRZCWPGeaZVtW51Tk9IzuSUs00jEwnRHW5ze3lE9G1IDqJcyqrCVwQfSa49oiRTv47Ma3gjieU0bPjDjG9oD3y5PNGi+gY86DFdO3ftsZp02sHPAO3uGgpb+ofcJpLguhy0RH/J0n1F9SFp+dXDVlo1YsmCcIkRk/Gr12pWm5mTLqtbt1Kz9uy82Zx4pjxvBTlRIq3gCHJeYRs/1RuG3oORJeqGl1jXy3CwL93ryLGWjvBXWNzXdZxZghOPmtWDQpSRbstaA10sPu4MlCw12G/dQt6yff02IGe9X3xu/QWrNSOrV+atPj9v7VrVqpNnrDtfto5+m/Svf4Gp1vbRM3YrQ88jT9DQeU4ZPmZE1D+AAm7oA3gTn0pDy+AyR0eOkJ5vRPO6F/r8ehMOdNDkqlpwtdQWr90K4jFGfKRYvW5Gw3hdgNOKAWbZGcsDGSon4di0pZzYyY4Rwbzud8sN+xOB9bT6PCZ4G7l+yU9XeooAwd101y8YfZzp5RJOCCK8ZBmSFHxaER/RL5sFMGNOlWY7s7a5OWV3DGSl4LrWPz8rAyngYNKOyjNUoUb9C5mqiYod+SBRR0euThnG4rMAieFBy65ZZcWN62xww1obvOZ6y0LwkSFLiwHglK4MXFcMyDGOonNVMaAUTKtWtrnxUauNjdnMS4esdfiENY+essSUGEJeCgqMfaUZusRJ6Lr3R/8CXOA4bEgRmISEkuK6GzgxNoAj6AOUrbHJSFpOQ8L6t2+xaMWQzfO+TvWj6HjWjcwlSMBYl+PRqTZshRRp5dSYNWSM0i3FLYKZae7MCKZDfJN5uZRrF6yeKVrpHTfZjp/525bdvdvqoqsvKSOsUBVEkFl3QEL7cQJnfmHJRR5ZLgX3wEkvgQuMKczrTwwnPJLdMVMhUI0jJndLCkH0PXrSnv3MZ+zkfXfbikZFTkbDEs1B9Z33RGGCA/VDOImUjKRZtduwo2pnnyrbJYOwS1w90KyLjpHVxMasm0zJM8s14VBeHygDnBLOB+sWk+K5lrRdXf1zZVnYYAOr1lo/PLptk/JWS2xYJ4TmlMWjco5cO2Kp6SyOqOTAK0YBT83a/MQZO3zokM2/dNi6x0atPD5hGRnkfskNa2qTXTawYSc56NqVgmCWJRGixzduwLEtYQJU0grSZOxfPlNoCVcJp39LCJiTE7vhtpttzS17rVHISeFJxnBQBAvgxAaL4T6GLIkSBqptO37fkzb+1IOqsxyQ8RoJfDeJHMTjDG8zLkS9FSmo0s7ddvm73mMNyW9VbbKH8FlJNIln5rO1qW9Z+vRjdvTub/reyE0ZHbaadIMHfHocpUTO2aCt2bZNjkXaZni/qQie2rF9uq3SJPEBQ1JvIDE0mZaeiJdb4eQnjh+2ZLXs22b6qyc19CoDrGvQjIlCLD9kREMaUDjK2Lz6GxULtmrLFuu7bJvlrtxt267YZYmRfmuywiCrsoz6qD0CBEa7snXhpyben5uz8tFjVj6irGP11CnJ/6glylU3cvWMtKdAYaUHI5TwSjBsOGthMh20TorXMXroYejONYwi+0FHqiASryU6BbHykGXWrrTCjq228torbXj3TrPBQbNiX+Bx9Ue1hEpwApBPGTCrVs3Ey9MHD9nEK0esenrC2qNHrDEtR2KuagURj/3DMcKoKLbAdcdPvC4sCz50pi5IDzEqUJV9WC+9VBYtcACSCnIY3XsjCT6Clm7LeC0l3V9RAFWfmrFkhd3LwuurJCO30hmMBggM10c44j4hTvXwkZ+WAk2cPplE61cHSvWOPT3YZ/fKAeFzqTOFAdk0Qhwld4II4LAbIfBcLr3KAAsjUsqYTRlXeQ3EL0x2Wd2u2C3ZyG7PtmxXbdrybN1VHFYMGSmSEuGFy6xqyEiRYZB8mBSlgTcswCLhsp0pWGrVGsts2mwDV11uq264TsK73VKrV4pC0pJSkjHMHRnbBEZYdSDoMLyAEYv3gNYfZiPdqinqkPd69LjNPveCjT6330zKLnd01KryLJsYXh+mlmALkeEFOagBTobsWGNKlNyxAXkyrlRY36xrvL/ra4qMrHUWz6VyJTsjGN726R+z9DvfaiZFx/pUBC8McQclcylSkncOUkxWqduJL33V9n/r29bXqArHzOqWuRRMRPOsP1s+9dvwzqtt5z/4UbO3XGtNGQ4GuWAUR2O7aVVxGOuCHdE9pojZX6fOkMigyyEXlkn+vkdlAz2FPN5POe65jOLAAPNeNxRyb1NnMHKqLno+97Q9/dufsdqTT8gI163WHlG7CIv67XVIaYp+CdEvmeALSuJESc+k+A4PnN3WEBoEyt+xqQeYNDfcgsXr4pT2BBbDj/Q5klOVX7/SVu2Uk7X3Nlt/1R7Lbt4UjC5MnhZdRG9eZaAfAD/ha7SoC+ToRBd9H23KM2yL8ZmdtvbLB+3IE0/b5LP7LTp0xNLTMwqewz7K3i8hl08lMjqD8ojX4rNUqCZDTx8wvrK9UsQy4NKwfLu4IbpNFvN23Y99ylb82A+blQRrAEjwqG2IRwI2J6QykcBM0w789uft+Bf/0IbrioIvkGIDzGcVcZLYHIZJN9OKnEZuu82u/kf/q9mmjeqHaCLDcFaCT8GB+sMro66ih/bXvmRP/eovOu5b+l3M5FxZupz2+A/FXd1wtb37H/9jszXDqkcdlwHzRF9I9AUDH1TgG0phVrNwLSdgemrSDv27f2e5Y8dkjCNfGkUUfD4DzBIeZMi3oO1Klwg/jX5FkJvX2dD1V9vud9xm2SuvEd+UlFVEmXUS6oUnIPYPj8hpgf+54L0QTyjcFDNKDg4etKkDB23ylcN28sABSx56zkq6zAxb9BdyhA5jByk3AKqdCYEkomMIzoQrZqbzSqcdCcc5wdxftKnVq6x0w1675u23+esoW7lCAClyNvQ+cAls1DfVkEQPl33Jcbst3QsvyTb4skIFRK17/8ImDx2z8X2HrHJYwdBM1aNGEsYXerIqJqnsUbp4F7e7JtpXFH2/9//8Z2Zb5eAOFK0rXfwG7a+PajBvALoxstFmnwQ5CHMnT1l39LTNHThkjRMnrMCOfWWW9dXEltIPMrjqshK9hyMEsORX2BJqFWh5VhDWl7HHynP28HzNXpa81lIEjNipYHLBN/1DvS6XFgzwpr0fjVnaMZ9qFsVgQlCyZoP1MXu3jNLtmYxvh5eRt5zHpZIyYK2kSktZyNhKMLOKHHwafq1j/YmCE29egM33lWxExN76tttt8IYbzOQtW6ng3jjDo+GNmAAJffcMT7ohUAYduqvOxde4gkqFhOp4SzcaUvISZjtxyo795Tft2AOPWOLkqGWiqhUFVyuqCZ8pq8uaMqyYcwYO9eG5+KtvnRNh+TXdpT2+rZuUIc5lSzYmgrz7Z/+l2Z1vlxRg/IBatai8tI/+WyZRxrl4mYTAg2MZn5d/479JSX7JihVF944g3RNMCSlXluiUFRUEIdMt3e9ke8YhwrBlbG7NJrvh7/y4rX7/u+TZCg8MN8njJN51iN0xAQeigXO9fuuGT8ITIljOJnWg3y0b4Am4RucmIZREe3k3TjJ8Jm+WWfP4uRBfFBFcbFmoEwxLTynwXhRFiyJHuXtUpjIYTFWufs9Y7ZEH7f5f+TVbc+qMzx2Q6nBnCqFoNnWu9hxuOFDw4FwRvSI44IUvsOAIhDkMKqdzV3g5CWabvcg7VhANeU86Kq++uGuXbX7zrbb55psttVORQL8iAaZEwog+UoKToNodTwFedVKwc1S7/lvpVeQVHxE5kKUEo/HTdurBx238voettu95K5UnrZCoWaOl6KEr5ZMr+pd48uof0URWEQGvPMAXn1zk28cMWbMBPyLPENu86Hz1T/6YrfqZn5BjWNI1OQDAIZigNfqZCJtBv45kxc15VLFDv/AbdkrGsE/nF04Yuaz6zTtYlDz8l7R6tmCFd7zV9vxjDPAWtUXU48XhioXUVjQZJvZJbmX861/9gj3xiz9veXnmOO0CTA4ydfOoyogP2SVvbv1uu/NXft5s21bVCx1UK5noiYd4AJ51vlouqR2IRFFgJPOfqvHnhdf26Wl7Woag/cLz0kmisejFEHo8PM4jC4q1w8c65HDIAZoSL9VkwLa//9227V3vtMyWbWZ9A6pbBlKE8CZ4RBkWpx6u+QYjysQfXBdrulPiJZAx4OU1E1t1KhIee+x+m33gUUvsP2SDkYxggQ8eIIPSoSqL/PJOuSZnoE+wZyQ1PhdGOO9Li7dkQE4U0jbyjjfZzvd/0Pp2X2E2IjgVkSMH1AO0jmaAjPuqtHCqE5+8Bl5cDxPMCNb6nJS92pKRm375FXv5oQdt7InHbETRe1FlkZ16VLasKwMxtPiHD8I0GBVdt87e+au/JDpvDA2gS5Y2/loJHLkgqqzzwNKsxC3xnsuen4vGJ0atcvy4nXzscRt99GHLToxbsV71wBN/AX3h+h/5E08gNdTtzrvqSKSaNi2H62mh/VtnZm2iMKT+513XhNcSskvCD0HocgmQ4KvUwLrLe8uQQC7g59V4x4qdsu1IzttbUw3bLibMKFpiqzUIZiKs77bDy3aQiYKV4sD7T0kwG+rFuBgif+Uu2/upj9umj37Q8tdfZ7ZihQK3goBl2CZmzqDQyOF3SAvnQgDnDMkhei5+fg0zKVERDIm0PP+8vM0Vwza4c6utWrvW3xfPlGekdBpWkMeelpftw12qDCH3IQMYV7U4MynTHrYPBgQ5vB/2d8lScmURZfsd77DE7h3WkufD0BNAhxl3nKviZTLvyYNSv0BWOfYBTqnuscces/r+/ZaLFDk4I4DzhP6X3y8Y2YkFOPz7xYLdl+GAmYS82WKfDdzyJtvynvdYeg0fgFTVMioIOxl2CRPYECYdhQuuCgIdVFtdZ9KpKJ0C9+syumOnbeapp2z83nvtzN332Jl77rPohZcsMTVlWUViiXzWmD0LbzC0jaecwnqoT2HmtnIPt8DLf94fXYO18CZNTkSmlLf25IxNvnTY+glncYygE0UYHaEH/gBXgDj0A0HIwI/iP/58CBd5Vjm+ecrHIIicGXHB7FQH+m3zO95ul3/kI7b6Xe+25Pbd8sJlfNPqeA/mheUv/AnWnjjqPkBzrqwLnv3e0sw1dKBgYZP/oSEbkUHZsGO7pXJpm54cs/r8tBWyAhRgBRcTQ5KiUyaVUw0BP6GecGTSDTQO369u++jOGslW/qa9cghEA5SAIxkZix2R4DiwKY33K1m36j0PWvnQS3LghN8LJj2H0VOdbGOKnEC7BO88t2+1NW+6RQ7LMKV0FZwE3iIBLwbMl7VJodGD6KX9duLhh2V8oRXKWU47eFRhtRIcM/LAsG354LutvXKlrkrGVYARAd6zoj/oE9vacp0+XTCTdEBWvTyQ6ciqCMev4EhUIhv99jesdXrchzFxhL0scqEDckBWUTlVwqwiximM2xW77IqPfdA2f/C9ct52KLiQURNcOG1sH0vrOPPoFG+6l2Jx9+hQv2FLygIPY11hoqmMfKlkhVVrbcWuy2zrmvWWPH3Gpo++IrrX/KtHyG0wmOIGwd1J4hoIn+hoZUg3L91cHRq0De+70y775EeseOXVchKGfN0wL9joIC8cz4LTM3TpyRl44B5/4Et/UJTZ+QlGPwqSm5VrrLBts63fscVK4s/6sePWnJn1jqYzvJ+Gf9BhEnOdU2ckedv6wfdbS3RGs/FFMeTuLPqdJy/Q3cvDnyEHPoSTKKcywM2QOpPfRlZYfsNGW7XjMluzdp015cicnjyjPiug8bLiRwI6PQsdgJNgj9d/DPUnkmx3K5jVzricI0ZFU91gC3zimxvhYID92QtkAeoJaENSZRkcKiE81arahqhpN6ZLtkXGjSCHdyZMeMg1GaIWubwWJpAIOHUgWW/aQDtrTXHU1NCArfvY++zqf/ATVvzY+81EkHo2LOhHxUNkiM0wJMfY6AHDQupd8/tYDO7pHH7w4UWO/I6fARxcf95rvPM2u/If/KSt+8B7bHxw0GbTUuiJrCWithwLDG945PuaBFosxK+VHaWhqPe399OPC+e6DvgIbuytoordPIkpGBKvyevLb1pv1ypCyW3ZEKgs3PMcibpiNnUccpH/nTv8hxhWMEk358VwTHaz516w5//bZ+zJ//Kb9vLv/7FNfeHrNveVu+zYH/ypPfdbv2v7//vvWvvRR2TV5OnKoyRG84QyU520EUxoL4mQMPZCgxz8VCUlKLvueJd1Vq+xKrZWDO7r7VB8vbqCEgiJyRO8E3VHxBUmbfNehndjTFDhXbQiMQlOKlO0WSm2uvBy5Y/9sO366R+30tveYrZGij6H4VW/BTLRrTtroQmloHCYFIVj5rOepSoVky4caXPRVehlCabv9CRvHHhbfQVLXn2Zbf6JT9gNf+8nrHTNtVZJ9cngZkG55VWe77DWEor8RWDevRK9Q6eL8az/JiWXfUi9XO4lp4gzT8gxlfycaxeZMBSnmSC2YY3tkvFd9akfMtu0ybrMkNddsaoLGKbNdY1yaBIOAiAMUUs+EjwRRiXgGv8SmHJG1hgjSoDAc0lVkh4sqI01VpdRTcnR5ZOgDIMjB8COE8NIEPust1V3pHNq5iVNWfp4zYfusB2f/mHLX67IN1ekUksoeocv0cNE40txhT4K+NUJDWCg9M9li8I6MgrpkTcPICsdOelJycHaIUvIwWzJwDE5K2pGPspxaRPaS/KqI0Y3TOwCQBII7yE9rXIYU65CECbBrV9rxXfJ8f6pH7cV73qbTQ8P+Ocxff98F3y6zMM4N0tsFC2o3IAc9M0DA/5FLPQKdMMhBlWvN50l0UzXRpkMJRp2hTT7jTK0K+XloVzoAkou2WDgj47jVcMgUnIq25crWTtKWCVbtO0flPH9sR+xwi03+1d0GkzFz/SpBvysgBv98MTnonin4tt4qRMEAmSUXyjQy0tw6xlmWcIwzoQMi/M+uV/R8NVX2u4f+1G75kd+1MryICeBFy9IjgWztL/fiT5jLC+UHS+UDYfAQ2TOl2SYAwPgjKHs78+EDN6BYoCbMjBrb7zWsnsuF1H1BB6cnBOiJZAHamFfDLjjMk6cu+SJ2rrnEWyzbY3Hn7aHf+O3rfaX37Lcvv02PHnahqJ5K7XKlqtMmR152ca+9pd26Ld+3+ybd5uVK8ZnxsL7M+o7i828T2GdOMYrGKY4tXwMSPy1/TLbeNttilQz1ogQgqQMlES+ofjA8RKUD3zJb4aeY4cMrzWs027JeKFggqLjTdlpJtVt2WY3/dSnbdUnPqp2tlmjmFOkDO+ofdVB5IJScehVH7ShbjI4I3OdEu4hK/Pn0Zx+kfFlyQr0/AGiQN4ioxQZNo5WDFtewr/3Z37GBm9+i+RGTkG9Jiei40YYice5ZXlMvONSeLf3g/S6E7Tq0dHpFv/WwTEa3+N8mRScsIy1R0Zs14ffbwPvfqd1+/p8WV/Uczv5AAA84ErbdQ05OFNhGiIv76BtWzwhHtU5WpVyDkdT/Cq969EbnMhQc7NhE09/11448IKPnmDU6EuQAHhD/1F3uyY5b4TaUjlrFQds9a232MYfep8b8MXROhVQpr0FPRBnpcDfRHJhFIjoOl4x4qtJvHEehKODfCeYnMq7+ulJe2Xf89au1s2/qZ2R40u4fwmTR5yqMkCA8ZMESub9E7m97CsKfIRHJVSWNx6s4eUjESaZt6t227U/82nb8t53W2dkpeQ+I/DzghU7qKT/0LFhH2xl/bF8a0C3NucLtlr4YGIZk/IwwowOvd50lmZk5nGqU7d18mKuSHdtC0zSrFhHDODrnVS8pV6wRImhZ2arZcUovC/h80711Svt8o98yHZ88pOCcIegF6jt8GHvvMqz5pSOQF1moIUIg8iBCGIxw3QYdhjKLYGu+sQ5txrK0DLOJB3pur9R5v1YQsKQzFtn1Xrb9qEP2+Wf/LhVFfGc1vOM8/+VJYC8iOwQ9o7eXc6XZP1zIYA5iMN8CF0FuddSlN+/caOt3LvHbAXDqRJQ3UAh+MYeqpU6ETyviBwn/x3w4+83+X34iD33Z1+08lNPW1+tYv3ii06ubdOZhk2XWjafD/RboYig8d1n7eU//4ZFLx0QbCiYHq57SihmUK5itKCvRwQIMheVkwz/ppT7B2zz295qfRvFhQzHKvrNi+EZqiPBjaH+kKXudJSyUBtslEJ0zcxQPiTPpCb+yoocVtx4vb35x/6O9d/+NrPBEasmC+KJoqDg/bUgon86xmiJFZSDKHbknBwMck79zKp+MosZmKmLRx5wDGS8v2Y43pNQxWoSSrF0p5pXJHLzjXbZp3/MSjdda21FKmiVgjyALO//wJIAiPEWw/SDFNIS8l84k0AeGVL0MjSFTgvXLyLh/Nazedt521tt63vebV0p7qkEOwuI8qqH5ppS+vBbMI1KDoP+k5Cin5hElWjz8jerIxMSUe48L+lUkJNoi/992F81iOf9td/YGXvhO/dY1g0vyr43TOqVw28YbxmCTk11tDxI7WQKlt6wwXYKztRll9kcgRPfvcWQCtgmugEvO1QRMklgw/eOJl3zYy+DMVrzVSaC3eH310xqsFExm5yyU9+419ovHrOiCMTs65zgZCLYpUws6UtKtheynO2k2pKFUkYnNQU7AusU1jXhuNcXxZBWTWetkZPsb95ml3/0I7buxpv8y1dtf3VD6UA/HKjwjh19E9Z6s+x1te6tZ6RCthF9wzyLN9LDAB0J4HIJG+hGdnk+adsVLLZr04qmVK0UgCt6CJZjTZXAE0ITio5458ai8jFdX/PR99n6n/jbCvEZ9hSxsZhYWeFDzokTlv9YXE+Uwcv/jk5gSJQYS0vEnrpKtKbHZNx90pXaJQZvipA+a1Ydd+MN9KqHanUISlJtwnwMRyZYvziy2jZ/8P12xcc+ZNXhQasKiQ2+ggPzCrGsBWR98qVOTIkn866CjFrHKCyX6bjrWxk0XsrXa3z9pte/+Kg/PEAXeBdGnYgBVIM1c1krbt1khSuvcI5jKVcHAU7BWFQc17GYvD2ueKQa7hDNMYFh7PEnbOqZZ2y407S5XNdqIqsv1RIB0s2UO1dpeY5MnGkq2j7+8gE7/NCD4nAcN/XHG4tb67UP3P4HpUlqC4n3f7he8lAlINm919mV77jDTtcbonVKVZYFErOGvRb/Qzh4ilETgmcEgcyQeyGbszyfnhRP1ZgBvusyu/qHP2Hp297icwa6gp013kyA8R2IAiQ+vsNv8EtCCaFjxKYy0OJb5Yq6FjzClJxsHZXDvrC8k5enrAdYq0vdKk4t3nGeKOi0ALcnS8KZzvZea3t+6ketfdlWn1mZV0w0oEz79ImZpDiOCw7ND9JCYpcoaEOOZIBqfNRDeF6az3JgQCEZYivH1xjBiJA5fopfW3KAXH5x+lKKOCPFt+m0jKscqpUrbNsH3m+2boN/6D0nqhags9QKjhmjHcTACWaAO90Fm4wi76AxmridkWjps5hTYXclDDjzPCjusOmUcuSW2p7/i7stev6gDarKWrlsKdaoqyAsQXF0sg8l51MyfIJZhrEi/bfuljdZ39XXqJaSeE5KHcWrXwEj4im16Ru1oCfEZ3xmtoV+Vu3Ure56ZgQZfvR5X2TnfxVQZpkoUyWd0Y8dt/nHnrb+yXnZiJZFkplINqXLZKg3mIAR/HNkpjNLxtD/DKP7kBVjywhJxLC6HGEFfRnJdkpOcTDAAK5TaCSQkcGw66LoyrjUlsts94c/Yol1660sWqeke9zJlm4BW+DKsSZ5bzYaVhB+VunCbjnMxa4i4Kga3ucLLuZCvZ4EdL0kxdWq2VpVuLnLB52r1kmr8oUSrMUM61CZKMGOVpmMFK+UdrlQtLVvv93Wf1RMuXa1INVD+gdBY2YKWh4jA6vDAOFGgl1hmFihzi1klFoy7UMFfFhekLhSpDqMCP4lwzwM76GgSD0ZWzgJxlh0gUn6Sj4Le+utt1licJWlFXmwsQaGgXWAWTHzpUwY9tgAk2EaIqGwmcaFM5QMqGLYUgYuIy9ZP7nmGNPRz9UviofuhxOe7w4P2Iordyu6GxK9hENdFyoWUigfmCpUvHgNfJC5x2QnO3PGxp5/zvLzM/K8K94uXjrGJS+Dk2/KI2zh0Yteorl/j7ZWtsl9+6w7PRWW49C4N8Z/PaIo+YYCQRTcmeh1qgeL6kG4xF/5HZdZavUqV1IonRQ7OqkQu9WwFjPeuN372csMj+GMVOuRFEnG5hShZLZfZtd+6hOWvfkGs1KfCqr9pgwiSrOnOMEvCWXGb0BCsSMDrJ/kqynwHco1me2IN83qusdkGM86d71EJfRJwp8QblIxk6LBelY9vFdCUYvHUQJXXW17Pvkpa69db2eqUjBScrzjw3iEmf/BE/9BOjv5hhkcJWcsQcmxRvuc5Dwh+sUyxo5dHgToHpn3k7wzPR92qT9e3oKj3tD5Zuk6XpEwUpOVnqJFX5HmvE4tnCgLJpcn0S+Zlozo+baMlcTEN6Fxtg8PiW/gKiXxFIN+zndqy0eSxidt7L5HrH+2amwOlJMcYNCRG/QofBqzFl+u8jX+cuQGd+y0tTfdZNY/FAIcN75KKif2laMoFlVGRdbkYBPgdKUzMMhMpmRSJ/DwGpVAGdsikXS/k6FcIkk+ddnNhUly1qzbmcces/HvPmOlJsPBrF+WzAgwePh7SeGDMyGlBURVzTFPtMmyTawfgDJyhhcAgBhlDDBwBQ4JBph+c9SVXmk9Jwpu32F7P/whq5QKVpGxD/tXq8+CG7kGemQZmSbKzrfrHpT0q4+8+Uc2FyG8+KSqQwI/eSFwq7hjo4xsgYEzIS42lEwO8JlgCmXZq5b3F7xpmJNCLFx5uV31sY+YbdsupaRIi4hVj6E0fSiTWVOMx6texupJqF86X1duKDNC4V6HirIdYbbVUCergoMPuNctWVcHG2LIiKFFQSWFT02OGGU/0X8+E20R5y5AsrBmmzfZjve8x/qv2qMoWEwRsS5N/eoJyaVMMCPeMplzZlWyqTuYXC57p0g8q4NvyaguOP9y1IFzmIPs93SDflblZSbWDNvqa65SnwvCKeMWi8nr76WglHQUfagDIYzxxjll25NnbPboESu0G/LmEX4xG46uHsTo+nIlZSKzsDGBWY6h6FMnrTo5qbrCSAZ1UrV3wImiQ4cZ3PQRh0vl1BmY3bfMoz8qwvamiZ3brW/LJqtIK2FYw7se6goRoePBS4c2Qjsy4LrUyeZthiVzIyttq2jfhzLqG7SO71ZEMf7TOTzpbSOQqoHLyuABcqAaGYPJilsLnZqcD/Fls+z7oCfrfOiBTy3WrNWoChjBJ6Aw1CHYAMkBKlYRkOPZkkFowQDDmv3W/+bbbdMdd1hjzWpFxuzcJb4BFpV1VQsv/yAtJqGDUTicUXivwzpyKX7fgnZJdmUqDMaZP45egeNWyliG53wJw44BRpZbrabl+/ts/W1vllHr97YyehqF7sl1D0Og1KlaJfesuGDUJsW6b0WEadbOSjaSE+OWmRi1tHK2MmdFKXOWmcFwikdc6aeZ0BQ1bPy+h2z6pQNWhA8ZapU1RK/4iIgeCc33+iJea8m5ZIh1+IorrbRnj3XyOJy6LVZfsBL8JvdgTyeJqIFVMaEc02S9YwXxdmbmpCVOn7Dk5JhlyjO9SVvAobKCMRII6PkM0d+Lh+zoY9+VUaJShUkSKP9zmaWxN5bQbRhgdDW6FHWdlRzmZBcyLIkUHQR46J8S4oZxJrsmQwa9o73QT/VhiN0YA1ZCtB9eYf3vvN2y2zdZQ0W5RzfQSwsTrNCn0FR9y3QaNqQ+Dcv+ZeEPJsAGqr+uBGSeeHCVGtwqd2elKk6hdNVTdl5hhplHZ2IuPkjsVlKMUFFObd1om+98u6WuvELKJRgNErigy/h2Pv7sGzLo2EMC3hpeI15ITg/57idsxXboFbMDB82eesbs8e9a8ulnLMnvU9MmyykGk2ETPNRB8v9DQ8rMypORZwyanlGvjgz7sO2dXXWFrXnn2yw5NOjC5MZZ/1piqkuZGCJh1x+PfHt1+y4pAmu5fBZFAE9GD5yemxfWo/p/YhAEIpO0zMbVlty8XpdSoQxle5nEb56A72gu7jnXECgfJtM5sxtT6kdBxzzaLUWsoChBSsaZUmXJPEMK8wHa1i+cDignmoxTITjhfmhB2eFVcgAw3jhSUhrKCGsQEAqEKNZWr7SVO7b70iz2AyZyCQElShQ4VV7eGyC60FAvtTCRIpO3Wq5g626+xUbec6cYfK3QkrVkQQqJUQ9/SNFmGm9d2BBsQSAFHn3TEZiYNJMXhCnR1MZPiz+PmD33otmjD1ryyccstf85y4yPWr5WdZwxaYr3vPh26EiFE6rPgVYi0lLPvD34lTWbwmU3LyWw2rZ+6IM2dMuNdsaVFxPtMCCc+YBjqOIHyRMYZbmWwlI5iNJVOhfGAuGWZuGQ+4xEsB8311iPzmuqrAjE7kwpOYOL2msxxRhHF6Ivtu3YYanNG8U/Msh+FzqiE8Xv4iXoCp1wqrqEuVLYfPQAvraTx6354IN28k8+a4f+22/as//pV3T8HZv74tfNnnzObEK8RdRJsGI16S7Vefyw723Aut5ULimRYdaMeEGChWPBnw9rS2jgNXYGY5lMva9kwwqMmEuBJHpCYJDHIGBnJ+lNtngtKFK2ecnZMy/boc/+sT0tOB/+lV+2p//Lf7Ujf/BH1rn/IbMjRywrx6AoQ5zXc0KLdHPHTj/8tE0fOKS6WnKe0QddK8oTZmjc+/8GE3gnxwY4qlQse+SwJV54wezgAdkM5dGTvukNK0EQNRc3ZSTHW3f8SCDdFoFf4Vlw+iQtyjL3ZNWIbbzxWkvkmGEOmoLhjT+V6F1gqN5prOhXgeaI9AhLHFmnfz7+WS4trANmht5OAbNX+F/XQZFUpDwZT2dIQgCoUWZoZgUJAPGmlkkt695+m2355Md93V5LURG7YuGhkIlt2KPUxy6cUWmJ/2B4NJzKtCrWPnnMJh5+xI5+9c/t1Ff/wo792Rdt4hvftLG7vmXjd33bjnzrXuF5wjqnz1g/M+oKOTGjENarD2OupqCUMpjTARj8L/zGUKSyEotS0dKHX7H26dP+zsc/N6bnELCzkn4iqyx9wTssJ1N22TveZokd20QMJqFRBoJSGM5eTLwzSsuRYa/XqfFxmxwdtfqJUxadHLXa6PgF8+zYGZuampTXOWFn5Hx0jh2Vd6l4yuHr9ceNGArEdYsyzKVr8s6Hb7reVtx2u7okQ8PYke6HJ0OOU4wyMusxwReCTBnOmdhgx07a+KOPWHv8uHDXsZlc2mkPLmnX6azyCFcMV0sOR0pCv/6Ot1tyw2Zdp7AK6TkfikMDeGO6RtIp7768CBlacFPXMcxp4bJ7/LhNv7jfd4/i6zD6X84bS5Ooj+hUfzgcGDbRxOGXoZ2vt62waatd+8OftNQ1V1pdihZlG6glR01S1ki0JUqCTXWEiSUos8AvJOa1spnGtGhx+u4H7NCffsUOf+FrNvr1u+z0t8Sb377HXvzW3XbikSdsat9Lli3XrZgfsES25ALJIEGNvqsu3sLHUzxAAPhWEUrpnHeAaq9YUqTTtNPqb7pclvLC8JJ0U+WQRRxQysK3xFurr99rhRv3qq2cSqm835PiUZ2whbrsdTDFwKtRJD9/36M2d+ig6kcZXSgF3FIRzhew4tix81Vq+xZb4ysdhnS/hzDVv4S0YWiYqIUhLqXmS/vt1MMP+cxS1rLDu2RXmjyjPrWVmwMrbMv732PdkRFdCwYMI8NMVOcQysM0/g5QP2h/esZ3jiqzjePYuFUkTxzrOjZOjfnv+inOx62qc7YHrYxOSC7HLTpy0qYee9A6s1MOLzvy+XpgteVd039sTXjNbbdZ821vt3S+YCmXL4DgdRjOIX0PjiHURk13WDYkx2z2qafs2c/9qb30la/alPpvimgTr7xi9X0v2+lnXrRDjz9ppxV8pCTrhZGidJxqqpdt/BvftslvPyCbUbM6n0zNSwb5QpSaxWkAaz4qJGS4Myd9HbHsctMmu+oTH7OWjApfdsPJox8MtTOSxOgf7IcadlkWnXyLyJOn7eCffs0e/ZOvWPTIPdbdv98SB49b5+Axq+x/2Y4//pSNPfO8tYW3QTkYqYFB6bqsJZ5/yV747OcsMTZmWayXAMyLteLPY9KYnzELW4lJWXB2g3XA73+fdUaGXKe+Sg/3ko9UKjHyWZHu3vfP/0879qWv2gnJ3qFvfcdOPPqYTezbZ82ZSSsVMpYtZH3UIuAHuqAXhFP1f2FtM0jUgc/ndjPCh4xrbnbWTt7/oPU15LaoHB8/4T099gp8t71voqlw3RWej+nnsTL7YggHgs1fZPD67CJTauXGPT/HloSDUcXelnzZtvZJgbYjy7L9HMwuAwphWQaCgoLBwm5Kg1bbdoVd+1M/bemtW0XIQGQQrX66cDg48uYSDKUg/AogEpmCe2Q+jF2ZNfvml+zlP/xde+nLf2aNF5+3xOgJS81PW7JaEQPW5FnVLVGes8TxZ622/7s29dx3LV+fs/yQ1FQhYY0MOzDh94qTdGwxVCRG6rgGhejKIrYLriQkLeMwlGvbyVf225n5WWM9HTsjYYQw5DCB/jnRyMsb4J7CpyUfllU0p99NPVyQ4L34279lU7/x36z9nW/Z3D3ftrm7L5y73/6Wlb/5DTv5jW9YWcqE90a8Z/ckIQ+b9eNdAidOCDPxdKmbsbn8oG37ob9lpcuvFhxS/4LDM48uydRGhk1gUQhGf4gOuO8GSF59Kp+wk88+Y/Ujp6ww1bR8oeATTXLiA6KHblMQCH88VG2IThnhvjRs3c27bNMH32tRv+ATHzEshhJlCQQTuJw9YwBoW4cgKqqoBzR/Xo5Z91UpsGdekHCfkSIKWwfkRNO6qvePFcCX/lzToozMqU75AEOlU7D1d77bVn3g3b7HLZ/C5AMPLKvgHTPvXxlCzMIXROO8LxEw4AI5S4n3ki/ts8kv/pkd+++/Z+XvSCEdPGjZ+RlLqr/tSkM4qFmmUbHk5Lg1Dx2yqSefsvaxEzbEvuZDrIcUZ6haDDncWJfXjdGn8+4K9AzlnK7AUvmobrmBPiuNnbDRlw+IJyU/4jFowlwvde0HBphfVK7nokzkjmaCvcIP7LNH/t//26JvfsXOPPCX1vjON2zu3q/b7L132bxoNyP5m75PBu3+b9uZe+6yqe/cZTN3k79lMw/fK6MyJnwgx3AG8yeyvClRfxVzir/OyKnb9OGPWvG669U40JLhUrQPO5pzRDfCj/SXted1s6OHbN9v/7bVH3jI+uVc8yU2DEq2IT4Uz7ars5Ybm7Tc4VN2et/zcgyO2+r+gll53p76k89Z9cRxK8gh9ghL+og2gqyACRzQQBNo0JWDWpE+G7r2alv37ndYl4BD191uoJQV/bmu8j+MEztS6Ux6PiW9Ov5nf2gnv/L7Vjj6uPgl8klnLT3D0qaugqXE/GnrjB+Vs/mYLM9+G2pIJvsaVnnoW3bwsQcsLzhTgpEWGumk1UWbyIfBAg2XM8BB9r1rIeucD/JwPQOPwcPSA+Of+6yl5ubkMM1YrjpvGRnlxKGjNvPYU+Lrl21FTjhatcIShZLVVRFOdgYaoZwhquBoYyjFm7SLjkJmUlHLJp57xqLTp4Rv9UJ8nrasnAnmpfCmnnLSHcqM2pX13NFK0+YzOYuSckgEI/wbR+1k5PS1HAtRQGhot61PfVvB+1x5AWHJkURZyh9xAi/QFxghGAIRKUy/6i1vtty69V6NI48G/UQJOL1RVYynJuD4BB3vGfLyJJOVqh368p/bX/zWb9uh737XbH7ehzAzQla8LWJoG4aTjKvN7FzFpve9YE987s/snl//DcudOm39Tf8WC2+svc1gICQWahK90U3xzlgxU0eCqggqcfSolaUoI3k4fPsTQcjIcDj4tLrQT/24iAT7M0PbZzCCbIGBQczDM3Ig0jNyJibkZY+dsur4iQvmmnL55BF56MfMzkzIEZnzHagwtvE7CToZR04xnPyGLzPyyktDw7qmiyBNh9dK3Irz+ZJjfXDY1l11lU3JyHZGVllFkWBVLc126lZmgl5JOkIKpo6xZkRC8M0rAl675yqf+JaVwvI2eg0FisYp0JZ0ITiYwZ0d6FdEwGfdULQIMM/1nteDCLvzpf7QMdytSWhL69bazltvUT/6FvFBeX8m/OQ960LrvXue5Cx2ntlnT/z3P7JH/4eUoIxqV06h7KkrD6uzXxHPS170G94tyDlg4tqh+x+wr/3af7bT37xL5VjnKZWncg3Blkowx7noMDfk+LJ2Eerx+meIl0/icXvyaauOTchAoaKANCSe+UFakoQOlLq/C8WJqrUsPVWxzvEz1j5+2rrHOE5aQxFuRUatRh47roj4uOTxhDXJcvg5rysn5IzE2AbTjm2UvniLO4li3jLDg1ztpbjUq3NMq27UtKmDh2382ZesMFezkq8cCa9xGmkpdCmLBApLQUGzW1YEN2b7vvple+gXf8WO/dfPWPbFl2y9nDJ4wWtWUXJInNDSImfgbGWkmwsl9qHuRWS9FEqH5OV7P5AAvu3MVr4vPvGktU5P2bAMTk7OL7rHv76lzF7kjOsUkJl60w48t9++/Qd/ZPv/62/ZwfsfUmAkPaD++a5nqnuxvRi615FiQJUW61HSCXWzGgbHTUTTRYJEORZyhtPSmScVDT/1+S9Z44mnHU5f0aBeOhSxMoqzKwPVQV2yfUnhrX/liIXPOfoDvUzTKuNJv70e6WUdcbm4xt1FSlxcSrJUhGHiYRmhEfZ3ldXy/Z11k3eYDp8ywDAxwN9l6UJLSm3tDddIuQ3oNzd4QgdlyuOxMzPWN2hXdMbexG2iTUpMTtnEF75kR7/0ZeuI2KwRLqYVSYl4GMa4PY/EvB6pKEUnWdUxoO7mJmet+sx+2/fHXzAbx6MUmwlhvHRnxBtE4MVm2iJIvezGrPvQg3b0137dHvl//oM9JsPPZ+NoE6+Kd7Z02Ntc0m6M7gslygQfVEnPegIJeG0Chl2YmDUnx9S/eXuhnFVOZkVQoUK+kOUlEwU9x6QHhjxc8IQcjCNwAm8MM8dCf8mKQ4OBBnruYhP4flViJoi8xA1vfZute/Ob7TD1pQuWzRYtn82pX4JHzk9SXjJGApg6isC27t1rm++4XRGnIkBdW7rpCTAu/jpfo2cnx63omlk57J918xmsPcGI63Gc6BfCiCIOnxQTxgs5W3Pt5WZX7hAues9A016zdMdfXZARJrwbbDv3azVrP/2EPfTff1eR0kO2qhpJEQmrcgZwoEEwowCxr0mCKrhxfWrLN088cdIOfvmrVvnO/fJK5CQKl3jINMJwFh9XKOp5tnhNzU6avXDIxj77OXv+V/6T3Sen9OjTT7lRX2wDx7cH/A/SQuqZpUBcPJyaHHzLKctYJgqe0ylFMTJGyFdBlC+pbB9H0YRclPEp4dypphjF8BW4Z6iW8JzlTJn+omWG+kOBZRKKGPdJboF1FSElagQ5cr4krDhsLDl0A9yS/KBnJfNRRr87NdvEJ0kPvGJjDz9uublZ6alepcskWIXoKy0DnFfkC9ygBX1A586Sv96J95MTdTyqNKxRblo+WZJOLghOImMCooALf0blZCFsINfve/7bZM1OPPCkzb141EpRMNjIFWikbo48y/mlTMHQ0SGO6GuFdopS+opZWy3lWZHj8vLd91tnStGxYMLyeAegZ++xmMZci515k6M/ODK8oDNi3crxfInXjXxNzbcZ9vT6Oqpgk5fvTVupSvqkVDK+PZnYWvWEnZNClTEQbmwSMtZX7DDbvBYIwk0yB8rr6NmfZjgmaxHDpRSYm7epe+6z5//k85Z++ZAN6rkMs+4i1SyjqRIL7cWZ6LIlg8BwYzYpOAVz/9ycHfrGXTZ5732qc0boZdadnsduMJxSnjM7fEwK8D578Td+y+7+hV+Swf+KdZ5+2opleaIMoTEbltlrQiJwe3uiU4z0i0kedTlx9YBznLL/lLsopkhmdF9hE0MQPpR2wSwhEEc0k3jDDTkGNYuaVfVLAhrEyFuj3CJuwrEr+rnQZZnNGPrxupPq8YO6AA0iKt60xa775Cdt4OabrSKBm6/rTitteTlWGSk8dp5lcGxezkx+x07b9s63m8EbPTj45Bop5gfy60ks/bHhAd9nmm/1st7YadOD1RN1C2gu8Y63g5GTF7v51hsVVhal6OScEXXovsOkPyeTA6OneN61RohG7dQr9uyXPm9lGcGtUtD5ctVKmYycI9YNCudSoHzUPK6Ddr0qwdfhy1Vy+laz7/Qrh+yVv/yGtfa9JJwpOhPt3ASL3xPyzG1qxlqPPGbH/+Cz9vSv/Ko9+3u/Z6P33mup8THLN/mQRYAW5EFz/n6QFhM4Zxwi8AN01Dno0k9ozesOZuhydGMoGWMGP6/Tkjoy7Ohft0KeOKouniWTXA7QSdJxvo+0eNDYt/uiEkAF3VgoDVqm1G8VOXEt8RP33LAJKvYtD3uXy41Ny7SJrzqVur8/LSTl6OZLNil9J/AuKhHxYgxSCqhC8pDHceRHZa9qoZPx74RlSwOWVp4Vk9c74TWbf2rVX4F0rJnuKsjhC3eCpyFD3ejacDNtK6OU9TeDHmc3vjb3vXI9qhPPvd+XJgWc4cww2siIKTqynWpZpTYj+apboVK2yf0vWWt63pUkWPcRXeeTuBYlANU1IHYcQ4MctkaPiXeW2oO4T0tTWOEiXlIdVL0k3rioJD7AAEc2okitgPH1GYU6qjYUFfUBWHz0aDSds7V7rzZbwbsf3Wjr7pKGKbeo4BCAcDsHAo6P2YGv/aVlxk7aYDJSFNB1Q8gQa9bXcYXnQ1txTkgRJ6wiJcaC72SyJQ+2ZUONmu2TgjNFG9m2kM6XXabGzF7cZ6Nf+LI9+O9/0R78j//JTn/9O9Y/OmF91Yo8u6Z1yhVfzpSVQPLmhhnSS9vz9h2S5RN+MxPPwjsYnfjLQ4k/RzFGJO+2LiMk1ApNwt0Fs4SQKFhCygSCTE65kPEZhWzTqSJqAuENA5P8JgMz7zLSLLfSHTXl9zledAL2JQlGSuQKUjzC0Q032Ft++qds+IY3WXPNRqsWBy3KD1hVHn0t32flkRWWuu4au+Yf/Iyl73yHNEdWBo3hZxlCFI6UGHwStxDDvmxSGd7dEHmSeR8VPi3Zu78kOd10xAD7XuUrhi1z9S6zvJwrwRCJvwNevHVR3Q/KUlDCeRiqk+Zp12zm/rvt1IP32pAcoHZl2oqlnJXrFRl/PS18wM+st4yVC8npoOg835eXT9qSg9Kw/lbVJp960iYfe0xO4rQir1qYST0qHn30Mdv/m79pd//8L9jxP/yslR97yIpnRq1UnrFMrSwnGFMPtHQ2OF3nkOhvfAI3cmNcQXq0l8GIdUWfprWkW5pJObHJukVyrPzj7L3MOaP9FVnrsmqpiJZkr+ec5DNv0awYYGgveb6YFKrS/9mCFXfutJXX7rG5kQGbymf8G9Vs2pJvymlO5SXrBdFWmkRM7JNTcdN0raoycwqNa5I1HIiLSmqyLZgX3j32ICHF7ONXYr4NBxWVdGzaaFtuvMFaq1fbOCOSSnyGkh3lMHAEBm2WrBTkkCDWraZPssoL7pxkDNx05aCUm40wgqiitOV8Gzd0CRJ1YnyzEkRmHzM6SCOskMgUM8KnxF6/a1OT/m31BYVIOZIqADZPvUscnLJt8YrsFPrAHyHH5eNnliQm8TL5yt/xeuFehReZiJ5lBNu2TlD3SWH6BxLk8bWEeBY8Y9Z5sUwjELUh4rYKRRvapSinmBOzqwIpnhi6WJX5hCZ5cazHpGO+PH62Zmfuutdq+/ZLGUWKTOoe9UI8PBTWvAKQ96PXHxIEBIaUlLB/pJ8a5TT0CVkNPn/1xa/K6L5snXvut/Hf/Iw98K/+jb3yW//D8k/ts7VnZm1YRMiobnZlmS/KwKmvGPyuDLp/wannLS5tM3YelksIDf2kPMOgvkzGKa7EcL6ixULH9z1yD+lCWbS0dFXMXCe6FF7lDHWavCcUzuWB+hBsYOlQ/zkpm5PQLLwjDXVeTHIBoc5e1RwgKXTjG8IdGdTsdXvs+v/fP7db/+U/t/U/8knLvfsd1v/B99qKj3/Ybvzn/7u989/+a7Pb32TRihW+sQSbwHtNdKqnO6iXtMD8F5GIGn2egpQfvOEzG8+lDbCKXxmd4Qs5TeX1V15p1ldQBJSUNx8mFS4U9qRKqEc//dvRXOq0rPz8c3b0m9+2oVrFMiJspyglmGxam2UnagPu7jC5BEcwPK5rjNCEHY1YmsckK4xARzzOhMGX7/qa2RMywk9816Y//3l76j/8R7vnF37Rjv/5n1vhxCs2PDdhAzLOpVTTCmnJnZiTGZnuVNCAMoeL5cm/SQnNIbI4LdmJiFg3JfxnZVAKoqevrxVniA0CKzoiRbOsjGmWSZkFd9LS8WYSveS6wMvKsIv/mKTZnK/60kmULLqQV3Tk802wCSMWgTds4xq75kc/Yave9w6b3rDazijQaHXYGCNsZDTPpCzpoj49U5LqyNGwFGcqkRPsRcvVBJsDs3xCTzIMENXZYQG0BNMN73CkliDvnPT6qMRezyYcXPb+d9tV7JF+9RU2p3uM9hBL5MSMLCsiRIqimuCOZIw7Vks05LZ2JA/i+VzS5vhecH9x0ZlRW34a//6fmOK1wuh0Nk1hqVZY5aIO6BrJHZNzk67Fzwb9Kb3DCJfoimPC9fM9RmLHtLbsENE1Rc5XjGsO13myD0GXRJ0hKSkml8RCjglBAZC4xoxFjkQA/Vs3mg0P6pxQPS6krNOg/nuV6DcTS/Hl0ywXOHzUjj30sA2I2boyoGyAT6LemCk4LG0X4gNXTggM8PUiD533y5PsL1dt7Nv32Cv/5Xfsvl/4ZTv4hS9Y4tAB6ytPW7/846y8NkGhimGkpLwmiawa8Dp6bZKcEfXb2+zl15uoQq6Kt+Mf02VLNEGRSgwKf1ln4gtllnhl08OWTgxYuinhk4Dy7VecBerW7TAsoiO/gT+GFwZr8slA2leOhe1iEkNzIIBqqJvE8zEtoV9DBqG7frUNvO1W2/n3f9L2yBhf87P/l+383/6hDb3rDrN1GxWll4RpnzvoTwvjqhxgueK/vF6E86LQS984CqhkU44SsysRrN69OIEHhI7ZsAwiMxN+UN48H+XATGYVEQd89CJf5+5eBTogaD5Q16grYn3KakeOWZ5XE1LSDWmcugxuvBUkf/BK2BQkaH6/phoYXmTGJzM/GfZmd7ysiNedOGHP/d7v2oP/7y/Y07/6X6x27/1WOHLEhuoVy4nBq1JkjXRL5UVDRjsEJBvf88qF3sZd7ZHmB6mX4P2isMI7PpDEh/UZbeomMp6TkrlMJy/dkbGCmC6vjJz5HBf4CH1Sl4Gutqw0z+Y/i/qPA3xKVIeuQTajMzNmMxU1HLiIhOI+n1KnBG49hq2bz1ty79V29d/7SbvtH/0vtuk977bkjl02WRq0eWaLil/8/bRgyjVkwNp1yzB5lMmN0st9cjzhsOUS/EHf2tIDjUpNndB5g00ulfS46zXOST1mQna4jt32KWgb19mmv/Vxe9v/+vdt849/ypq3XGenhgZsMpWTNlU/2gooEuA0bdmmcCobAJ83lPlcJHsDxDqEujnlt04vWaKuugxSLcNENsk79JAO49OnLJu1RFYOc8GXSCVKeSeGOwSSczdXwBUD1LuO0xL0aMedF/iATDk/Uoz756TYkMY8cD5n7EJJ9qzja2v7ZYgXmA94lDnGBMIQetSozq7creh3aEj9EMZVht1QMLSksNwgWAzqCH6HUrVqrYMv2eSRQ1bKyUQIYVkha6lnx2n8E1iC8aVdV28qqx+qmF8M1TaihqIGGa2ZGRt/+CFLjp60QldsIuJEnarNt8pWl6cWFk5jxLtWarKkysFzQsZtcg6j0lfux2WWTU4h6qAGfvKUkMHCbink6VK/jQ8P21j/gJ0ZGlwmD9mhUs7GxfDThYKiKUV8vAeSQY+dBtrhD9zETOIMor7Vy1IODSZFhWveqYtJcVnHhQyKIm4m5vGhasV9qo83JGJM8QhDwi0pnbYi426Bd86KICSc9BknjeF4WAEYqNKFkSzaOV51kesxnS+UKILHbfMV/7IKIyXMT/D+cl2Juki+J7Z4gSHJTKnPVm6UARZ8GEe+ohTjxPGi5IvylWBXvkFq7A8+MWmjDz9uSZ3npBjbjZYyCljP+xIzHQU4TiAthzqC0uY6S7+YioUT4lnwQqtMK7LKgZctd+ykrYrqtkaRwoiirpJ72SqXK/QMLviCU0NbngV5MPy0GWD+QQoJmhKVMYrHjzk5XuWREZuQHI2OrLBTI6vs1PBqydNKmxwc9HxackaeVrm5IWUZQetfJZ7uF3rDxDowDS1wdomikK1MxM5QujNVxir7iAxKF4WLAj5fQl1xqyLnsSZa2shKG3jHO+yaf/ZP7dZ/8X/Y1f/op23t+95rqcuvtLFi0U6q5Upe0bH0I5uo1psVi9pVzqgtVHqBhH7ASU3KkYgwwHJGCnJK0BWukpXdyJDQI7pAf7lPTigyr0sgGMq3vdfZlp/6u3bLv/gXdue/+Td21ad/wpLXXmvHcnmbzOatzocLFKF3ZHGp0uVRJ3F9yDptcQ8d4HrgUiXBHo8IQidcYN81TrAkBVMjk7dxOczrbtpryeE+KQTpBZADDCie+JS64B2d+GY+3KvWbHZqOjhnuu62j6z+nC/5RGXxQTDA5NeXUoMrt/7cLimEawXgUEeE1nFplOXbuekM+FEmdSmNy971Lstec5U8u5KrhBjBqBvKMVOaIWvxrHtELD7Kjo3bi3/+FSsfPmhFEb4j5sh2w0QWEkEjdYADkhtCZY4gwme56SS0xfBcwhpMbMF7pI12wz9s3mJdoyplz+BMgX2m1R+1T/3emLLTgHY4emsh0Q7F/KhMJLLcOuCwwToOQRjGRGHyjglZtb6ijWxYb3vefItte8ettuVdb7Mtd7zjAvntdtn777Qdb7vd8rmsnR49ZV1FZZkFhQ8F1IYaYjQAypB4B0LrtXzB1txyi2UxPhCGwnRomeRr4JTQEWEyk4yODDCVEIPFC9f5tmeC+wIA+vKA9xqAvDExo5QYNOMyOdQHX/CD54VXZW5fBGjCvx5TtHj8rrstPz2tSFc8Ko3LuzKWIvBHe169DHBDHmx+8ybbeMc7zdau0XVFQZLSVkK8onKU9xnT/KkO+uwRsIxk9/nn7cCXv2bFJmuNZRDZyAPnQs8Hz5ZnejwJgsELl70nGMqe4fTz3lF/GTm4HTkQKfFrtV6WMmAf4o4P77XFrqlU3nztIKX1HOuag6GPayCB1CAnP1gHjMypvMqxmxErJBpSsn1yXK+48nLbcduttunOd9rOt99hm971TsnV2+yyd95u294pGSMja7q/S3ps1zveZRv23GBz802rnhkVTGEduS/tE9z4ZnyZiuWNCTnD7f5hS+zdY/mSdB9960XAr458gBjdIV6VYfPRDF6DUD4j7lq32op7dtuKq66ydXuvt9VXX2WJ4QGbqs3LvqtP4kEmnBbl6LbYVe5V9b86UQLDAZyzMujUmV2/XvjTHae98NXjWfpH9r3Uuadbas5370pkpJcR+T45JStWW2r9Juu/8grbdON1dtlN11t65YhVJWct6caWnFW+CEQCRGQjBE2BnlSPHqVt37xCTikJ/YV2ea11wMDjCfDkyYBfSReAW3tKAdfXvhTmUxA4CrfITEb2pCHBmMvnLHXZFrvqox+y7M6d1pSBwABLqnp1hHqDTQC03gW1UT5y1A5+/Wuua7JEtnRKz9GnsNtYgI8MTUebHXup3PB1wOwvwBLeGPSLSXzr2fKqqCifa0HB678ebJ64xh1vWsovydKj3tpZysVleZ4UxAW6EnmqKMp8ftaOv7DfsipTiWpSiDIfHcVXIkiTNcI6EgXwHC/2EU6elvnxL8RUda+mzK4uDZWtSUU20lmbk3BM1qos27QaDCEmr4sYNTU5XZGiwfvUc1VJeFkKel65pvOKrnHOrGOivfDR9tBLohAf1riYhPDpECKgHsbEY3w5h+HLwpXbzN60xxK33WLJt9y6bPaPBdxyjRhnk0W8p5LWhPAwp0PkTYAl2uMIzChdKfSaIv7pcTUugQi3Lj71QO8dFpP6BD0RG6JMzsm8o2opQmSSFQqI96NMcxLqAqwLbVOj8pKKOeU+R4dePEH2e1yX1HqmbQl6/cwZa5bnpLtUWgVcmaldhvoZHaEW1nQTmTCMllUEZKxdxphRKTRCySzAsQQYFQAGIc2mT520xNxsUIB6htnxefEYbbB0BAUCh2LkmJiSF54xpnXxEwN9gMKmL26w5cV2BZ9QZJH4sc2kNNZmDgxYvZi3qFiwTo7PIOasWdezMiIdlecZnm9LNmriZficRf+B/ssZy7+BSbzA0j0ww3edk9dfY3brzVaSY5B8802W03leOcV68Dff6jn1ljdZTo5qeq9kbe9esxuutuaaYeNjIosJmZMCFk+5ZVFmvv/Ljz9q7Ykp0UgE0TXaDa/h0B4YtfCsP6/f8LNHT5H4VrzMyEgzXfCh57l0zspr11n7mmts8EMfsF3/2z+x2//tv7P17/uADMgum5QzW66xMVJ4DeUypbZojzXxYbQEDldL4nUaZw5KVldbo+M2tX+/kKJIWK26ZSTh/WIV+RfAhPVVTv+pM8g5fCiv0RqR+seoDqNcg8P+7ezMW99sW3/mp+zm//jv7aZ/+k8sq9+1gVXWSOZVX1rNqGL0kuPEMaAjzfTav4jkJXksPOp1+EQ4kkAjqGPkNkSekh3B21ava4JzRk5DcvdOu+FHf9hKojPbSiL6gTa9OnqVcw2t70EEWUFhZ+K0NScVAatucOmbb8h5ZxIacBAEtvUbfYXNKifSPqnOaaJaYht4sSm1bvWOn9uthq7PlMUoARQI7V4+dVGxjG4L5ctYjwix9p3vtMy2jdYSA7F1n88CTqL6gveNN+IdUgXsPsQsa7Y1PPK1v7RiuYINl1fCO1IpKAHPvjMM13nEqV/FupwBurt2rSU2bbPk2s2WXblSeW0vr7HcqjWWX7XWcqvXWX7tRkuvXm/pVessw30dsyt1Xddyq9b7eW5JTq0Ytta6lfLsVivSVAQ9fcY9X5R6SxETDgHvFhBAhnQuFAE76XrGwvsM3PpfjzszU4yPWIf3RnjvF85tMXFSEjv33DM2+93HLdtQxJRmpjoe+YLsqD38OTEBRokwUQzCxJ/kmkFbcfWVAoDNJ3qFl0uAFtfrf7ogXPgm5WTRJ0Tb9CgU9s+0MSGqV56Z2z3/0ovA65QkU2bhgg5eC0Iv+J2h/YyISDfVz4ULOjV5/zP332/jjz2kKHJSyoDdddhdK+ebA2TlOLlRloHLyXDy9azhG2+0lTffKq96haoSdGrXZ2MLhtjQu8MkgNBHDKyn63P2wle+bJ0XX5QoK4n2wNbo8gpDwDqtyTwPpcSnzLbddZlF6zdYenjEBhUZFFcoj6zxnF210jJrVltyxSrLrBYvj+go3s2uWGNpnSdXrBTfrlZeZfmVw1bQ86UVK6ykewnxdbRxg2VGVIYmq/PqJ7BIGUvpgCYU3d/kCBgKBl4VH+hZJiD5HuCKOJHlMDpFvaFt7uFKMnICr8p7MsuxyqBi1bvustrxV9yx0lV/xj+gL1joNa/YEvRfwYP1r7cV114tJzsEBYzGIQk8KLOgY3jlFYyiX/bRI1ZcBClCL3IeHFtKAC+fyExKr43IKdh09TVWGl5hlel5K5+etoHefBmcT9lySxJxoXdUJ/TgFRU0auTaVuA1W7VhJUWCg7s3m60sSs/SnuBhboqeglxiaT/37EwTrkEHLqXQgXTAE/f1rHRfW7RP9A9Ye9tWG7hur63fuNtm5yvWUJDVbdYtnefFFVWKWih75Edy6nxDP5VeKwJeGEng0MvecorRTeFVeJitzNr4Q3dbR7YjKz7pFgclQ5LBnbtt24c/YFf/nU9a4fprpSuQB+kk1el8ov9jNURChojdGbHlFYPNzdnxz33Ov31eFMxRpqUgSsZW+hVegIKdvKSnLRuW5itrRXtcPHRASoRgEE3mI4TQ/SJT4oor7+zeqUZ+OKuQW9Hi0o0TSA68mIexbgSpLmVyy7/+WUu8+XqLUkU3wLyn66SCAQ4eUIiOg2Dp+VbNqt+8xx76D79gg3PyLmRQmKySb+DZ6xkxDx5EJDevI0OeajWtumLAbvqZT1vh/R+QdPULazIolyq15gUj71WkBYTsp3/9P1v58DEphYyl5W0CD3A0ZAhZrpRPF21UQn3n//2vLPHed0iAC2E2pDwh5w6XTipWovvKyAM4iDOzKAPDXzhhEORT2dhnP2sHP/M7lp+dkuLoWjFK+UQHtiOEUVlug1cclicJGOGxKubM3HKj3frP/4XZup1wre7R+l+/5GDpP5/MxKky77oXEMcF8pnTtu/Xfs0m/vJrNlift7aUAu94ss288Wm2lAwkjlukaJGIdFae+5ZPfsI2/cSnrb1urXu4DOHjIIGL8FUWlCv0kFA76cRzp0/aPT/7s1Z65MkwjKdSF0rlTNqK77rdbvxH/8hszQYRQvVKPnxMmV0VUK1uuCm9XG0S6pz6JnXAk2zzCRdEEuTsXMOO/d5nbd8XvmD5qOyfeWNiHiM3GLeajOPVP/V3bfjv/6R1JCcJOZIpkKu+odQBgUkyPvzOwAjPdWfs5L/9VTsunPIFtAsn8MR2r4oEUk3Vz7t8DFLRMnfcbnv+yT8027BFxTAr8KJLVe9J0NGyrBRlAvwIhspX/tQe/6X/z4qNruhHFIHjKB2gwr65i2jKXIPqxp12+6//orUv26FrOHfoDGY3s74cgyUM06dz9NVZKb6l+uk3MxrAQ0O/MYbdhhQ6w5Pzp+zYv/55O/PA/XLqmEXw2oklbvUNl9vt//Kfmt20xyZlCIGuqHvII7q34+NxOAtBEQuDzn+LCXciPgv/u2sjHYgB5w1wkq8mVatm+1+wJ7/0FZsUbAPIvIxrFz0t2Wa5EbrAR2hwFET3eropZ126Am99w1rb9IE7bcOPfsIiOXJ11dxnefGN6oAxvOVeVj0O41LFJXt7FthK4V1nSG4b+FkWrEcP2Cvf+Lodvvs7lh6bsEGcJt6PqkCLzUbc7iPvGa+6IH4Qp9rchs329l//VWtdtlXBjopIhhZbCCke6mfDJD6BWyvPW+Plp30LYZZxZRM5VSj7MLzSPz7BO0mfGNYSj6ldehrcKpdK5xuyN8RlCjCcLVx/8+f+jRVOHrdSgqVUfI6XQjK9wmeSYc2c+oOTkSnZiW7Bvjhbs6drupbOW0eBpsBUOTp7cSlwyOtIwrm/I/CTOC05jROEgQH9lpA9p7CeGWbeeXUYQSA3ZbibEuyujBnGGCbOSMHyzdb5oti6kLFJPdDNSglcomyFFVJ4q82K6xTRbxSSeZetqErKDOPLzlrsPnXRKe7/OShZmj2wQz9fIGNIXCx4YEkCl/ABuAtDUSEaCPcQ5iDQrIlLjE1Z89gp3QiR4V/XFIwhKhv1pHgk9hqdcchgQjQ4OWpTh16RcRXvywkih67zvEqgtHq8yP943FlozNeOzk0qwKMLWNEJesibqkdWEY+ypvEc9J83ATMzbC0pHpUxaiV1zmhBXgqObTPzGYsUgTRzufPy4LlZ2kN5pZTSiDWSQ1ZNDtg07nlF8flU3YZqaVtRv3jB/huZYuJCT3J8jhU5KyoJ52H4FtnBeUA1L095IuTBiaP27P/4HbMX99sK6Qk4jYiPlYOYb+rFjPDKAMfBB6px1t01EVA4Gjq4ePZghKf5jTywhK/G6NKAAo+919qev/d3bc2H77SJYkb3xHeMksm4uHHsVcL/wJ9QhMsqAKLQ9uSkHb37Ppu/70HLNiqyp4z1SHe4fpOuw0j28OKyJCA6iiy6CshM+Xz6g0AsfKRCfZVBdJQVhbs9l9v2n/pJu/JTP2LJtVsUJSasJsPLkj0frT/Xkr+OtBAVK+EAFPrkRlx9veWuv8m611xjnev2WHfXDouGBnxUgiQ/xJdzxVocsw+duAsoPoJEgj9wQqcn7Ok/+7wl+I65lAI6BdzwdSleAeA4UDQtJZ3vSKblCE5GLZtm50Zdh3vkKQR6vo4UoH0dyeuXofTGlBw358MtNyhMluFliQxMtjRDXwxwi+iZmcpCLpFloiEPVd5GSp43Cq6UHVZZ+YiXKEOVrKJdXxhcVltNol6GcgAcxhYjhh8Xl5biID7SPx3ITnRlN8IXyO58KscJ/HjmXHkp3jDYcVk3YhIKdhNLnZ6zY48+YVarqMILe/N/lclx3DvH3vpEMB3poA+po7QEf3Xffps/fMzydJbdTKR4MJgeKzidAh4Q0o74Z3FCTA85SxLVx8nv6oILAMOjAMO+sfDf0oKvkeDVLJNjiFLqNfVBPNzkfRsjQUF5SdXpN6NK5+fDpTkvwS5J0NkKlg1icF37mWXOMKA8a/8cYqS2fpBeO8VkX5p7Gg4D4LLjvBPkiCHRcCS6oSB3Lpzc1W1M2dhjD9m+3/8jsyeftVIt8v3noTZsFBxKGVDRk5EIYwifvGDke+3oGU8Oowy2fhOUYBizbPNIzvZbZstOu+ZnPm273vceiwolXZeRlazzuJteeM3lSS0n5NBRoRyDnOSndeqEPf+lr9qZ79xnxbmy5drwuMoCgvdfGWOs/ntUqEQ9jMQhV+emVotJb/RUsOIkIHc6zsu8d4ZX27oPfMTe+r/8Qyts22rVlAygDHBCDmnifA7xRSYMfrzeOrz3VbOMVCrybUtxMspVacptUeQLLhwlei6j/6CXB3siTJgvEujE2wd0qKe5aZu+6+t28rFHrdCoS+3IqEom4QvmKaWUpVmFD/VFctpV2xUZ5lP1us2oLNUGEob6X0/yeB99dR5ce1qosle5KzdaBBFxTxcKLUm9MkyM4T5D0SgVb8dvBS+Q7fbIPsGFcqI6yrjFLCrWN7UYLBLj+kuLS5TVjr/aFOn4iHokBQqh/A9GVmZo9GISTHpW5hp905EqQp+Ckbmo7JXq2MOXD+Hrt+denZwAI0IUPEuVSaSENxmnmbJN8q3aiQkxKV53SMD01ysBT4DJ++D9IpqFCoK7K+dhdsqmnnvev3qSlhPnPKc+0mMQEeOAoTu6x/UmEylwDntK4ty0gIX4hKPzasLYkJ71oV7/RSSxraQ8JyWZlYIh6xw6iMecdqIm/5+XB8/N+idiB1lUv5gLod6o/q78jorOKtLlhMTfW0J+/c+P31vyGi6CrxbagX698vRz4dz/f4OJh3sZNmKuCjaPt0Jxlh5VOhtO/xVfAq5z7l8oyQTZiI6j37nHXvmjz8oIP2Ep8WqfeDanCDlDgxhfXkUoM7pGBMXwdVvZORieU4Z/gzEQBPIO0BVZjCG+c4MbMlyJvEUjK2z3Jz9pa67ZYxUhL5Vn6V+Amf/pO+8ymSPg9TKULnj4YP3Us8/Zc7/7x1b5+j1mx8Ys0Qyy4c+RvRpVICcBRyQlBPI66NyoFXoVCgUfDg5ObrjWVSTIXsvOnUyAvH6vr+jIrVplTRn7SDLJZjdvNHkbys6zysh3TvgERvbzZw5SXzYt2COJkCNOuaZn6mF+ErhWgm5N/TFVk1eQKTkjVqla/YnH7NmvfdXyczO+cUuJLUdpS/0HHxhi8JNkfoHOIzkbM5LzU1FkNcoJ78DnutpbuvikmukcnexdOTf1bnLby8QF1RiJd/c0fm5igw9/Di2lQjk+z8Z1/ouh1JGIg+zDgPrN7GN2h/E9bVBM/rZGfHgJc1M83ZBLhFKrtOdl5xtqi6iFoYcwvHuxETClEKJgCHr9I4ETMUqrEXn078ZRl5fLraqYguGlRtN36gIMVRvwr+zt6E/Y8XPuwihcwSMtqN3miVGrvviSOqsoUb9h2PPR6K8yBYiXwNQ7pW/tlgRIwtF66YCdeuYp6xMSmMuRwsBhJL2sSsYGmJrUvyQzQ8V3wQAvOh/nTY67XnJe7sqWsmfSxeEpUECCKgFlljK8ygxXhqYQUhjNI3XR5lz+O1+u65GqwGDLVX47PHAE3n9HqgOehEG+14QwgTPh63vhCOTalTDyfQHe8jI9/FLO+VC/4531wr03noiMwvak4gHAUf9wocgM/pKdR8AfR+GQnlOW0IiZ+3UZKfLFYqSpRvjCzkDUsLGHH7QHf/kX7eQf/aF/4zd1ZlpElAwDj2CJzUGcI3DAEG5KhlL8SlS1CCftx/gUgChX4FSqmCLftets1zvebok1K60K3h3ioLPoG5n36f4aD6Og691uy19ulF4+afs+84c29lu/b9EjT1h3dNLfoXr1+s9H1Jw3ONEFBT/xxLnY8MVrn51u8XUdMcg5MS26KiKwWTViQ299i627Yo/uZ6yY4kOA3tIbTrQRD337kdxDlzszat+h0T8ffCD8VfQtwkqPSpfwJwBFacESWZ7RwePHbeKLX7En//hzZuOjVohqVlCZLoaZfvZgRk+FJW/qn36x7/0J6ZgTTenolFwP5j+IHg4jML2OpHpBqIh4gXeelAHZgBRFahQFJwQE9L9GciTpvmvOpPUN9AtHsIsg7CEQ3DGrj2+zRipTJzPJJqUIWDl+t+fv6QTeJcsSC/yYlIgQVeYlJfKGhANHMjCq2Xha+XKJMvQjPKmkZ13p9C6g1LM53hUG4Vgu53m/LgEoJOV4yHuMCYpMOFyqhyPLYjjCJLyrcP4A17rSGBu3yWf2KYJU33opFqK/Lgldcy407RYcIsODcpkv2/GHHrX6+EnLJnRdD/C2ReTzFIbcekj2FI68/43kmTpCzpPiNv2ufkA7B0b8lh0oWUtC68p5mQRdfG9zZZZKMWqe0tF3WML2K/MZ7JSO5+XBczIKzN9zMxzYTPsrEl7DyMW25nxb9Gbm9xsfxvNEv9SGT8JBhs+PootK7tR5BarUmS9c/74n8TwbqXRch0kJStCYS+KTO3uZNe1h5TUxkMq5WcRRY7tQRYk5BQj+wZSL6UTCitk+8WrX+MJSslG26oEX7MU/+Kw9+q/+Hxv97Oet89xz1mJJG6809ATbJztMQhIiiL3oyPgxCQyGRpNSb+BFXSC70hMbKdfc8SrIoOQtdetNtvrmay3KM4daRQUzzhmvsCBCz5Tzw/UDOjivK/2K9JJHjtqxb9xlj/6n/2r7/vNvW+Obd5sdOGCJuSnxFw6I8KO2m4w+0SY6fhmd4Tzgr4z0iE7BbJ33sDt32vbb3qpIvc9XcKRfY0TqjSb5vd43/acfAtaHO4RtXlvKCZYmUK91ZLObTM4dMBYL8q24zNSEtaRbjv7W79pLv/P71np+v2Xm56ygDrTEE8gGtFJlagdcti2LYy/Zbqi+6ULW9ldmbVI1dnkfL4XhnCNw3pAB9vVpF0AQjI2xpWyjUbda7ex3UeclkpDjDIBRkHLLjwyLGFl1KOxK4pMBdIvJBrU0M3xZHkC3wayS2oJpQQIda6XlxVyiDL9kW0JcJCdgqmaZWtdyLSbVwEQYtPP05wIJnJ+VBTs1IM8dRcAdImB5VSkx9oUya5Hx2FwoRRO+LJKRciEBEpO04q3efHmEjmQftldbfDJNPVTEmLQzz71g5QOH/FnoA0x/vVKgtPNVuGDJDH3VL7zwo6fsxEOP24C82YKUTV2CwTpNNgoAF6hR9/Ad06TQR6Lg+XmcKlTB2QkcUTp+ghMiInDKByRGNqwVH2LYl0+MljTTNXlYdetkalKUdWtma9bWtW5GsU5WtMyI9srn48FzM7A4XCAD51S5xXCi+GBSPFST180mON9rcj4QP7CE7HtzyEJEJLff6/urYC+axEkP7+uk5BWJoC/d8ZEPlhIZRBbJuQxxq+XL1NLiiyLy1o4s0wyfmSzIYWPzFZzai0ntZssyLHWiuJzfkWK/DbGl5ZET9uzv/Q/7xr//t/b8b/+mnfnCn5opQk4eOuirGQrNhpwsZu63fUlnIpeWnRPcqgcWdK4WX/n4szrBSgzexeLPMX5YwcquHrZVN19jXXZ4UgIELqNLkaRsJ4zkEUBQa1oMTplIIXuhX45da86yr7xg1a9/zZ765V+2p3/+F238D//YmvcLzlcOWYqPgXSFuCTx+qIkwDc+snSe5KswmESrJgmAPbF2+MorLbNts88k5hXjpUxu6M6tkt8Ckfe0KZSlkMdGIbyOSs1Vrb7voE395X128Df/wJ7+9c/Y6Le/bYXpU7ZKRQdZpy/4G1K+vmxOf+hW1gIzJyXbEa8k0taQjjrejexl5bLsGcPT6BV0Es1z/nqSB30g9rWQS3KZFXYhQkPKYH6+7J2K7wnWV6eeAfZS9GxgwD+Xx/T5qKXIUwaJoSPG8dmfOUducpTfAhL1GDhkPMW/88vw3iXKLQlPUwqooyhzWoLD7ik+QCxksjMMnhzDOOfr1vkSKIgzyXHZU071as1mpqYtGj1tiWPjF8ym3JqcMZs4Y1G55msF2aSdRN2OT1XLEQaE6CQORDV8FB9HMCcjVD5+0l544imbmpoKivKvW1qCsLgf0oVBEZXLduC++6x2ckwKhOg3jA4kMmlfouKc2nuGRDXByeBO16ZnZnzY/9zEI0se8x884e/7SwVbvWmDRRj1swqdP+GkMUED75sNCHhVgjcsjkaE9RvDFGbXno8HX5XVpmfCYdbUo9SQHr7UNV+z/ihhpVd36fUn4QnlX2B/YpzjN5jgKZ+EI5pQJz7TX0VCjzSli9BP7DY2c/SktUbPmJ1SPql8gjyh83HrKJt4qsnxxJjZ6IR1T4xaTc8Uy/GOcxdOuHx8kQ3Fx9IUxpVrVelERZjVydO2NZ204aPHbOJzn7fnf+GX7Nlf+lV7+bd/x2a/8U2zl140m562hIwCX9PC1xZ7e0CAPKOFnOZcZN2seJ3NPzyKlkPha3/TCRu47krLrxjq8TL8ijMuV1R1sme+fxAGoyfdmmpCm6Q1Sik705lTm2XLpqqWb01acUq4evxxe/E3/7s9+LM/b0/+x/9sR3//8zb/8BNm0lmNubkwmqT0Wk48MPuueUkGZ5mMJidAxbrSfd11q234hqtsXgqdyPrSJhCmDN8hbmJDF0POuYZsc60Ef8oxOzVjr3z+G/bwf/gNO/GHX7WEjHG+WbFWTpG/HA5Gr3z8jREw9cENvOpnB0b9L1mHJh2blRP14pkxm5ADV3em71EBWFTSn3sdKdW3bvvP9XeqdkU+Z/2y6gxpuAJS5XgBNOCwIGS6wTDnyNbN1n/5Hmuz166K4HUykxOjwyQDB0r/iJshX1rCkahWrHLgJZs/fsz6eEZeJLsXhf1yZWggsI68E2nJ028US7bxmqutuHWrPJqmZRJZ96LiYaUUXk2Lc6bTqy3cL7UXoL7wH+X5ek66NW8n7/2WdZ973j1H5MmNvqfgQCy3FSXFw5R+YKMHSsAiAUrI633uT/7YjvzhZ23ugQdsQnn8/gtk3T98z7ds/MF7bfb558xmZt0ItwVIwFHgLvrAjD6iP/egYuLTro9viWnEIGV5/Ku3bLHSujUCEiVPPSFyxOhAZ1+KAOq+z4k+8C82PLxyAP8Z0aFz4KB9V5HE0Gk5JqITGzPQbyY58MUsn6CmS+A6Jhebl3SkjLOZrKLYtG2/5U2WXL3WHSoybkw8sY0dbOAz3tEyczolBk4KV/nZqr386LMiXUW+k+hPu8ois+SblnRNB5RbQ4Lat3GbrbxpryX6ZMx0PQVPq4wopbJEtZHqLYtPq8IzyzeyQOp0C5kapcihb69PrKsnLOedcpr1G4cPijfutuSZM4KXcqrdN69RWdGZhS6r9uyx0vU3WUt9B2RGcVyOIKzgglfANzzPezFWGUzvP26j+56THCqCVzEUVwv5FxA+sqBrRFF8hIJJOR0JDddwTFlnWld0PrD3Whu+9hqzvgHJuRpSWfqDKhOmZND0rM+CAlgQp7vPP2vjDz/Qm6FKL5SgAUVoQGVRJc3BkeU34qC4aJcVPcFF84UX7cn/9ps2e/dddvLhu23y/nts7JG7bezh+4TDB23sgQddxsaQw/uQN1178EGbfOxxq79yRE4bs9gB9rWTmpTPIfy7DU45v+VkbAo4Ncpt6SQ+eVhMl3xWeyQZnjx82E4996ydfOppqxw+aulazUr9A5buK6kP6qw6j9H0iaqOEoyGHDnpnNBjFcEAg0oMs3B/6uHHrSXHgVGzlIKaBN/ilV5i3irYYq12LGPoBNdjqgkjjvPkG46I5/2rUbRdm/fXPWcO7LPJ/U9b+dknLTkzbf3ihURJ0bZ0ckf9xNDDHz5RECIgEIKbDTZEbf+tWz4Unc4JH+OjduyRR60oudWTXo603EYc1MGZ//T6dYCP4QUFJ+25SUuy5E98Fek+uiM8wLAxo1rhmaxYnvfSTFprnT5tM88/bysbNSt2GtZS9hFZN77oezCnh10g4ATq4HqQg4l0vz1Wrth3Zcum05J5BY0FAmyG7fWYlxd8kBAuWppDR16dUqV1l/1crl2RAS7Zmk7NFXpQ1N6bkBEs1QJ4CTFZbqDfhq+52aLSoHsd8bIQCNCkoSVttSR07IfKUors/IydePZZy8lTLQiZaYXwLe9sEFxAp30uJTMZW7NypRXwSEbHLPmKosMTx61x6pgf7dgJS8mTjY6dtMmJCRtYtVJPi13VfqjxAlmUSbEub37CTt71dcscfFlty7PFCDj8AfEw2nIG2BELxT05qh1fbfU3WZ6xia99zVIPPGzJ40esfkJCfuLoa+fjRy0zMWaJU6OWkOCykN0HJgQv8JDonQ85gy81x5F2/S4KmyS45dpYQ1Fgvxh8aMdlZgUmGOlZaNkrH9cV1/19TWrT2xcsCDX+c0uCkatFdvyrf2HTDz9kw1FVjB8cOngPRRKMKLzI1ZChA+vI6T1fZ2moTxuv3mOJbduEiiDw8GmgEgY4UIqhP6KGpBAJrjF+o88dtNrYYRkIFKIUhRRGnm0tCc/9uYA99gnOjAzbyv6c1UQzGzttnWM6Hj9l0cljVj911CLRNHHsiHVOHbeUFF+ib9CavK9SPQHlMsqqDTqiSGCnWPhRKKlGy5pPPWoTTzxi3dk5KXdkia0M6YlwIXzQl1VXyFGVAe7wike8yI5i7ALFPWrzCY46Y9MLHGiU+fTR0za172lFVhXVFLx8AJH+8P7h7PluUuIkPnjApER67opdOC3ncrbqtjdZ/56rrFMoWaR23Qlx+cXd0ZNUhmyAbMigJlpPPm6nH3tYTg+1UQw1DG0CPzivq47IDfC7L2iAqZh5rf6pTwlK6tAhO/xHf2SZF/dbdfSw2dGjVj952Bonjln72HFrSb7I7WPHrHvqpHVGlU+d0HHMokbd2/Bql0m0lc0UBLScWsEqTAmUELwQULTlaAkarw+dlte9fF14nhi3iqLj8YMH7czRI7aGrTNXDstKiKYyhhjWpAwpX/MB9/6pVyUfjZPFT0o/ER1jiCafes4ah16Rk9YMrxN6BrghGHDoAk+pvJ7BQfGRRclGU0Rqi54uFdRPE2K8tB5Id4TLZs1SczPWHj1l0y8dsJMvHvAvSBW3bOMJAQPH0i9RC16FEKrfA7bAPDrvGWDJHPg99dgTkmvwy2hWkMeL3gtaqScS4b5+tCen7dhD99vwunWWyOX9k6PoSX/XrjYoj2NK1xhQquh3Ipexwf6idP60zR4/rIC96vvtR5Ecfl4n8CqFPqmN0BwPcQavITtJOyyD+9R82U6qD51cnxxulinJeAswRwVYFQ7cgdWTSzMjNF7xOTnVv/aynyspFN+dSdtmETn2lrkbjNBieRCAN1AWMBtvepOl1q/1b6AiRL77jq77M7qkfvszWSHGFUBGTCACH39WXvdMWV5X0uryyHlBDzGIfPj6Dke2F7RGxaakwF5+9BE78O27rf7tR+zIA/fYUeUT991jJ+++xw7f9R178YGHbHp20rbdcp2UXEaNobAvnFg3xjdDW4cP2dFvfstSoxPiIaIieg4RQr8xDMttRekTyFAmyhgHes0tY/eXyrydeugha75y2D8UkeYDEcLDhXKnjiEQwpSZSc6EgAQhu2rFW4aJEYGLSU0x1+zcvG3ausWS69d5vzMScgyNR4ZiFiZ5xPT9fibnq56C5g8GLhFWPPO8Pf57v2/FqWnxAwILg104OXbAjfCfUuRQbomfNmywgSt2m7GZi/qIHYBmlFX3vb/uOGKoXInpSq4gZTxhlRees6yi2Twev6/z681CFpyMuDB/gFcnU/OnbfSll+zwfY/Y6fsfs9HvPGAn7n3ADj9wvx2/934bvecBO3r/4/bSUwdsYNMWy27eoig143LNRDPiWHgOmWJWMCKE1iBoBB+patVO3fMdm8RpZWYtNpIoC0WsniTFG9B0cMdO67/uehn4ogyCd9fboA53X5A/XfBRDykrHI/O5JydeVyRqGQnR9uK3DKKctqiiRuPLuvwM5JP9VXukeMXHlRVTcEwI4du851vs+KVV0p5sTGBcA+O9TTvMSkZHEXBy0PwWdS0mYfus5nnnnF4uOyfkfTz8BsC8SohuggDTHmmVUmqAu7k/By9534bgrflNJUSBRmBvORK/VDIvVTOYCsPGvRgnGnbYVguoe9UJx9u9+0RFenJVfJ+UwPi6nhI1cV3TeGcSZ/wU0J6T49XKjbx8iHrnDltK9dusMSqNd6248kdwjDBKgbGdQ16QHC3iYCFs7aChvJz+4WAmoJldUZNs0EHX27yES5d4uiT0nQPBzIhHeQwythzHd4DEb6ntIyKZ+EaR6/N3tWVus2cmrCxwydsOJu34rat6itLdFSn00Sp9x9VLQCsxNsSNrRgm9+JJ56Ux6eIVUC+bgOsH/HHGLxF9a8+cdr2/+7v2srhQctu3az+q98qj6PiD2DserA4T0puslzu67ORlcM2K4d4+vgJ2aaOv75ge0uaU1HPcaIGYCIjM6PCyUnRbkawtzJ50V6lMcbID/wPvyvDm+emOLI/N7kub4hhp9Qx6+YkdCw8Rnj0WzchJIiiYoQAr7t+etLm5Ekm1WsARmEEyMNvkthPuJJiCz+EARFu1y5bd/MtVpXHPBfJ0IAd7yZKSPWIYO0UMxNr/nGInJRDcXzUVs/MWPHMSSudOWF9p4/b4MQxGzl9UtcnbbA8Z9vXrBSGVAH5IlKLaapi3KkDL1s0BmOE51AY9N3tnQO9fEIZ4O+TF3dlAlc9WHQgemi2mjKI0bKZnZx4T55gJmFWLCu0gRef5CCDFD4cgXuzfBoS49orL9uRu79tJk80B2PSN5DNWLtuAzeC+v1OqHNPDo9sH//Nz9krX/+6ZY+ftAEpjIvrpVCjqgJ3qioJVKrVtnFFQybh76Za7iTqstfnMqNjoHFIoMPH94pZ2/CmG2xw3QYvj0CBM3/rJ55hq1SGtmSq3AgPzlasdHTM1p2ctFXHxm1IBmBwfNwGxidsaHzMRsbGbPDkjK2uZmzt0AY5YN5Lbz9MvgjnPnzLb9HBt9DTRQdPUdOkorVWhY0+pLSkgKVh/Rly+L9r5elpM8mIs4lfV9I5xpdrC8lhV0UyBAPrV/vH6JmPwVBxUdo/V+94pJSV0DMnoxSlra9BxC0zxzaU/h6PqFuGZNUKG+DVBviRAnJFRxcc8gChy4KuNwUIA5CmaHt2ahJIZE8Eifp8obknyyXa809NBuFDUOQwy4DUFNXUVH9VBZQ7+n2unPFd6QDlYr7oJGLUo7pFMmQoW3iOV3BM1mkLGIxuJ8lWhkzAi4wtbSM908SRq1dtQM75GtF2+sH77aVvflvR+BlLKwpLKXjgHaQngQ7NgYs22FYWHAajab4eN51lIhjXBIMIwH3kAB4iw9fMDWGItSE68b48LXoz29734lYB1+sypq2mnAlF0WyjmPVvl+esKHg2KBePnbB9f/pnZgcOuhCxNpbnPDlPnJ28XXWDO0SemRKfLgz33khiyHyBT+C3ZtMGDh+3F778ZbNjR9SnyORbhER/BAA/4fam4ON1h4fkDNFcttV2fvzDlt69w6bUZ5zO8CnCwE+uCoG/l3kUw84qhTVycLf099sqdS5ZaajKpNX0fEsBmX+IQu0Gu3nxSW3y6byknfFIDk+2N7NLxAyeLEAEQgERDaSqdTvx7NOu4JhCwv0w604E7AEAArpCjG6pFckemq9vyLa/452WuXy3lUslESnjs5+ZBV1RBD6nCHFWBCvLuy7L06pKsJvqFMPaEwMJmy+KUWSUeMHPdmtzYrruypW29dbbZaz6xPAsTl8+waoo+7kDr6gP805g74X3r1foIhOeUVHV5UQklB2Pu+JBIwnOBBG56k+kZUnljS+XfWtOCXDkhqOtc6Js9Ets3PUD7r6IxAcm+js1O/Xwwzb1yGPS7L13XBCHKqjOIf6rSQyRMiJLSkj51x562I4/+pAV8OrlZKQUxVxMohvwIKzHNntwQVkebpOlIEy0kKiIxbzPiLFjcWm3xfu4itxLK2re/b4PWnPVepuTMmJiVU5cztBqW/SoSxqrAss/1kGkIOXflGGsiHzVvqTVdcTyEcUwGtPK5WxQka+tXesfiyctoj0A4fCodRw15kxQKidl3Tj4ok0ePiqjIhdYhcJnIVFrHENiCL2q6KI7y1av3kX9p8Kq2o1v3E9vFJWkSyqUWjVsK3dd5l82Y9STiJ7NTlh5QD8bmabVspHnakZ953mXD2QlbTuv2mOZLZfpohSY7jl8NKHk+gJIJL+IPf2RKjSrla0qR4EUT+jpSPm98RRaCqcAAY1kkBiLhHUklAlpzgQ7JJ0jZ8xV4StVSzM64GISs62b0lMpRVOJwUGrNhjJY6geaNTTVFsyiy6Eqgz7Zq2eylldUVOnULSKDCHOVDGfstNHjlmdD/3LaQy0EQxxl4Qasl+X04TBZ0IVNMWByEi/kHqq2VeXsFupv4/0OtR+SogYWWHRqhGr4NirHfbK6sgwkfnaTyQHoSlF1laY2Bau2nL+mzgN2a41WlUb0vX5k0dt4vhhh80pxn9+ssiLcaLtHguqW6I+IzZceIPJsYoBdp5JeL/zjbLNPPldG/3mt8zOyNHWnZr6zogeCTsELdQr/XJALYJuxaLlbrnZdn38I5besln9Fx1FJwwwI2I+KqZz+uA+Hf3ogT6ofOXQsF1e7LeRSDqlwz7msknSHyynDTo6lL3YlGTSAF/hOFaPbFwhdoP3BHgEGJBe4yH6DayOwKdbLZs+8JLZ2Cl/Z+DKw6tTp73jYlKd5xnSUs/4AAfDs115p8ntO2z3Rz9ktY3rbEa9g+FYT+cTtdQua0HpVF0ReUtCIX9cdWasputop7y88kwzK2bM2Gy2aOve9CazbTvVk/Dx9XMTgk74zzKr+Bzlxh7DE/tetCKAqz2gDl4drge/Qj+WS+hEPHA3vnoAAgRciBMEd1YWpiAV7sIo5bZczoELEZZ3C1nBxaYceKgdKQw8rUiZrzVdTGpK9WWljLqTE3bqwQetC81ELz7g0JZcoqxCz7//iTYxwL4EiB9Hjtr+r37dUuVZdVnRQ0Z4ZFTmIhKloBncQlVM0OsqKjz11FOyimVxkHiq0RB+F9XFYp8xbrhkcvTYg1wKNffBD9ngrW+1iXRRcAzIMOWtLxG+vsSs5Ha7Lhwq+inlLSqlbT7btkpWws5aUpa71InCpRAY1t2x1bZ/7L1mK4fkhLEhQVAOIqpOAhysWOyyGbz3oqsyuqdIafLFF6xxeiIMOQrOqFXXA2q3oyjL6wjKaH5iwjozcyIoryeUqJSsIotJdFZ5cOQTFgeLtvNtt1lnw3qb1PWOFBM7ffon2PhYSrZl1UJklULD99XNdrKWkZM7KWvdXLXS1t96s9nwoMsvzYRBGaAPCUrwB77JzOZl28658TEVCzyHPDKTevGp15eQt0g9go9weuri+CgjPMmBbSr65KMI0mjCFaNqr5Y1gPB3cyoVb+BCFIpDHusLEkvb+DA/v9lpjS+WlYWvPZ/6mK254zY7o8ioKiObkpwXFQQkGy3LS2Z5d5oRvlJsn6rfRGYMBROVMrs4UhTdqNek81AgTjnHmSdHajglBXrDMr371BO1FN1JN6Ab0XHeL/GAYOQjMlkZ/SkVXfPWW2333/qYRVs32Hw+Z3OiRUMGt5PXsxhdjK/nQHtGPFriaYaseR3ghp6hdm96CbX8JPxaAqqzNokeNRSsRcrA+0YTRnxhCNfxIJhF51ViAL4Tbi+8JBmpi/4YWRVRw7wa6PhrTV2UVWUJPaPfzBhoyd6tfPed/k3ocq5oSTlF0ISJlgz+++QyHRn99dVMvcxytTXikd2Fgu0q5G2oWXfdAmIYGfONG3tgnpvgraV5gbf410xk7UwqY2cUhdbYDQjjK5T6zGYlN8DKGBcWNKeEkPbYqM09+6y0jLodxesjqFTKR8ewt3Iav9c9YByTBDOkB4dtxVtutWs/9XFLbdlmLbUZ8byYpk/Gv18GJqeHcnqeyCMjI4wy4/qAsJisqrPNtDWKQ/4ptB3vu1Me3kBA1gVozC4lvmuOsjXbNv/SIeucnhQCBbUIiseOOSLKxGsPfbmIBLeBdD3jHpNOeRJSMg++LQtD97rSbkm1u1zuSmD5lmxSFE80usIDX2iS2hQe/FNk6geTxS4msQ9rudmwoorP7ttnJx98QBH/acEW+Xo3+hk2KrjIvl7C1JCCgFwwo9WqNnHXt6xy4JA7d8lCTkrA316FwheR6AFDQBDDl0XMz9qZZ8Sfh48JfzKKwlsswwvY84gSqnOFCFgODs7NytV2xcc/aRtuf6edkRGe62at0WCdeNr60znry/JRCLUjIeddLjNJMwzlyokdEJ36E3mblxLObt5k6971Vktdu9vXGdMSrhOyEHZmCsrMvW7JAaaMzSEKOIhHj9nUvhfE77XgvCJ3UpZySx3mOMG1jblZmx8dFcHVb8ECDy52Uql3DjZp2xPwX3etXf6Rj1hixw47JvmLsgXhTk5jU05qQ84gfRBP9uuvI49tUtqls3Wz7fqhD5ntvVLesPSF2qd6Rk4dKm8LeQqn/mYLLSCHwo4fs265TIFewinwwxtLeg6HwrlE52k5OGx7yL4GXRk9d14ZVj2P7LHUkeFrNuxntjm7NVFXWMom2CVrGF0MHwagpXoBkwlPtXTB+q66ynJ3vt02//gP2/U//ROW2LXDzqiGuVrbComCaJiRHMsIisbIX0G8UkTWajXpNRwncYJ4ZWTtWssP9DmyQMUCMvgRLoRTIQp56GKsBe/cmSlfzhTeO+q+4MSxEwVtUJYmLyaIdK8o2q58++224iMfsqt/9G9b4ZYbrMw3qQVrle8aSkcTJJSkXwuSn3QjsqQcAyZ31abnLKcgpyJ8EaQNSS7wenpg9eAT9nV029C7IVb1iBJeZ1ewbrVhOazfG0yxsYoTv6rIg3DRPn7SDn/nO2anR6XLsTYEbnIeBBYTFvnimUemAUzn/woiJEd743vutKHr99poK/KPp3gZVe5b0upIO0uNMDLeJ2W+OZtUFJy1rdIfxVrZR3r9q25yogL3XHxKsocwofmkgD0pCBkGxiiKhXWbISkQCujBALPZA55QcmrKXrrr22bjMmJyOVyJodDEZGHoi2cEta5z5tWp93yLsz00ZBs+8AG79Sc/bdmd2629Ysg3GcADj2phowxXv8IixhHPribGhaFq2by11qyz/r177bq//Smzqy73Ga7SjbETeVbCmyU5A+vcf0/O2alHvmvtqRlXAEQEcfQbkC1gocBFJQGtZ5wB9SvUokQ7ulhVVDUnj2leAt5YJteV53N9Np9RNJJlZmlaSqUg/Au7Dg5KW4bLDcfyie+isv9sRsasNTFux1hb+/xzlpQyZJ4mwzPxN6C/3ynLpDQdC4Kl8+xTdvTee83OTMq5E9xyxOrypsIErOWhiykVDLCSkFVUvxqHDlv5cUXB8xUVUn1CGyUgr6cejaE9ypd7GK9GPmvpq66263/8x+36v/N3LJKjON83ZJVUwSpSfvVIERYbtjOcJzj5/mpWso/SrypPS7lmd++2nZ/4IVv3gfdYd83qsGZQDaAAMKOipNrif13s0RaHt4SiaiiifuY5m9y3X4pU8iSHOJJSgfbhndtCB0IXFD1PHH5FjiUbuAY5pdpzsytGTnUkSkAJrXj/++2qT3zSctdca6eL/er7oAr0SwEX5Qgrt0p2Rq59uW/YitdcY9s//AFb/cF3m21Y55v6MXuU6hEDKgYcfqMP0AOwKnROSnmdeX6/deaWGuDvLdEfHzanbeWkjIhiP2soCq2k8lZOl2xeuSq6nStrFUE4r2cqQkQZORVmfO2q6sToMgLIhgx0CN3hkbKuN2RU5/uH7NqP/pDZ1q3W3bbNNn3yE3bDT33aVr/zbVZdtdJmxb9zMlrsX0Aczuf4WvWKdSJerSjSyhXUnnA3sNI2XbvH0mtXqAOBJzyK6CHRdYoy9PK+6iLOGsXKZ6atKwfJl3r5NcHMfUZg1AZLzqpy+ta+6RbLXXe9tddutNV3vseu++lP2zbRPL9lh/BTtBpDYeyyJmDTdTn8cr7ycrQyUsZ5BWYY6pl80Ta/6S2W3rwtELcHl58Lj5wDsidOBA9BE45Ct1y39mxFcr1Q4pKkjujbwAGRXThy//02fd/9VqrPyamSXHZlQwQTVgknhxFE2B2ngBGoXDorOZYkXLbDrvxbH7fi1btsOtm0srgHRxg6+xB2D2QO5AyvnRRpDyUj292Xsb39BVvLhi6tuh6RJEt2w0c9Lj6l+lfv/jlXOhLslVHV1smyl9oNeYi8v6VZKfC2gnOIyrsNURtCF/X7zJkZG1m/yQo7L/fhCplKR/6CmhESMHBsTQCtGK4iSmTSCVsGMot6/ZU7Lb1iRAKhEF4c15XyqkqxVVQ/CyRq6g9bm7UGi9YWc+f3XGU7PvRB2/axj5hdfrl1FLHjyPHBa4Y5FoYqein+TeRLFNwSg0bfvtde/otvWmp+Tl2Uh6ZowCdvCL5IoDPpiQ9EELEsvwxJJ7ShZzyGxljqp8D3HDXKNrhyyPq2bba+nTuttEzuu/IqK23aYqu3bPd3czgeDP9IraodFLDvku3v7JZNgjOliI3yzMBsKNKMhKNVmzdbUjhn2I2PmLu76BT6/iWWHeXBoRy5o3/yOZt+5HEbEuLYVzWSEmJSCENf8SjMhZIrABGELwr5CIZowqzHzpz6K0W4ctcus3Xr1UV4VAdIhkg5/TBZGDL+D3WFYWL9NzRo+csvs7VbN9h4s25RLmtlGd46EZGeqwh/LRlc+Lmue7XBAbNtW23olpvsih/+lBXueLvqGBFsOY9bwTJKwPskWiJ3zIUGBjaSx2nzb4keO2WvfPGL1njpRSuJJ5kkF0nQme6X1jn8h2IJVFNdGfFnJmdb9l5vJrriRNIZ76v+o08k/02/eteQs2ypz/o2brRNO3fZ0JYtUspyHlavk0yutdzqjZZdt9lS119ha29/k131Qx+2obff5nv9usFSZncg+kSESFdCwigICMmzSKi21MvZKXv5s+rTsWMqFmjq8PRymAmtpLoudha004iIEKcFuZ2XM1ep+Np35pn0X3aFO0J5RacDO7afJWcDuo48DlxxufWLP/Lbt1lz8rSlFOEwKuPvWj1hjNWqG2c5X2pz9Xvebxs+/CGL+getKiOVyxUtISdr5dWX2eD61dbJywEQj8w3aj75iXkOqWxG8CtCFm9PKdiJFERc+d73yyjeId5crdhNkbl0H3sbJHQfB8nfPwoC5xlAkQ5zuE5P2rFvfsdSh48pWgt4gaX4IALr/xmGnhYtctdcaTs++jFL79hts8JRWsFLas2IL0tcv323/KxBq4tGM5KTlrcr+ZCzzsgZ6/IrMuqz+YIN3XSTHNEfkcHaTnjo8gVAHrQI0NhRgEoeG+i200b9P/Pwo5LtJ+Ro1xQkCU5opfRGZkG79Kqh9vSsTf7FXdaslC1fEF7lxEdzFVuzfqMlhEsm9/LnG+QAqmfhTkdea7FPtjDteE6LXkNSRGOHXrBGtWZFXWvXGgHPDkjAPzkt3EQdllM1fXlsv/CJ3TqtRqpqL9PN+GsHnzS7THKnjrz2qg90fWvIZM1unjttH1m3wnZG87aiLR8Rpm7nLN9kWktHhjDyCQYZeUkDQuCUPMvqNXvt1v/jn1lxz+WqtaEHaDwskIYwAI66xSVpuoca+oVBTCfDVmtZhtmOj1nrpZetefyEzU+MWR2kiokzYtxMIWfZFQM2oEgkv/MKMexmhU4lVU5FyjRJFs66Pui/mLwdKZX4Y85HjhyxiV/5z1a97wEbFEPUGnPySNOWqyeFg6RPOGELuCLDGyLTsh/kp2E6uqDZwlBGVZfVrGWq0xJq3oHoHxOxlklMuDHemdQjG/uzL9sTX/iSDcvDynX4EigLxxlmwRMrhAcukBLyEtlxB7ok8dKE/9mhFbbtEx+37TIQtkKeN7Aj8E6V71/iKyLFatNO/9mf2gu/8xkbmhaehCN2J/OJDTJQiaSyeMCN5QUSCoh3l8P1lO8nzgSSnASNYcDJUr8N/u2P2+U/8eOKOIa9JpHH6/TPHkqgfa2wbsBCKL0MKIa30CYwcLMqR2HSWkeP2vxLB6124qSEv2pl0ZyZw1kROsFrkFXDtubKq62wQZHC0CqLSjk5SmqPfokXUN5IklScLiqK1nlLalPUtHxHbUCLStvfa+3/tV+x/3917wGraXYe5r337/+t07YvySV3SUpiE2VZFCWrMJJoWTIMGwbiIAgS22mAbQQWIiRGgACGgQBBbCCAYyVwYsu0qEYSFC2ZZdn7cpfc3tvMzuz0cmdu//u9eZ73/N+du3d3Z8b0LmGfO2e+7//KOe95+3vadzNGSz2wBS7kyS4FuXHGKBYwBmVjGkevhzizp4imfv63/se4GaM/6OAg0qBsQpWpO1nUzAWrQq3lvcSHM3R7G9AAnjbC74/Tgaw14Oc5DCh11FA4Tl5yjaVLf3Z7HEhjl5DldNNSgZvTVDK5OV6PxrNPxv2//Y+ijWzXnDSRTxWYzDqCWRp6ZQIMG2+5O37xn/2T63yQH66Ft8foG+PqDnLWWV7OOoezHcjXzAmeNdrWtV370mAwiDbtMuJdX1uLF/6n/znmXnopd/vLiZkofruhs/uZZ9p+gWh+IX78f/s/ovnTfx54eIa6nFE8gy4Y1zei2QeSs5di8Njz0XvqxVhZPh8bVy7EDgao7cdEugvRvO0tcfPP/GzMve/9WPMDMSF4GVBHtwnMRLUgm7LkjYIjl3KqV8c4B/Zmrd7//bj/H//TuOXp59zALTZRRhOUjs6Q3/Id7Qzj4lwn7v5P/0a887/672O0eEiOSx0047fX4aAWCKytrMXg2WOx8uQzsXn8JQzbcvQ2LmPwRrmJxkHeO/S+D8Tsh34uAr07zFn8mk01ozpIGuMW6g/y5/rzSiVKgwm0fuR3/q8Yff4rcQgZ2mzhZqCD5JDX+yC/DF/4wP9I/BjAWxorHQwFdHj0RDzzN/9O9MeXwy+FZZd+ZzHu/OhH48jf+9sxObxEMcgVtisry8YjbWmPNeOUA5yIUKwgWwdXXoiLH/9YPPpnX42FS73oEtFpxJ1Jrj7QMVCOXbK0A7EdbnFxXj9m47H6fPzpymocRbgJXaOLbVxvORp97XTVAP/EXxRE9NB2zE5G8Ve3e/GbB2qxOLqS3Uv1USuXvUxQGDK9C83dv/kmh317wxjfciTmfvln453/3X8Z4ztdvjEXbYREOjj5SmRKHBW858CeM4fT26FROyi4VLAIXmZdOb1pr/mCSffK2XwY8SpXsp/d444jqi1S5ZCSkFzilZy+MulHC0Maq4M4+sk/i+Of+NextGX0y3uplTwUNW9xQqsCc+zAT3e1m7NxHsPwa//wf434Sx+JAY6Hs56LiAjztN5MFMB7VxP12q68tvf66yQlWqU/6Mezv/N/x3kM8BywllnmJKNg6jXStivNbTzd7cXoaJwcDIvBeEM3A6BtKgY9tqbRLjD3uT6+4474c//N3472Rz8Sm0RAszJltgdlP9xEk+HVg4G63lHifob3nLxWnrlWysX5lgVKhknk5HsiOyAkqt3Gg4ZHY66HovzB9+Mb//SfR7zwctxKW+zWTW8eYOxxcXx6pd7P8fClxkKMN1FA7Xb0KGPTMUzut20XCnaIYmk4dg68ZvfAHRGdDtBQvTuOxC//F38jar/xV2LU7KLE8HLhGaPl4pEXoRfc7M7zB7hLlHCs+CHHypNHbRdZnjL503cQ2vS6ZL50QGfKF+W40uWZ7IYz8oVOxrNO+7DnxTkPQ5RTC/mLJ56Nb/zv/zhaR1+MDnwrDXUMXWtou/yeqxU6uTF3T+JaBxl1m/nhB94TH/5H/yDiLbfxDFpRBaKaEzbpqFGEbxzXcvKbkBYHOf9LiErbquSLJD1KTy1imsVHOvrV88AytudI4iL/1bP2RdZw7F/4lx+Lo//6j+MWcOS66kzVq+ap4nVWtAZ4cMfd8RcwwNv33FMUvToIQ+PaZN/wVZ/nDXJx9nNym7rAu3outrk8xDnX8pz7KY8ceSSvYQx2Ll6JH/wv/0NsP/EkvN/O1RfDpuP+6EV4qQfvLlPmT+G43vL3f5t2AdNu2WTOrc6UBx1pu517OGrra9EjMneMeungwWgQ9WHNeYFIX20ODxo3pGj7KoRxNrzFyp1u7biKU9TlgfZ4EKc+/gc4rR+PO3AC3bI0d32iMdY7M4vMEEzUf+x98eG/+3ei/iEchZxfUPSvats+BLupX8HPvX4MXRmyusJdPzvYifnb7yh4pK1uPKMmsQxpL9+krJM26kOuGIG7iqbA67h77wf3x3f/yf8ZB4+dwAHqI7e4TtstYIZPlFl4eoOo9SM4mzsYYCdC2QOWhVWZ6nXuNFbZ55MG+Hg8/nf+XoxWL6H/xrijOIWIxeAtd8Zdf/s/j4N/6ddj3CZA6+A8UYTLrtSZ7prmb3+KrRKr8Z84OHs+Xvx//nmc/vznYlFndEzghd7fHjlk0MJ0bMT2LEEMUDgp02WIOqAbCNezwPaV5bV4coRRXro5BrS1A0/5sRZXFSjDU1SpTlLPOLSqfkjSZYZ7toiETgDMGRq5bZQHpM72HDRc26bfKZnhHUJjC83NCzbX4uT934uzX/1GNFCQLm5Oe0Qlud6Moz6Hl5JwWYYQiIbSLZAQQOAdvLsdotSd2S55NnacnZYZN68FV3Lf9W6OI5euRkpQYathZGQrMVGm2bL194qORRl/51tx8ctfiVmEwjW1pd3luSkUKcSplMBHub5bHA/6XyGgSszfOQv0FdlXNSJVpl12X9m+Vz376mzK3cRUVBz4HzgUCWGwUlmnGBkVoEwgnAp/Glye0nAJZSqEfFGMF+FxI4DhxYvx8L335qSYWfy4IQw+zK48FDzed46r8WwWnAax1H5Dafediu5AhOFx9qfjaip9o8Ag0njh81+I8fmL+bH9nF3KO05myAkNCKmt8GPedruOiW5GRLMvNTrxRG+cS9SaaVl8J6GFV3nXuqnTd+Vuo6TxhUvx0re+E/Hi0exeVkvYM+AWnw1wY4RhFFOMr3ULQ8HplCvgVHd5a+AVN1GaGLwGyqbiz4pXiRB37E2Q1rzrm7bXnLxgBfIHhbdRV86UzeiGB3Si3N3tqc/8aUyIsNs4IwqvZdhKu2EVrBGOYPJUllmyrW+PRtE78XKsPvQwCOFu4sb2F8mT2+1WzDW5vACaklSU4H+Zsq2WvZv9Pa2Ag3hReYId8OtyJf6nTSq2LMfoTVpQpc7XyM75bTTjyTNx5YlnookRkZetN3Mp9jVTKiyy0Fl61u+RlNe8l1kYC5XyNzyW8uZ1Uca1TFVb9mTLSJtXPZMnZF4SvvyCEVHPpO/6/E4cuOPtccuf/zD04hnROn28yh5M8s62+mhhIWo33xIL77gnbnrv+2PpXe+O2i234n1iHFKXaXj9gIJ6UAYkwkonegKfosBpUyvxhUFsu6KCexcvx4Unn4420Xsa0GnSQbfeYQ+aLB2O237mZ6L+7nfD2CmB6YCrz+V/rwjtrm7SaVxciBaO+aEf+/E49O4fj67jvS7ZwmH3DSd7+a68rO7ZbTCI6vLbCbPSZ0Q97mHtxhtnf/BQbF9yn4UiT76Qf1OiKKn+nwcTZcljHjNPmVQ6Vfzgb+ld3AF1HLIsH8KXm2fPxYtfQ85fPgt6izHwlSxzWq+sXNjZayQKdkvROHxT3PNX/nLu7LZeR4bJvqdOcQ13e2FOtiCVEoRAW+H3g28HKe9cmI1bcNh2MrArNNubfLfwaYGpSpa2m+xrP8qLTxGCr80QFzmmVhtkt3MCnxmmcDH7hGjFJS56J5dW4/k/+1KMvvFAzPT7MZ4MMM4AoEdDtr9fw9zi6KSfXLOgu6fgJnJemXbD82lWkZbJUVNCTBN3QYRkMP7DM+Je7syVXJKPwDQoaryR3iMPx5P3fjaap4/iGBhF3HgSwoJ8EsciIsAzPX+jU1ZFpXuq3D3P69LBLieQ4VeRxGHBDQqXa7nP60wZMxQNvlsYQEwBcW8zzj/9VDxz7xdi5lTZoGOnZa8F9EHgXIg/Y9SDITFo0iDqON1I0lGb4LRJFXWJNie/LoJC6vfXiWYH0bh8KV783Bfj1IOPR329nx/VzneB0XZoIFKhANc2WrSLMOl4nSNq+NZgJ77dm8QFe0ngJWVUd6EYqCk/UI77R8sfTXJjaxgnH30qXvzSN2LnxGluAhRlO+bm++kWm70O7tJY8rPKJnEoLs2Ktsf9fJq8ui+p+OQ3fXGVkPtQz4Bj691xnEJWlIlOn43zn/9inPjWt2N+0Eehgb+pECsiCSdQ6ATkfusojarNI+S2rvNx5XK88LVvRhw7LlLSex/a64BAlK5jqVJgN0q5UZra+zV2Wc+M7qw8JR9Zksa4KEi93EaNiAHDslLHGagP4CviLWA6+YUvx+YLL8VSEwdFHP87pGmzM+1C+2o0Xzu9zvuv+E2uwew5Bp8X7FKFs6Cfa/n9sOcdf+6nI97z3un7vC1hkKmSJaJyZ48MRoh39y47yXHlKY9Uv02pqNVHdmGTnWjn+36+z+V0GmbXZc8QVbkF5vr3H4qV516KA85Yt4BUTJQJUV2PWqvNx+I73xV3/covxc7Bhdik+LIlKM8Jbj796uRQXQVjNXE1E+9MSZ1DKarsqV2cJvTNGKc9uWkbWeWBbeh+7GhcwAA31tcpU2estPdGUjZpT7Kq3eqmyV5ZcWyv36Dp2usxwQT4eeq5OOba4OXz4K9sBFWKU1ZwJJzYulNyemhys3LbRQd94L3x7r/+16L11rtwdF3Bgy4jguzRntFgVPgjFekUKdDd4aQDrVrcszQfP0YZt7jFpfUCm1An2qd6QVlRt+xNezBN4t5ZlOFjg5l4edJCiemhOdUdwmTFGmDE2bWQCKKLt+HNOIDH3T5+Lh783T+Kre/eh9JxoBqNhpID+1lu4r/K+7F5neTjqR/zV2GAVOwqeJmC38kU3tRg4KqlHHGvgfcazx2NRz/xyVh+9MGYG63RHku7drKsLG+aEuTpReGostdTDt+gbIFVvf6umD2r3r3n/7WCA4RGwuY6NAftvQ6NXGqUXiLvmDwkM9D2OQo9AvQv3PvFWP/q1yM2ewhQUgwlwEN2GcBsmjBEP8t3lPhGktA4vzedLF8hO5nMuruzEGawFSe+8uV49otfi7mNYSwCpebXMRefyZ4NrtnlaltcU1kj6ttsz8aT/XF8Z3MQj2NWn98cxvpYPxShoqp0PNBCaZTED/jQ6GvE5lAojY1ePP/5L8eL/+ZzEecuZHSByksnKtGZKbG0e2Y2VY9U9MDWZb6hpCDqpCIj+ZEESrKXVmNcB77sndnox9q998aJL34pFtZW4yCRqhFQKvYpFNZv3bk/M8qjhmyqELzjYbsxiQWAWn/66Xj5S1+NWN1I8avhWNmdaUn2RrmjT8N1ozvV1esnh3GMen1e7Fbttz0qd4dD0gJgR9xkQn5pW+vWamzSpuMY4Hl4rNuUi0p7rpeSb62Dg+2uzj1WdEi7N/19rZzN5FiVU+XCYeXcslTOKmm5qkRNQGvTZtvRetud8db/5BcjDh0sbU1hKu+WSixEvIqnknfXesp/OTQBikajNHbeS4fNdwGsbHo0dWyEl2BFRe/mLK5mzvWmx16K57/89dg5dykmW/10VFXLJmvKfZ7nDsXtRr8//u6cUOdKktJu6ypFF6hemZxkJjwVzP7eRZDZ5K2EbXpustws32DHKLufS4KWv3dfbJ84EYveBifZS3kDyap22X56FP69tPNcPKmdDCpGeAYa4jrO/dL6Rhz76tdi47FH8Gn66USVFwWE0tURIk4aJkeVdrurlUs85z7yK/GuX/1oDOfnY2PYzwCzxf02zznxNXcB4y2B3MFhUsc2B5txO7R/72wj3tttxKxBBnpWHlKfKfOZBIFrxSCXaxVq86dr44aNuTi63YznnLCDxzpLWOnAsn/iWu+31UT4mzMx2IGZBBAvcWlI/PTSibjvX/1ebOLFu/h1l0GscKpQs9HpfaCMzVNA9iaZYG+uUhZFTgJ4eXqUYF4Tnd6X/fNibzWCyPeZf/Gx2Pz2/XFo7LdXC2J+mJRvTcH1fLeU6scbkUlZBefZ3j1HsVeBrrebp7Qzd1DCgPXxhoZ2UfJGfiVFxymfpjhOfN5o1DV+c/1edM6fi5fv/VLE489GfauHsOLtWV5qOlNhj1L/tOLrJNlNHsnafMV6KWZbhe/45WOPxmkNDQaig1fp91hHg0GM9cATWDlNRtfA1HDuZvDim3Gy1o3H1gdxFt651OjEc6NanNnBjM60okOU5/aJ7kakkCS3qkDsch0PMTyO46E7V1bi1Gc/Gyc+8YmIl0/GLLybXVgVK9ptCH6qlma7q8zFvXyXzdvHp3t5dTeJQi0hSFDwLctxuDR/25sR58/E2T/5dDzyqU/iGJzOL5IN+2s5LJA9LL5Lsu6Si6Ph2vBsK+U2MBA9FF8Xh7i7sRbP/+m/jcuf/rOISxeAqZ+OlSmXhlhxjkW/Bqyvk6iRbIwzNfpmByozc09BJzk8a7SzQCWdKxdi86vfiId+/w+je/5iKuLNHk4BEfKNpCyxAlN2Usan1zzfS4d/5zxlT8tI7Pqb5GQ8t0Hxu+SlJ2ablhBV4em+6xd/NuIn3xMbTjTbLcu3S3dk5TBmTmGDB1PRcgpfaHRNTgTVGJdJXvZcOfnTdSJcE78Ki+/ZlQ56k1y+eGU5nv3Un8TlR5+Mw/bcgMa+/J38oSPEc8Aw9553x22/8GH0XJry1IkJawEpn5OP9qe9vFvBW/UoiotsWqmqZNO03AH30BrIGdBeuhjjB+6Po9/CsXcrYeDI/avdRvVGkmXuyxXv7/3tDl6lt0GnENmDmDUat2BkfO5MHP3qlyNeOgpSNNKlhzDJNU2eZ6+hGR0kh0/q3Yj5g3Ho134tbv/ZD0ULZ8udw5p9zHMPowqfV+uubbHGX69zsrka88js3fDJ++ZasTDSAOOIUoc0KQYYGMUSp/n6NNUXbrr7H07PyyYIdXdhBpjtYdwKzt4JFaxYYjvgb4Oz12xq2cv3c/Ee+oPowFzrly/HFQzxbGsh5g7dEjPtNkTCi0tm4T0bDBC7vc9pnLP6100qVMln9h0bZk49UB0tm/upR/FcZjZXYvu+78R9v/PPov/4Y7HY5xoIG6QXDrot4BpJ0Bzpmu3OosTdgrAZd/38h6P27ruJYMqORnXuW4peZp68EdkGWRz4XHn44Vh97LHoTHQa0qzQBplNb1eBtZtSD9Buv0YcX12PVns+ZoGnhTK2lytjV5FGLt1d29GgLD/43+XYv3wlLl3ailvf9tao33IwNmakbmmf4KQ5813OE7DrpJzuD7xVJOp4vU5CE4aMo0fjid/7g1j/wUMwqWNFMjAwSTuy47KtJr6mDcShc9ZjG6fp3OIt8a21UTy+PoxJs5VB5QZGd7HVjTto+0GcPXcwcie1JBz1Srsx/6fHyZ9wzXIcXrkU6xfPx9aFi3F4cSnqB5dQDg0cDxQJeOuDk+y2TpSJr9L2Yjr3pde4ZLIrTyWmAlZONLh2dwuehrWNBunYS3TqZJz840/FSxjMxuoFDCoKDBnToVKBuuFK2ei9RJnZlQhuHDfOGcC0JyMku0mBxY932EPV7A1j+cWXYo6Qd+6et0SrWz5WkN1nGRZjDFEWTnjxuklYhVvD4Pne7CcFNbxuapDeFNcyT+XPS3mkzO42yuryclz+3Jfi0Y/9QcyfvRgLlDsC/7nNITDz+KtS1sVRlDv7eGtuMd7+G78WI5fLjZFYeMiZwToB1q3iVOzypRvN1fPAYDEZoQiPlaJgX/zcF2KM/nI/5iHt8AtBLm9szM7Hgbvuibm33xOtpQMGydle54Zt0bayAYPwiwjoInBaSGG0XXvy3uTvETRwNy9Ilz099kA5B8Sj/NvhuRrO6sXP/Ek89sk/iYMYg/zofrsWPfuEea44ZRqQRrTuuisO3fP2aN5ys7fSqdZIONk1o2G8OnWvcvFacL3i2h5wZZ1kP/4GOtLaA7JLrZwU2faTm1tb6Nz746E//mQMThxHv2xngCa+Uh4op3ydLF0W8FaP0dJS3PWbvxFxcDFpn5Pxsm5y8mqhtXWlnqWUyepaHP/8Z6LpOmD0gLOvczkl97ZH6B7aurJ8AV3YjsV33B0zs63sRchlVrTdoqWd/qi2yGVJ4tB6Ncr1pcU4fOctcfH552Pj1NlYqLdiKPwJuvBZlW0o/YMt8K48Ol7vN+9f2EJ3D4cxbneoA/6xTRC4zJWgSTJfMgd17TXAjtW65lXPx2Ugbtz9jtpcLrPou/yFkLuLkXUuGODyp2KgUTRMJhQyx3m3Tp+LE08+H7X1Xhy66TBeRSsaLRQKbwiy/3QkRYZw+PtaSWMJOPlYJewundLgFo/CTs8x8I8gCFdPn44Ln/hUPPLxj0f9zCmUgn6sig2XstYuRMiSr52cFAXqdKJiBDLv/uVfirjnHbzs/sAgD4S7ftFlM9l1+gbkdEzECQ7D8oMPxVZuxrDHANNaie9kHGc4G9252cZlmOSxK2txhTYudDqp5MdEmNImDfD0bdudrQKntk1jd/LYy8m0h991V7QXiwOmctZbLs+nCeNMwK6d7Gp1FyEsohhPxVl3jOvM6Xjmk5+O5e/dH4c3nUDC3SkhAKGUL6Nah04df40GkR389gAh6vd7O3ER4rcURJ5bxwkaYWgOgZfbu1DDaZBTIapjUI1mwRo0tOSS7QrOdbRE+6efejbWT56K2w/Bn3Nz0ZzuhKMv3LUN03akQZq2LeEs4CXc1fX9qRrjS0PMU3X5juM2fNgBKyqqeOAH8cj/96/i5S9+OeavXIkmxks6SeeccUrW+CrmUo1mJPZtRxpfcFeeL3B5FB7vO747vLIa51GCE6L+gwcPRm1pAZwoN3jsTgCiNEv2e9OVwjXq8aiyrLJasZrtmhXYfvRH5UgrTEpiju3b/Xj2XJz+40/HU3/06ehofC2DZ0bQzWi+wPjqlDBwLFXy/OGb4q2/8asxOnQk3H3KT/E511a+tN40+OS9svN6uZp8lUEDOAO1ecQ0gAeVN+UMBnHi3i/GDg6pS4+MfJwc2EafjXujOHvqfAwurcaR2cWYuQOeQSH5cQNn1EtjqE05llUQ43erc7LW9RLvyB353W/phkwDHc7UVszp/C2vxrE//jfx0O/9biz2enGw1Y4xuB5Sv8bCGtIAk1u82j+zHBcJgI6056J95FCZi0MuGlB6Qzzfkxbi5RoJlkwdkHaHR9W34lJnMr/exe827XeEvI2+6n35G/HwH30qLj/5VMyDVLFb4d5nM+8xwH5jeIQT/La/+NHs2tfASg/rmr5WHB2ybwByljHEAJ/63J8SmWKAcc6aGkXu517Z9mJZL7jaJCA5cNvt0XrLbcDs+9P9G0ySiYOSUH3FzjcdHnIor3lgNm6Zm48zOLKb62vRmOvAE5rTAoMQmQxOykm5ruy+PNyJZejfI0Bw86giu8CEwyQ/FhyUF15hgBUUmVPjO6AxPbeiQ3nMzzaj3eSeg+sy7nQAW+ObLSH7/V6/CuKsvoMYK5dULJ84GsvPPhGzDkwTabRQck74yU3flCJ5bQrLtVKSz3ZySMHPHyhTPLs22a9hNJ01unw5Vr70pXji478fy9+5L9cEdnlW4UilQ1v0TgsSp4h7vURd2zBRNfbt56fu+rkPR7zjLpgXheDAphNKUBYymdHSG5FrAxkTCCl3ww94w8wdjEs1blAIbrZL0O5/2jbTiouNbvxgYytOY3wW8cIOOUwgTuTafDPf5r9CLxna7LUWjLFy5QLtGcVBHIzW7CwlQxjbNX07hWL661op2RiHILFOubkQYG09Lvzbe+PY578Ys8tX8Jad0KPxoB1ZpIXzps4Cl4RLAz5AaJ7FCH97dSuex/Mf2n1He0a02eVEA7/hiiGfxwM/gLZwsozLi1TgwiuflIlnlEi5fjzdSUAdcLMAP2yeOxsnH300ts+djwPd2Wh0UVrJHK0inWpEw1ZhBL50/rxM5mqy7v6k0dJoV5s3uM2hyrGG8NY3MbxPPRPP//4fZTfxxhNPxUHgmQcWjUG2GwXp7NSqS1Oc7zW+etE5Exnc2cYELtFXqJMdXtxIr5w6zz3/Ylx+4WgsDJGVhbmodzvAjZFWAdO2iRm5Fe6qazTL2pPR3tno3EMZYGaAQYhdW67hrY8GUcPQ9771rXjs438U57/9vWgvr0ATa8JBBPh0ZhOVCfSrUgV/0p96Bhi6uz76KxE33ZRd7rkHN4bE3rhpwynvlbLzullDxlGi5m+dK3EJDj26PGxnHdn5wpci4E+NVA0D7Apte5jaLTRNf4A+OxUnH38qNvqrccuBxfCDCg10pZsW2atU/oSPqgRRy369RFtg4XynAV1datQimmy5ZefDj8dz//rjKTeHx700aqNhrwTXFJ2qQPqUWtG5O9HFuZtcXo2jjz0Rw/PnYqFJBEYA1GxrKDHyOoNTXF8vAcpuW9LxzKvwnrzEvYymNzajcf54nPnTz8Vjn/iTGB87ETe53pmILyNX4SxFkPnbY4CHPDPAyLkz18yhAzkMlXwAjZy8m8zAs/7ZPuepCMQ2NDr/2c/m/BBXWOisQykqwBGSP3nWXRK2wMOI+m5619ujRvn5zLSr1Gfc1MihuhTo9L65ahXkXNu9dCg6o1Gcefl49LfWcMiAQ5BMWUBpiaseiqOHAYfn3ZL0JA7deqODdSpRt4Z+uw68yHUGrVPE7Bpgy/XTTag2XhCiem6XdhlBW2yM4wjAOrHCqGJmhyiSQnK8QqKCrDS+CDBuPkxidy/e8GglNi+ciXNPPx19oqwjruUdaWCauE7N2IE5KMjqr52SyQruCo5QIGCtjgION6E/j+H9yjfjSQzvsc9/NjaffS4WEVj3AE6loVKru3xDBV+QaBnXTNSz62FCercSvP0nfzIa735n/s6ZRRpg2p7f1oUR3ogsp2uYZoDfLugeuNO5kMBCI9xmZ2vWpAnvqCrOt2bjB7xzrInypd23QYt5aGU3Sb6XSkuFCMOo4Ksj5bYag+ivr8Ty+YtxcOlwdO+6KyatxDDP8G7ivNR+vaRAWFeftx3u85vIw/seiOc+89lonDgTByjCdXIqJylQSvR/kW0UwHVeVOdfRrF/Cfl4drMfq/zeQREOAcadz1ID0Qq7jkejXtxZG+Dg2bsBvRVkiqsUbC4t8+gYCIJm195kZxBdDEkTT/n8M8/F+Seeixn4yL2c/S5w+CUm+dTG65Vy0BNXCYlRQTByea2URouUXbpDGoAxiseejrOf+Vw8/YefjNWHH4nG5WWiKwQS7essZnlKmZI+Au9RtWp0k0aVrOH1c3dlrTQQUE+a6JTDQh2zfD5U6HlkFnpsvXwmTj/6RKw8/VzMu1RQOYR3dVh2aGc1QUjjm1HvvpTtUW+DDjfRcEYu4UXOcA43zvnaN+P5T306XvjsF2Lwwksxu9kjCgdWlJtLn5RbZc45JkKYrLgv7TfA7aWb4s5f+UjUDxwi8kBhAa8LXWZU+ghmHWI4jPJaMrQ/zxAlaXTznJzbPUobsp9XlaFq6/24cO+XYubS5WjqQBpZAbcT9YbqRPDt5LUxEfKV55+Psw8+CL+ci6VW0WWiyO/12ojcixgn+kbkxW1wxYev1iZwfeL0dFz41GfiiT/441ihnsXeBrjrRx8+t45cYkNUnkt/qFjbkQn9PdMe4VzhvKIXLx1/OV5+4snoYRRv9rumzXmMN04odbriRVon3gX+NZKGI5tA+fK+ye/FO98ietwk2r78wMPx5L/8nTj1zfuiu7yW49MzBgzJr7wwpWvJ/Clfyd0GDkSti4vx9l//izGyh4brbnCUo2DgXwdYepXJtlO6QavG8mpc/Ozns7vZYSu/MeByQs2wsu3yRHfZa8ErW2u96N50ILpvv4viqTu7b6wKB9JhMXvOKsHG7skjbjSVs3ixGXM33xRteH3zzMmc0GvvU7aGdlFz2pZqxYbHMUHDCrA8v76Rc6gcrrRXszGj3BYDXHc4xzIs6baf+KglUli4IhSkDwEen2JmNgYNlPBkPX41NuLXW+O4p+3+oLzaF4kmQZB56vmNTVMHJeg3RhttkDPBOyKaGPR3KLsVZ4eTOPSe98RP/KWPxm0f+umI22+JWDjMWxDUgvbmvUkFI/K8rsdilyZGPl5+OS58/Vvx/Ne/HcMz52NuhOc4Wk8hNpraxjC6sD8jVpSpUcbIbkiKSaXmg5Q5RSmIKRV7UMnJRn6RqL7TTKT+/N/6mzF4993hp8X8Mo7LBWQy44E3Kk3A5bA1E/MY3eOf/VysfvObsUBkaje32IbMBebtNjaoH7Mw5VZtLh6fPRAfW7kST4Cqe3qb8dePHIgPwrlL7j9LuToJQAyslONpJqNDPNHRcsx25mIdIe3f+bb4pX/w29H8uT+P05Ed7QVfIKmKJsvripj/e0V8ohAp2N+Fn8EdtNj8wYPxxMf+IMaPPBUH/HAHVOghZUYZpWvzaokmN3oZtzqxwqWjW734GEHjKk5brsvDWPR4p2FvS2+LaLVEmrf2VuOvdcbx7kNH4ghKuTUiMqPt2d1KOdLVb5/WXTwvH8DHI3A3Bk+z8GezNovDMR+nejg6hw5F40Mfig/8wl+Im378xyLm58izMDmINaJB0HKdNjA3U/OJmGlGoecRBygGyAMw9k+cjCf/7PNx+r7vx+HLG7Ek724Pws9NTtrQA/h1WJo87lGUmKVR4c/UDIl7JwWNsKo6vg0a1iQ7Llzh3GfFph/V78P380QiKiI3w28hyz14aGOuG5dds/j+98RNtHPhrXfF4VtvxYigoFEehHU2rWSTR6K/ZHENxOZa7GysxYVnnolj370/1p87Fu2NfrRRTnM6PuDfj6vMLs5FH1kduIWm7VNxoxAdx3XiUDrBNpKUB67luQ4zhm7SPRw/81t/L1ahRw2F77yCSQc6TuxdqWRB3FDQdVLVFPGaa3vBqypFGfdmAxkaXroSL//hH8QI41dvosOQP/2vQWj0eAzc1ajbD3K0QcM6cthf6MY6ufX2t8ZP/eavx5EPvC/iwAEqoZHdeUADp1Xl1dFUgewRfeSywMDZHJ06Fce/8c149rP3xuLKahwWF1vr6FR4tlWPdbu8dQ772zFP2SOcu14DflQ1JsOA724/uoMmRrKLj1WLAXjXaR002tG85+5471/5y3FzfskKg6fjpQMh3TPtA1b4PM0giUxZsdGLOHc5LjzwSDz+te/E2aeeiLfXLgEPfIz87CADfv5xBG4Leacagh+6iwYOOo/uTlbrIOcLi/GLv/X34+zifIyxG7OTenalSxqTNHMZpPh3boZLL5ePHY+Lf/jx6PU3czzaDz100li7W9oYfwgdQmTernXikjb2/e+Mn/zP/nrszGGI24u554C75TmnqZlOMPqEMpQzdZhbLxsnOkhxoLUd4xeejoc/9YlorqxP4ZLzaJWGF7hyBjswenQ//ycGtfjTs2fi1OwhcD+XfO9WOcOm+qjwcK7YsKRbfuxXs0j/07FxsbYKS4ByWQsF3zrajJ8jJv+lTj3eRdW5DIkIQvo5xoelTQWcHVMYO8ckMckoBwhCLVm2tam88DL0wA4cPBiHjhyJ3vs+FO077oi5I4ci5ohg5rux08aLwoNU//jZrp3BKObxuHpXrsRweTlWj78Ua0ePRVy8FJ0Nt3/D8AJDHxjX/IwWlboVXq7pS4+rICvFFThcq6hRqbtJOg6HkVUNr2eWbHeh39TcaO1EV885sbMnpfJ981JuAL8vVTMoq2T3JC5OzBMJNFCO/dluPFZrx5+sTOKRmQNhB/K7auvxVxdq8f7xVnSM9GB4PcURmseRDJkPNQ2dBlGfOxxbK72Yb8/FxcEg5j/0wfjJv/tfR3zwAzCq+2RhKNDBQzRPma+peS1jaHZVqxDzy1Uw0Ahh1swuyMEI59O/+y/i4n3fjSUUjKPCdiurNGaHZRcvaePOUK43d1crY9XLGMNHgPOrq+vxzGQumfxayW742yjn5+dm45eg5e3jVei4llunbnG9MTNPpNuE7wZEfHq+JbKUN1LAKd7eDg0cspLKJAUFZXro7XfHwl13ReuO22MCz84sHYht8O1XkybgyyGXRr8XDYxSc3096qt4yydxDI8ejYunTkasLKMQ7SpXqViv8qB8FeEtm8p4DwUlTGKAMu0Cc/mDk4EGbQxncycuDTajj/C+pbMUBwY849pEcNlDaAeK6vRdWpJtsa5cnkW5lULzYH1WVZtZ5IiTBc5mDy7F3OED0TqwgBKD1mRxYm9Mt7eCs7IVmyigrdW1mGDQ/cqNEa1ZD78oV5SR41zkCfylUiq9LVaIoueZVKaclQ//C7E8g7NLffJUth16aiALtFfTK3/9+6Xce3qfLA81eNTyyqu2bZoAwHPb7Lk4lHecKTxoorhvPhAH3npbHH7L7VG/9a2xffuPRRuerPklLPjeCUY5ZwRnxWVEY2S3ffqFGB5/Pk6/cCxWT5+PGSLxLo1PvFqf9VBdDwcwsVVdTxDkHfGrPHNfXkQvC5fvVHSuUsUD/YNHIu54S9z8trfETXe9NWZvvTk3O/KzfI12BxjhbRypdYzTBP3b6PVie/lyjE6fjo1jL8XFZ56NmcvLsUD9Y+R6DR91AafEzWQ0vH14Vd6xS9xxZIF1s4sS/V5NFT72pjJv4pXpRnTiaydoPHXsdhM42l/+a6V9b2VqqBy4I896TN2BUyKvpooib+D0fhdH/97TR2O5M899HLRRi3Y285Olowb4RBerK2vbuBR7DfCwQXRIgS5vcK1hLuw2DO+vx13DzfjgbCv+3NxMvGtyKZpgeEaDZZcGXlTfLg0AynXCekooAb32RL6/hB1EKtCqWbtAMjodQfAsAyM434kWnlCt08qJNO7R2tvaiiFM2dnqxJYfT0iVj+ofcw2Z1pNqUk/DLk2Imd3hHjMXRMnEdsf5jV3P/eGHCBJzCMaEd/XcZSA9E6MwvXQ3syjQX03Otn0z04DoYX+qdnWpku1y9uTSaJJbnq13F+LBmU78m7VJPBQdnifyHSzHz0PwX2g3426imwMDhAil6JIBXJRkIXE3k1Ei+IZAxIKxjle9ujAfrZ9+f/zyb/9WxO13xnZrLpmtzrM501ghAy9ix5IQXZgKQ8w9x0NS0F94MZ7++B/GiS99IQ46B8DuHuhUFIbbZxbj5y4zOgOd8ZiodpS7+DyLMf/Kyko8hILaah5Jel4reddvPL8Lnvq1xYV4P1K/2F+Blr1wY3kj5wF0bZlTI5XyBJNLtB9+BGjHj9zecQHjYlf6iGed7DaCP40eG3OL0XbmNFGITty2wyhGZlsbMVpfickmHjJ4bgGLS/OM1dxlaBtelu/Eizlrn8KxqyA1+gmDDuQ2zh+KXjuH/F3BKX16shUPXjiNkajFLxy5Mz7QmIuDyMYMCnezPQFPll3HsIl/jGAd6lB41Suh0rCuorRLvR2iJLt3c8kTd+wOdfOB4owUBZ7DIXX3IUcv8K4zTp3XU32FR7myTTpOfq8aqaNZAJ9H6V3kUJnSqW8iZ8phSXJhQQBFJEzWaaoTDeXs5D2p6bDAG5RS0YPnvcl2C0PqCJKgeJ4gVUeSzklFS5MHA4sBFzRA7oJV327B093oos8683NRdy9tx2So103/e+ubMdzsxRqO8ghaufVr7oymHAKEZVuf8Fh+TgwCOeoo9avOTdJpV8fl09ANOTNVwE7T3nZkcMWxD8wTdHdtrhv1NL7d6JAb8JxyPentxAAYB/D3ZIj+wAEkBstx/zZM4IRIP9XYp72zVGvwlh+0IQtO9tBwTZomeNmSqyknKu6jsfM09jtGbk36wyRLdkvJvSnnZUyHXK6VRnZN74NtG7zozNom6WOb7CV1W1iRayiy2erGFwcz8U1kdaUzh07Epo3KkO0WXvXYLXPRD2XPgn0GeEDEoAeq1+y4EnETV1GWIGquvxk3A/d7OqP41fm1uL0+H4tb3O6jwDFieoB6sjKHA/SIOYgvDC6gno0VPPlFjwYiOettbmuSU/0V/j6KYBOPKmeyQYQ6TJfrVu182MBIGLkSHY+JCoYTx/xQWjRmTHa6u7DOZLeprSlZOMoxmymecmDdvaVHrdkY4u1t22VOiOdeQSpCN7rXY9+pb+S7e9N+hnmj035ja5JR9yadC/eQPTDsI6y1uNg6FN8movzcaj+eh4FrXfA3WI87EJifxbP9xYOH4h3jXuwMMRIY52IkwX9qOwwp7W8hlHbTtpqd2AQHFzDat33kF+On/tu/FYGXbOTa5nqik/o15Iq6StnZovaCTPDSXQzvvqoP/b//Kpa/+s243THOtUsxg1esUpevmhhfu5/dwaZnRIqynodp4bI41VmIb25uxdfX1uJSB9M+cSHGtZPNkNeWMH7vhDd+4dCB+MnZThxGadTJdkWP4c/GpI2jAV15p0RnKMvpsdC50Lap42U0Lo6IdOuuDBgSZ8Ar5uQqHt1y5i900PmrUX/Z3lQDqtCDKHjFddkDt/PLOkzlmBNNppfkTQ2ksOAJpgzmvtb12Vhpz8ejg0F858pyPGfXOvX9BFj/1SO3xPtQns3NK+DVLm0KArfZ85MG2IUXJuVY8wny92Zu6oXbV6VhqJSeHzL3PUlqErIRAo000yRajgEVTCfJCP+uodAAY0aEf0cDnEejGfFr/coVDgKRi7sYORzvzGjfTkMOEXWgdXztFegM7UETkjcnZeQ1bXOV/NSqvJTt43ceqzaauSZeNtPZAWYzsHsurbOXjfs+gwaNJjKTDgi4G2Ps3Z0tZ0rbZmpw4tYW94YUnuPTyLnHSgdYTuFt67FHj/d26yw6rTyj48gRoKseBuE1VXBXR5NBkl3f6YhRVw7veJfCVNk7OPUTx1uhlwbLGeglY/RxpGs02A822GWcqdGFl6yDtkI79ZO1aYA96ihQYRqevem1xp9zQuD0vErOTXhVukHeeNVTXJAnf5jUb2qAS2RfgkzwoRNSK3xuS1bBxafXt+NhdN4mBngbndOe+GGIGjobPkgDPIGWxaWtzx95x55Z0BZCMfxLED1FeLZB7BgibaCMLqN0ejMotVon5pruaAvpth1zwxfAey9soTDJHIVBMnHUgCZBKTO7gLhsQNl3TAyBrbW5T240fYZ3U6Gp+PC2UDZ+CWjMsztOBIFHNcRGsLlsAGO9rTGlUVkwnORSDRdrm0s0jhqBedwf149qnxrPxJn+JFqNTnSzLvx/7hv5W5YLHyrwq1StU3uzcm5IoWe4J+/vprEL34noTYzqEHjO1LrxOI7MixiJLcMTJHSn4feV6zGYdqMvtvBSuV5XgMCSSFIpUkqOMZU1atSHt2lE6we9L509F00N/Z23RGOxi2CJW96RfrwvhvQIE7VenhAhnz0Vxz75iTjx9W/G0uoaBmINb1nFZPeuggRtMRQi1i/8SEvh2QGOK+2l+MH6MB5Y78cZ6DPuLuam7vtp8Ook7kqvxQoO3DoKZgxPuHzFNX6O1TsDQCDdCtJI051zci/jbHcRHp0Sx1Sdr6LuMItrEdjAudDIptthf/zOEAUqL8G3ZGetJ+enscGlUBkl8yNkEMs2AyW/SdJzeprEIcmfcN20S9cNVdpxrtmNh3uD+P5aL45isVYxyNutdqxt9XPJRa3VwGFq5IdBcocrwSPZ05HGj3pKLnjX+bF91SYe0jy7i3Vg4Qt3STM7CdPsNozmXF+cSkfnRMNBefBlJtphC1DPqVTK8ih4WKUkvrgvXkv0VgyIaEnDknpVQ17w78N5Rvkur5M7XyEfb6Ts6YTuu6bblNV7AE7B07gKs8fqt/C/4jqZEnK9Zy7r4gFMFJyikQMX4EGUzfAgJj4L9z7Ylyo5rindc7jAkoBFIKzH7Lk9Ih51YtOR5dwln/YmiG+3YvRTsdVOTRVcCTPZxM8so0xM5dSInIIcc7dnS8Ou+nD2dwfZcfvRRgd4kJXhpM97o2i24FJpz3NGks0G0V3VNYuspFHPX/4Ja4nUbfN+h8pgJj+KsifnLPx9dN5PJ/NrTRZ8deLdV/GMTd77+3Wyb++7pl3IUi2DVqq31IE+q/Qb+a8RAH1vpR8XhoMYNbCO0EOZ883i6OuIJGRZwq4BthC9Z4W0ElyT3tiEiDFnexE1bvDkmeEwNhBiP+W1QETaQYjdRMCtyKb6pBSY5UyZiDTCqxVxGmEjgG28rB0HzFVyEFMB6PeHAF0UmesnbXh+IWXch5NkZNlWQ5/iUhoC4fyepZdQ74kYu8H0xLc9wgQFaRJuJjZaC3EMBffgxlYc749jaf5AHATwlhNGYGZnsgmTHtsU9N30Zhtg65Ph9ub9yaecHOaEuQ0i1qNEHk/0duJc0gic4t3aE+DevD2M8jqRU7fbiFs77ZiFlnUUKpwJbpyh14gRhnyEcPlN5wlGdBavyK9HOfPw6NEXcpz/0NvuyO+H2uUls7mrkrZL0rk8JLuzL16MC1//erzwZ5+J2vKlWOLJOrDIt8WgWWfxklVEdXDuGKpqaKU5G08TnT4A8x4dwsztBbxtFJptmbb79VIaThjd8sdE7lfG47jY2yLqrUdnljZTX3NkJ6tKH+Wno4gzt+N0S40Ed+Sj0o0HP2pMjXbBg0Jiz40bSYxgMBVKzt7H+O3oqOEB50YM8LRHZ44rljtGyuKXc3sWLLu0oxyVk5IrmvNmgtKK/sxsXGga+Y7ju5dX4yXAHLUWXYmTpRt3rCDgPY5tvOxZaN0Fwe4LXpzOIoRZNjgsY88qApwS8JQbF5CdlTlSRpQn3pnBUbInSYMhVapceksoT68fnnApVyp1AM+aONqGUr+WwoZINyib7wobdQPDEJwOwJuwtROOAqsGQZ0jfO30fJRx/0od5tdaIvXDZvXQ/iwMVVsyF9D2yCGZa56lc+BNEs3IJTX24pk1rUJvj0E+bzvBmHiEzBXLUSdHHEwNbwO8uGRQOKqq8sAzGtI2PC1dlZ1i0IDJsvlvDM7t2VIY/XKUt72XNLMOkjBWxtvlmPKmcme2l0chzfF6nq+067jBGbJtr4hZh5YK0cU8BC13oNV45IRKZUFdL8RKDFljakMFgtLK5DfvX03SYa+eM6v3X0UrytpPqxtNOSz2ivcoE1j317E/6wz49N7chIe5mfIhYjWks8oWeJCnV9EFZ6HjD1YGsSo/YID98AqcnzQBgnyvDK1YDvf2RsAtFGAuhQAJFTLtqkAuCwNR76TWxIB1YxMtsDVQgdWjS0ULzrLTCA57OSZrt5YimFXZKITH7uRk5GRMlR739KwFEoo3kN0uCstZ2G04xS4M7zkm0oGAentXvVHKtFkWRTlG1Sow1z5qyusAWyOrWGyokc8Y5TYkGvkBHtt3qc8xxrNcn23NxlvbRMGDXlH44HlMJTlmTNmvSCLvzcw3kMRBcwA58bYutObikc1JPEUkfxni2wUlbnZwphpuig3lVmYGOcP9CMxyCLzaZWw3tONybSfHGIkiW3bBzcBEWOFUji7zMBI6f+ZUzIHfhbe9LepzXXBqV6wsBCnB1XAG52t9LVa/+LV47hOfivr507gEEAOjLomym1eYyHbZuMMTxaXX38Z49Gc68RRwfYtI7yVg3uB3Pcel841S0TWSnOAjcBd1QGfwsMWFFRyPnl47be3gqEhPP3yfxo7chD9y5y7eld+zBwWc7G5pCe+VdeOKDznlopBJ770INLkUsNvGfLY6eqD9Hr2b0SB1uCpTY5MRC9dyTS4O7ibO4UuTRnx/tYcgb8alxmz0/aC/8sEz7q3j0gvnAPSg58qmEx2RGXihjeNoB7trpRX6NHr8uawmI3DwPQWVDPy2X35RPr1ue5RPswp1mnO8t7plc/zPVB1JOrkKcYMHWzRbHpO+avIZdMO43Y0VGnGGvFFv4uR1Yk784hjl2DvvSAOXuMwR7W9nhdbFM9O8KyNvRH6NJF6qdLWNyAH8Y09bifDKZUvwXLjNjvvmuXjleolsjeRLdo6FWb7KJTNVpmyfT6MtXJSR7Z6eigZ7Hma23e0NLczDfsXLya59HOYhjqCbErnxRzpw6Gc3A6myeJPWVA1/IePaEPjCjxEU54z22RgyjxS6Uylgwkvcoy55p+n4vrZBfk0uoyB4eIb6LEDciLNc2uV8GoHXvKO3O/CtTqh6+PoJQG6AVjearHJvzrS//NfIe/muyp2Rjos41KYUA9wZ1ggsI3rduTiOrnzg4qU4MUH7uRYauasre2DMIJLHyfxxkiaQ668wwBo8iSL78Hb5p7JCSSn82U3CHY3rEC9onUhlZUDYPYDYKIoOhtjtx1rOxINh3S7ReFXg9fCg3i5jSXSP6bEnoUoXRZVVVvkwWQEVGAW0ZBVthdEpnPzJNG6HZ4TnB5/ncBVdLD5Boa815uIYEvJEbxBf3BrF4yi7U41mrDnhACVxBEFYorRZsl/REPKiTP/DSwpNCyW92iFK2twmkh/GKQi92cQAIwhiVgFpQiMFfKMVuYShM9iOw81uDh2oVPzQeAdF7sYribspvhOr0MCux3azGYPVtTh//OVoYMSW7nkHzjLv8p51bWMQauuXY+XLX4njv/+JqL94DKOqUeN9CirrHAu9PDo+5DV7vxTs0cxcvLzdim9sDOJx4FvBIPu1IP5PGtiFdz0y5LAByl/+FC8aHg2pEeLyoB/rSEgPOs+hLObBjSKhYshuVp6Rdwpsdrs5WUs5KEKXSUXlU6mwqiyWS/e5bS3WjYgBo5ZrdeFDu3ftGhxyLm4tw/cy8E6tDV5UaipDaOmQyMO9YdyHY/jo1jhW4duxMyX9U+gdaPNLY5SkAh2jUddwUs4OtmIL8dJISE9npOs4zPBMTc2bEYv01Vhs51jUgGzEWib1CNc0l9ryT/kSD8Lsu4kKjvwsaXrNZHMGTWhudDykbGDz26/jWjfW2ignXnxw5Uo8fHkl1nCuDswuIZ8UAQ1AQRoHixP3XfDgF9iqOn+kiTqrarOt8Kp9BE5Oy9335Hmu214jUbMo9lnfE1caTbE0hCGryX1VLsMfzvomZ1+kL8p/1gVLWIiXuMWjmX2sD93szmzOzFJfN87x4KMbK3Ea3bzdwJmpz6G/McrwyP41vjqLyncaYY7Cp1GH8zhXBtTRypn865yeElE7LKQeyf0TMvMyTyeAeSzOw7bzO6jT3pFcn+076Hs3pdDVbI+LA+gEtf+Yk0FhrpSo5Fk9AM576NRzrU483u/Hwyur0W9k31/SVUwVgSnveCqdCw73GeCdmmOexUvPwvNxFYtKhoPXrdiZdtwaIzkbIPg8QneGyHOrhcChsHcAyMFdCQvtyRyNpiyDLB2q8wGKo+wRXRSzXb9OzhgSdvfNzZmcAJSzUQnzSxYRlE4BybgWRModSTD62XVN/WMcgo02iq3RjUcB+bsY3u/1xnGqNkuZc7QFNQ/D9HPm8SQ67VYsuo0jzoaRdDFm/+ElxyLWF+bjSRTst1Z68QJt6BHBO8NYL1XP2jE0YlMiW3APpvt9lC40UAi77UZuIOBHGRzXEZdSQ8G0y1Di1juuuUU4HWMElw2U6vmTJ+P2+YVo3Hpr1Nt42uCnvrYea1/+ejz1e78XtZdfinno6dhnzhZMTpNOmKqkTanDDzBsY0gGndk4hjL+1sognsSJW3GDF2imUzbe7pH7ADTVzNdI6eGjNNwj2Qgqo1cEwNHuDTzyFQzQ+ZHth9c0srNzseMe5fIhWX4Xb1aUQzCOiyJkKssyTqwzQfbIM9k7xL9ccpNHMvdTyQJ7jr/azY1Cq8ZClSVOM+rVFBulD+G1DWRmFW/EYYTvr/fj/tX1eB6YV7k+QqHlmlXeH0HHoQ2EZrmHM392lYOl6IHzi8PNWN7c4ryVS0pcizlxTS+8UtqpQrYttouswwIzFFy98m/XGIsX/lTa2U4ylzJz2WL3JOgL7nSbJkRLW/V2rHaRPZy2hzb78f2NXjw2GMUp6luFHuqFpdnZmHUL0BzqsZtS7FqPdQp0KflHmazSdu22F92z3cShE5+ci4uGDo33ppl/mVN+IBH2KHHnPeVAB8cx8KrrXz3qGwXXymypay+eq0I9+P9odj42Ww5NdOOp0STuX9uIh9c34/jWACcM3dhYQGeie1vOz8mXpg0pODXJtruJ8+RpK89uCvlUfi08ax4jm87bEK7s4fBZctoIc+qY4szZw+k2xvZ2DNqzcRa5fX4yjtM4U73mAnqkBR5evcLjP6aUs/nFA22XdhpZ6XKR/ODGRjyELrxYd+9FPxU5/fNxklpYshf6ikFoT941wKqWSaNs2pDdJFPBVPiLEuEOOWfcoeyy2woka0BXkfOLEO4UnvhForFBbR7hHkZrtIX+xB9CCagATJafWVpy1LOSCa0vu+Q4NyvQGTlNjUqX8F9GVqmrJH3X/2xU1bDaEJ8NGrvt5CXcxheRhsdgrvvxTO5b7cVzIyLe9mEi+Pno4LrOwql63C4fWHMcFEPs8pFFirbbRK/8P8S01azFQ6ON+M5aP57aoU3dWWgEHlOhyuhEQjgQo/oAocSxyCiqE+u0ZwshaI2HcRPGcEnBgpZGsyoMvWLHZCXOAJZR8QzHGBLHeah3Y30tzp48E0sY4e4dt0f0+nHqy9+M47/3yWieeCkajc3op9lrpSF0trNE0mHSqZJO7tw1hzOkNTqFAH8PxfzA1k5cnlmg2nY0HYek9sFMP/CPKMuar5NQHC6RSv6g7b5VjH7pjh6Q1xCWS8B7fjCIFdqmcyVvOqmoOAvl3VScOpjTiCAZFdkoDDc9kpWHdNCUi+TH8m4VXRiN22ukmGr4/K0Slrd3UFJ9HKBlyn4JmXlxcyW+ttyLZ4gIlzG8/U47RikvGvXicY9SIRqxTOvmfNvQSPtKk4cY7SujUTrDl8d+k3sTvuZ2oxEt5LRBWTlZzDYBk3MkZlwnTwGpEKbZvyRUnpW/3FRBXvEWd7iUaXrIlDKMfLnX+gaG/zR3nwWeB1bX4pHNXhzbViZnc39cN4fob21FDT60x6xLG+ztAALaVZxwu8b3lv+jSFV92U7aq07xO9SuzNgYOIhTHNLFfqGDrFG941HOq67ZDoMFTZW84V3Pcxle8ibKPHlP3JU6s74pnl9RMGVt4qC9NN6O+zZW4xvrq/H4cBybnaXob7djuY/u7Q/j/HA9ujuXIelMtDV40/Kzjqoo4Utns8h8WSfur3JfKP3n851xMzroFDdRye8EkB01pgU8OwGswk9G5w2DHu76idDTk0k8MdzCsV6OJ1c3cDBxtNDJN+/8x22A3R9CJ7ui2Qi9cha5e3R9PR7BIXoZptlyRrj6lvvpaHGSAQJITRrD2zo0ylXqnMXDd/1DGb/Q2UlUUwOYF4r3bvKFcpFCUJypqDjXC3d6i0KDysQbq8UZDOHy9jBWgXSLCNR1pI2ahoEKIU7NGZwoasfhJnro03KzQNLeiU76+gLql3H4yc1sGVfLMV/iurd6Lb2Rg/ESZT4yHsV9W734Pt738xjay0S848YirxgporxQRkbmIsMlKlsorrX+CAYiqm8vYtQWotncjEkLCBC6hAk4XD6TuACYvYrrelkI870byP5JYAU3BZYoYguvchnFfRIJfQ4B+vLaIF4cAmsT41tH8QG/jFFKAD/g1m4uI14ntWiCHf8ZwDBDDKr7cR/qzMUcEWF+MxOcOPaTOOX3yLF0jIE7itml2yHaVti2Nzdj8+y5ONLvRf3lE/HIJz4ZcfylWKBsZ31O8ML1DO3ibarwhQbhvDohyWVqkzg7e1s8SOj26NooLqC0Bwowzws3VEk46rZLrZStev2US3pkU3Cjw5aKTBrzR2soE9ohLD3aegVaXAJXF1Fg5lF7LmccR32WtroJAXXSjqpWDagKJ3fu4bp8W8NBQL1GQ+cS+ShqVuVklnbikHeNYDW8tLuWbWzFFaKEUzg8zwPDw0SsD61vxBMYqDP1TqwCW1l/btfdVBmm5rQVnFKW/Upp1gFOnsyhBBRzjYhzDL5WqfMSxuJcbzPO0r4rvLNFeU4SUdbEae51TAHKrOuwi3EHW8o69akwigHMmoDFzQNKO2Vl+dPlK5ank+N49CbydbZ2Uxwf1eOJjUE8vLYVj6334ihR72VwOqR9biklpuwqd9OLtUEPeIcxQyS8Q+RuG3AXkDF1UBnG+FGmXOrapnkAABX7SURBVJYHjUYYr1X45Ty4fb43iCdoy5Pk4wjQJfhkzrkkwGrXr+PvoCgjX+cYlBbKv9CJsuAQ2pFcUdrOdZgxs3TOD/6LY+p2bNhdkgJHdILR2iTavcgzJynu2yuDeLQ3jqd6wzjDc/LtBAfK4ZrUu5R+BZw6+fACEfEq3usW95Qr16LbJS39UtbJ6j4nSTkR0uVFFJG0L/QF//zfxCFUXhNy3pceOanJM/U/sMkDW+indaLlk6OdeGrT4ZMhsA4xSM24guO/DN76I5ytdi36tCnxBo3T1lCWvCbPadyK9rt+ym52dM2Quldo5wV46zTlXaaVW5xbR4P7TcotjSrcBNivyvy7oTSZ0rxfpz4gP0H+/pXV5POz6Eh7fQbgTKdeLFG6rDE9N5XWVcM62fY73v2R6u6NJQhxI2thm7GV3wW9BUZ+O4h4Owh4W6MWh1Fii0TL3dyOcCc23fRAUMBCAsS7OS0+ASRx9JrKBm2DkoBdEX4jvh087T7KfGs4SgK/hJf4JAK8jFCfxWu9iJLr2yWHYq3jlTTHGACisq3WKI1TlaynC6PW/fgECFwEkQfQwx/uHufYjAPTCSOtId66kw5IGm6Nm0nhu16yDtt0veSYkgalzA5FScLkqxyXHbOmPcfXN+MUcJ4hir9eEka1Q5v3FCSVpd30LaLAewDmlxcX4oM4FwcnV2Auok7DNK4bpToBSlwLuROFjKrVDRMja/LSIs4M93s9R1qvphwTg7ta237rF4GCMbdn3BO1VWiGsp9MevH18W3xwDpR8NZK9AiBetIDBZa05jSFg3OP10vJKz58nTQEl7bJTe8dp54DxkMo+rfAo+/AwbmT6OwAwnNzxzWoRMEox3DSlsZ3MkijoMHVINv2ETylcNFMVS6AYOBQ3qlkaas867aQAxhl3QlIRCkn4fcz8Ng5GnaOF9fhp0nLoZDSBfvDpFwWsifpSIlnP5LgpwBvIfq4DZm5jePtOFWHUcguFW8iBzVksQmsDXKTNu1gtOVnyZFOoHlsf4hDRRhO2qZSHzXbsYkSdOOWLSLdlUk3jvUPxpXeRlwcb8UaEfYQx9aNUEyWlSSmDFCSuPQTld1JHx1Ri7egI+7uzsVtlL0AMoWtROs/urSDbtBRuQxNXwZ3J4b9OA3NrkCnLWg4Q3Tj9p7vnWzETZ1O3IrjcAS4l8DDQWyqqyj88pf8grjBE0VXqNxSs8nLXPe/MoEPfOj0yJM8WyNPMCaXcKgucu0kvHeiv0lk24vjO4vp6LjPue9mECSf7UnZnQySmwQfi+D3lsZM3NGsxdtmW3Ez9RwhMl6AHk6Q0ugLpDOM84iOSEeWIipZcgWMhlapzJiX+motjCc0cr5tD7pvwtcn4bUL6OAT4OoURvgirdlCXznJU2Mj3efHG3Hb9kbcubAU75hbBK52LCJffsHODY9cH+vQiOPYpRfr9ZPg9Ymmh+Dqynad6H87zo224+TqSnTRZ7d3u/G2eeogeFqcrFE+cEsD+dv3wd3eRLWpn6+X+tud2IR/zyEPx7Y24Y9BXOBdHZ0RtHPVhgpLObrR9KYZYJWSysmlPHO08CBUPQKD3Apsd6LwbgIp8zxzS7Mv26UCKLOkUfYcU/AppzrqU/RgkjXyCoWvwQRGM8swwCWU2upgCOEncREj4cfp7XZ0u0C3xXQyip6luwRpgAcY/70GOOug3CblOs8lx2twFFqtC7GAAV7Cy5qjjA7XfU6jUBlgi9FoXy9JYOu5VtL/20JpKUhuEm+bVfd2nW6gqNfw7DZgakfq9amvl/Qo+b94sQBtl9gMCqMO4yxtrMWPox8+eHApfqo5inmiugnKeIzibIK75nAmtwu0F8Qd0sRXc8i7LkUgGXm5y8x+ZrY+3zGSM3q3O9aJPmAqxijYizhEz62tx30XZ+LEqIYBghZzeOoqon0KQDwblFwvidfqnWsm2p8RMnxiv40Rt1/tmoOmS1R0QOVPhPgugrU5CpxrNVG4zZiDn9oT+IG2doCnRXaGKW5GGl5dSNvrzmCOm/dQan2e94tilxHK8/DHGo7KKo6TXXRb8GSfugbQ1NmsKqqYMarej8sbS/sNcJlDYfejXYeT3OLTVQQ5OgWe5lCsKqq7gPgQ8im92/CFm/hntyXFydcpF2SNrt8e6dPuTfIG+FjGCVvZJsIeDmMNfhpDy+YELqKePnw1bhMdAYM9ZNJGPrDcQlM0Q2YcGnsV3P4UWA+Ch4PgY55jC+V5Ayz+hqYBzmIPODaAeQXKrkGPLWGGTmqE3LscXNbqV2IOXB7CyNzMvZuR0VsxzLikaeDmkJEObWvt9FJOnL2sbnP5ixFkrn3FkHoc1ucxJq3YHIFPgogV6j/Vw+hCl/Pw5hpVDprI7Wie0g1UzAUxaTz3pBwebKBFMIw6wMI4B406OBOH2s043O3EQrcdh3h2iXqc29GF3zvgfA65bMOrqMZd2o9qQ4w+MHI+gHBuXLtG2X2eWxfeza1YwUl5Ged9g3at8cxWow3vEcFTpk6Hesyo2+VS6oUGhnoBGTgIrx1qt6LjEptcRkXmfmtsT6n9P6+ftCu9mbWEYwO9vuIwHLpxjHO5g/PRhh91PBfJh2mMuxe6ZrnaAWu/vCRo0/NrpQ1g71H3GjhdQXe4JFfn2b4hAw0DlfS8oPWNpjfNAMfYLicIQUAwALnDnX60McSz42Es+lEGgF9CEd0GkfO7Owo/jGoU7PiFCJEJPCqo/Z1VFBoRMwyyTkPXafBlN56A0H2QT5wSI7hnjLHI5QIyPOWDJ4wmXgm5jDPbB6/wS8iSTc74zSUDlCMD6mGutkcoJL8J6qxj8Er9Oxgd5bBEegVGCXi9dKNEHoADocqZ4BWewY3zst3qL7dDo7DOyF26rpNg6OxOtD20Q2dkTMON2zqDXiwRqdzebcVvHmzFO3nogMgawWItQ90adWjoETicJGdXzg4XkvYqgG2MlmOolSdfpRQ28gYKfkDE1ULRdDFETtC40p6PB4b1+PryRlweQDdKdw6Bu6gNqVv8iPvE1bTYEsVfO90wDeAJH3NGq99H9aMnnbbf+aTdRHJ2ALix++xoNSPELkZJB2yW5+Z5t4twtWk7LI0BBo91+Bt8OjvWb2j3OW6gRDcQ0E0VFQJr99gqbU9nhRaqDFKRmqlLec3oo+HA+CsVw42m/Qole4ngGdtrHcqsFamw3WhFTmxAm27NKZRln2odOnHYRfY8VjQQUrcktJ1+lHzANTf330HxGJHpeJSxTKee5OABDgB0m4752zYNb8625l0HBZQ/5SczlWR0gmyp/F1y6K5s+SH3pNaPLtUwhM6vKrIN/NPoXfj9rKRz4JTNtcVB9hRoTGZRBvPA3LX98ghKvo0Mz6PrbsK5zO/Q7tKCMnlOepU8idVJG4Vex5BgfDGaa8jOFnW4kUzRYVAG/G73jHihkQaY656/mu6Urd9CuSah18l0u1QdxvzwPPAsEsEdwMC7amWeSFTj6woB9VyZu1Dov1XbgtaTpLnGrg8sa4S+61jkNQyw37p1jHxtZzNqlDODAXSQBpKTdLzUY2UVjctXB9gD5duvSjnXxNUqlJA6KicuCj8caehxrQQWsRXr1KNj6FaxXXI7nVnLa+Ic5rJV6lWPF4fFCJgD9Xttb5LPbyQps8Yk8ofLznbgcXsEHVqVN3KOB5UoyTea3jQDXEPRuijceTjDOoYRhqy3FOdCFBW1AjnqazrFDO8AvMjYPXqRo8Tp1zeBVu4qTOn4w9huIZFulMv1HNOFsXxJZTdF++7/5Qh5E//likrCJGNW3THV0+M0RBDQMTau+55erAbY6FfjICamRVwz2Z7rP+cTZmGwZI4cVJaOy2/rAJAV3Lqh+nVSTpKAIXPShziDud3VTOPheucaBthI/z2NQfzCwnx8kOdu8tNnhHibKI2iWN17u8wS397uJp47eNJjGK+Fcdracj/Sq0kHx2jbrRGdPJTjuigMJyc8M6zFV64M4/EheEVROfYjM7sVn4rZliv4Krw0APwWzxWNXi8lr4iu6ySLUfikW5l3S13wTzUZJR0weGmr3gce4E5+sPuZtvKy3rxYNIa2vqSJ8kA5loW65SGeoL25ZEO8c55fT9LSkpKulCuvZZcf99yAQZr8sOlVHj3Z8oy2rLZMWqR82ulZbq8JnD3oPnRDkinfJ48Dc+LeTDnCONPRcclfWYblbY/AAdiwNmdliwUjJmVDByc3M+HPL6VJT9lV5YsqhhfBLvA5+96jcObMfbjRrVV1BkauTReIH2Fq6jlQt21IGGmHOsW4yc5k17eq//pt8SAfaNSAVzrjeHEpn/eI+cwehypa5aQcTT6QBxwaKhvxvg6LPQaOrbvtIyoz6ugde9dU8JtEibnWlveyTPKeEneTa8At3k8ijoA3t51FTpUhucRjazKINkbYB/NbyVx/xdai01yDaNJA58s18hrXaHZiCDx2t84YVRIQTAZ+8oQ/6iqJl60NHJZadR5cnYKLJg6n/Gq9GWRwUmaGayuAvSrmdVIa2RkCEN7ZIQJ2Od54u4HeanOXsifwtNkiXRFQXsokzvcHDTfKZn4JS2zp6LgpTw4f0Ba5pkUZ8oh4sCfsRtPMbe/8pRus/t8tFSLyX4VgBU3mFBEyiX/cKzMFvcj/5VHIrBIv5yXZaJ8zqbg8+p/v+HY5dzP62o5e0PRe/o9q4IXsniFbf5mNWp6q0gSjlm8lABp5zqfwW18Fj89UxldB9Zoe4/VSVcb1UoF6CkcFIXiTyOkbUpdtKkuHrp0QE8rBAPN2biMpfsRutklaFCaaI5p+L97QryzMxs80a7GwtZ5diBsA7F8XJnNcuAcNpKPe/O7Hs6d1VWkHNrQ7xo+UO1mpjzLZmFuIZ5D3717aimfHnVipz6F0YFPr5x3xmAjnbfGkoq6MsMJYcPH66UZxa/lm6ywT43iPP+sqmbZx3OjaLezd8rwCL+9WfJXXwGE12aoACC7S0JnLuddcE5wfWOCXKY8CzLuWme9DA3n3h06WsSel4aKixAsnGTV5ieqSj6cIHaj0K8B81jylqc+bPB/UcH4LoJmzjbbVS2THCU1u4uJpztDOC+B0atArespvRQ6n2LQ+7/NimaTJaxiDMSGFMvujTLk2m7ZlZAOwtsH/xUmaZuDKSUji0xf8P/mIzMOF7uWa7RxjNAveXi9RLnRPh8YiyLncR3lXsRt181ON1uP6/pLSEO9JYlTZKfVLC9oBn7lxS+IbvetTDgvqgFugjyf58nmO0+R1h66m3DDN0DaBoP3goKQiM0VP6pRlUZkyouVcOuYlnsszHnAFzRTBU54sfFLGgnVnr53GNVfsGCC4mx84JBpOhzB5S51X+EcRnYLOoZzsx+T09nWTDpplZA8rZScf2yIq8U6xUDpUN1oiT79ZBngnma8YyyQV1BXBAigRCrEBFsksYJM5ea0jLQbJnWxs/swbvjc16ElJk4QQFb531VCnF0flSRBuVlHabvmkHJfhx64gcNOZvKZSTnm23Js+x2/bZLfN9VJhsumPaySxU/CzF08qe+MrJ+pYGYKV/ta1U7UtYOnWQYynTC5uTAqpEYjlHphsxfs7O/HL8+34AE93xv3oYyBdDuPY0CyKYqAWvU5ystUYGsyNe9FpTOJysxVP4xTdtzGOxzbcq9qZ6PXYIlpS0LJ501ShRxjTIHJ8Iw2wGC2pHBPD+a60LhGAVTmbUdxcTdMbe973vdzyk1+pdMGRwmlU7O9i5FTkriff1ynFy1VJPlUoXvjxjUhJV6MlwaZd1lHNYrWN1WQvhyQyUp/W63N7jybfj5o9IAXmQouUrt1zrytPzhnwWiVDqWjNnvKQR+VqWh2pnBlfC5OKPOHjd5lDkLd/ZAkIEn6hym78KQ8kPf3bBVwvweeu3pfu4sCZ1D7n8jHnTlwv1Ymqcvb1FC9l1UmhVcEsR8tLg1fqe72UJeT7pr3PlnNLK22pyi7XqjbvPzYnGDd/8Ms/qS79KrhM5WrZ8yF5LPnMNK0FuBOv/qFPsri8d1VOCk9qTA1sBuDu2nizZtceyyn5HvgrSxCtTwcQ5yc9EedAFDivla7/REmWJbzWkVSCP3y38Ib/l7JcXXCj6c2LgLOTTyNZBKn4RuVO/p8AFwWVRAUK73hMVptCVa7L2BqRKbJ4MM8td3peUkFOVZbuT6m1vOm9TNO6C+HL83ZNitQqshUmPcC9KUupyiD5u9Tjf9dOe9t0reQHooGMIu3E8mgNvGh3MlnTa3L3pOsm36EUJ6EFnmKyS14z+wuP0R6Dml04vZifbMT7OjPx0cW5eA8KpEsUOxnjkfJ4bkVXv75CGRAlO140Jx4btXhuNInvrA3i0VEtzs90w4/fz47GsYFy0imqIiPxWnU3iyflx+tvbBd09ZDHVA/lHIFNQ5PnCFC0OStRjmW/1tFnd7YrwzqlE+32rvTLBOC5kceuUpymXSVbyitp9+TfOxWFV/hjt43J3QJftbtAUKC4mvLOKy+B2/K8qdxXnXK+5znp2HGAjLQrkxpflNHeZ6/iz1TBUuEj38pzN/N4FSBvchLuTAkjNATo4qgXfeFV+cRPPaZOM+cL5V7yLBcro6URvpF0td0mz6tMmuJaOS31vH4ywHBHuMQxuegcYS5vlnP0MTd2ez5I+0ud1gxNoYFtSRg0vsUAF0PqNc+B3ihUPWNOnQstlQV7dVL3GJlalPagqi8vpNzm7+m5EbCb2FwrySk5dDEtyfcMghwiMpXNnITNnd7KtWulfKIUdZ002n1MPPpSwWlxvsWzl6/Xhb43vWkGuMy8NeosxBZhngtgQZy5TNgQgLzCyWsdJXTlFSkYeT2zzZYApcWILeXLJP7K//IogZLQ01w8lCIwVaSVkyK4XMG71wCX8q6mLGd67hM3gnCfF4ZrJyd6ODt3D/NqJL1Du/LLKokHGXwfUK+V0thSr+sFKS+7nFN5lOsKWN1PZYGPcaMRw8kwFieDeA+G9jcOdeMnEOb58TA/ouGsxub0vWslZ00O3MGsNZ9fZ7p/eS2eA6HLrTmimk74mb1Gf0R0UITZsUHxYnOw0Yn7ClfSpdCilP16SXpcH7em8pDFlTKLQihKpdyV/uWJq+XKc3nkoYrnfHdcjfZwrbh63qmcJlOKJe94xdJNMJz1pcLyeqWkpXn13r9f0gBUSzlKkUUZCYG/84xjzrQHtuq6aS8I5bpdao4h+uK0lbtKNpsybUcpx9eziPzB2TQaKPVKU7BZkJxJuLzj/aqHyivJ93uB+RGkKvosvHdVb2RU618Cxn88l5NxAFHZN1dNqt4pvU1Fdq+VdmYGPKxMW34pxKN4vlqWspGYz/uvl7J7HwN2lU+nRw1E5vK++9zr/JqqEkvbSrp6rdTprdQ/vCOGCp1Kltdc3plG03HqdO6LBMygX3JIEDyUniEukrJNU74vZV89itcpmNdMTqgV58JiWWXGfykzl8vJPtxx8u31UlX/9ZLOjU8Kf8nKmW2Z4jnvXsXt9VPE/w8BbIopUZWMXwAAAABJRU5ErkJggg==;fontStyle=1;fontSize=11;fontFamily=Roboto;" vertex="1" parent="kiOYJkHSEYuATrHRKsPs-39">
          <mxGeometry x="40" y="13.219999999999999" width="93.79" height="17" as="geometry" />
        </mxCell>
        <mxCell id="hcEnWGUbDba2OEeTrmwM-8" value="" style="shape=image;verticalLabelPosition=bottom;labelBackgroundColor=default;verticalAlign=top;aspect=fixed;imageAspect=0;image=https://www.hostzealot.com/image/original/8d71fe5a-0d77-11ef-8132-002590a5fecf.png;imageBorder=default;fontStyle=1;fontSize=11;fontFamily=Roboto;" vertex="1" parent="kiOYJkHSEYuATrHRKsPs-39">
          <mxGeometry x="40" y="40" width="88.1" height="32.63" as="geometry" />
        </mxCell>
        <mxCell id="kiOYJkHSEYuATrHRKsPs-9" value="Secondary Router (192.168.Y.0/24)&lt;br style=&quot;font-size: 11px;&quot;&gt;Also Wireguard (10.0.X.0/24)&lt;br style=&quot;font-size: 11px;&quot;&gt;&lt;div style=&quot;font-size: 11px;&quot;&gt;(Very uneeded)&lt;/div&gt;" style="image;aspect=fixed;perimeter=ellipsePerimeter;html=1;align=center;shadow=0;dashed=0;spacingTop=3;image=img/lib/active_directory/shadowed_router.svg;labelBackgroundColor=none;fontStyle=1;fontSize=11;fontFamily=Roboto;" parent="kiOYJkHSEYuATrHRKsPs-31" vertex="1">
          <mxGeometry x="80" y="177" width="61.5" height="75" as="geometry" />
        </mxCell>
        <mxCell id="kiOYJkHSEYuATrHRKsPs-33" style="edgeStyle=orthogonalEdgeStyle;rounded=0;orthogonalLoop=1;jettySize=auto;html=1;entryX=0;entryY=0.5;entryDx=0;entryDy=0;fontStyle=1;fontSize=11;fontFamily=Roboto;" parent="kiOYJkHSEYuATrHRKsPs-31" source="kiOYJkHSEYuATrHRKsPs-9" target="kiOYJkHSEYuATrHRKsPs-32" edge="1">
          <mxGeometry relative="1" as="geometry" />
        </mxCell>
        <mxCell id="hcEnWGUbDba2OEeTrmwM-9" style="edgeStyle=orthogonalEdgeStyle;rounded=0;orthogonalLoop=1;jettySize=auto;html=1;entryX=0.007;entryY=0.475;entryDx=0;entryDy=0;entryPerimeter=0;fontStyle=1;fontSize=11;fontFamily=Roboto;" edge="1" parent="kiOYJkHSEYuATrHRKsPs-31" source="kiOYJkHSEYuATrHRKsPs-32" target="kiOYJkHSEYuATrHRKsPs-39">
          <mxGeometry relative="1" as="geometry" />
        </mxCell>
        <mxCell id="hcEnWGUbDba2OEeTrmwM-10" value="Arcane (Arch Linux VM)" style="swimlane;horizontal=0;whiteSpace=wrap;html=1;fontStyle=1;fontSize=11;fontFamily=Roboto;fillColor=#e1d5e7;strokeColor=#9673a6;" vertex="1" parent="kiOYJkHSEYuATrHRKsPs-31">
          <mxGeometry x="410" y="370" width="300" height="220" as="geometry" />
        </mxCell>
        <mxCell id="hcEnWGUbDba2OEeTrmwM-14" value="" style="shape=image;verticalLabelPosition=bottom;labelBackgroundColor=default;verticalAlign=top;aspect=fixed;imageAspect=0;image=https://upload.wikimedia.org/wikipedia/commons/thumb/f/fb/Minecraft-creeper-face.jpg/640px-Minecraft-creeper-face.jpg;fontStyle=1;fontSize=11;fontFamily=Roboto;" vertex="1" parent="hcEnWGUbDba2OEeTrmwM-10">
          <mxGeometry x="55.69" y="20.000000000000007" width="78.1" height="78.1" as="geometry" />
        </mxCell>
        <mxCell id="hcEnWGUbDba2OEeTrmwM-15" value="WIP" style="swimlane;whiteSpace=wrap;html=1;fontStyle=1;fontSize=11;fontFamily=Roboto;fillColor=#e1d5e7;strokeColor=#9673a6;" vertex="1" parent="kiOYJkHSEYuATrHRKsPs-31">
          <mxGeometry x="70" y="350" width="170" height="220" as="geometry" />
        </mxCell>
        <mxCell id="hcEnWGUbDba2OEeTrmwM-17" value="NextCloud" style="shape=image;verticalLabelPosition=bottom;labelBackgroundColor=none;verticalAlign=top;aspect=fixed;imageAspect=0;image=https://raw.githubusercontent.com/loganmarchione/homelab-svg-assets/main/assets/nextcloud.svg;fontStyle=1;fontSize=11;fontFamily=Roboto;" vertex="1" parent="hcEnWGUbDba2OEeTrmwM-15">
          <mxGeometry x="10" y="28.1" width="61.9" height="61.9" as="geometry" />
        </mxCell>
        <mxCell id="hcEnWGUbDba2OEeTrmwM-16" value="Docker" style="shape=image;verticalLabelPosition=bottom;labelBackgroundColor=none;verticalAlign=top;aspect=fixed;imageAspect=0;image=https://raw.githubusercontent.com/loganmarchione/homelab-svg-assets/main/assets/docker.svg;fontStyle=1;fontSize=11;fontFamily=Roboto;" vertex="1" parent="hcEnWGUbDba2OEeTrmwM-15">
          <mxGeometry x="100" y="40" width="50" height="50" as="geometry" />
        </mxCell>
        <mxCell id="hcEnWGUbDba2OEeTrmwM-22" value="Jellyfin" style="shape=image;verticalLabelPosition=bottom;labelBackgroundColor=none;verticalAlign=top;aspect=fixed;imageAspect=0;image=https://raw.githubusercontent.com/home-assistant/brands/refs/heads/master/core_integrations/jellyfin/icon.png;fontStyle=1;fontSize=11;fontFamily=Roboto;" vertex="1" parent="hcEnWGUbDba2OEeTrmwM-15">
          <mxGeometry x="17.95" y="120" width="46" height="46" as="geometry" />
        </mxCell>
        <mxCell id="hcEnWGUbDba2OEeTrmwM-24" value="" style="shape=image;verticalLabelPosition=bottom;labelBackgroundColor=default;verticalAlign=top;aspect=fixed;imageAspect=0;image=https://github.com/immich-app/immich/raw/main/design/immich-logo-stacked-light.svg;fontStyle=1;fontSize=11;fontFamily=Roboto;" vertex="1" parent="hcEnWGUbDba2OEeTrmwM-15">
          <mxGeometry x="90" y="120" width="70" height="70" as="geometry" />
        </mxCell>
        <mxCell id="hcEnWGUbDba2OEeTrmwM-25" style="edgeStyle=orthogonalEdgeStyle;rounded=0;orthogonalLoop=1;jettySize=auto;html=1;exitX=1;exitY=0.5;exitDx=0;exitDy=0;entryX=0;entryY=0.5;entryDx=0;entryDy=0;fontStyle=1;fontSize=11;fontFamily=Roboto;" edge="1" parent="1" source="kiOYJkHSEYuATrHRKsPs-10" target="kiOYJkHSEYuATrHRKsPs-9">
          <mxGeometry relative="1" as="geometry" />
        </mxCell>
      </root>
    </mxGraphModel>
  </diagram>
</mxfile>
